SplineFontDB: 3.0
FontName: Devonshire-Regular
FullName: Devonshire Regular
FamilyName: Devonshire
Weight: Regular
Copyright: Copyright (c) 2011 by Brian J. Bonislawsky DBA Astigmatic (AOETI) (astigma@astigmatic.com), with Reserved\nFont Name "Devonshire"
Version: 001.001
ItalicAngle: 0
UnderlinePosition: -113
UnderlineWidth: 20
Ascent: 800
Descent: 200
sfntRevision: 0x00010042
LayerCount: 2
Layer: 0 1 "Back"  1
Layer: 1 1 "Fore"  0
NeedsXUIDChange: 1
XUID: [1021 288 713564382 5230592]
UniqueID: 4431639
FSType: 0
OS2Version: 2
OS2_WeightWidthSlopeOnly: 0
OS2_UseTypoMetrics: 1
CreationTime: 1321267585
ModificationTime: 1321296588
PfmFamily: 65
TTFWeight: 400
TTFWidth: 5
LineGap: 0
VLineGap: 0
Panose: 3 6 7 2 3 7 6 7 13 4
OS2TypoAscent: 181
OS2TypoAOffset: 1
OS2TypoDescent: -233
OS2TypoDOffset: 1
OS2TypoLinegap: 0
OS2WinAscent: 0
OS2WinAOffset: 1
OS2WinDescent: 0
OS2WinDOffset: 1
HheadAscent: 0
HheadAOffset: 1
HheadDescent: 0
HheadDOffset: 1
OS2SubXSize: 700
OS2SubYSize: 650
OS2SubXOff: 0
OS2SubYOff: 140
OS2SupXSize: 700
OS2SupYSize: 650
OS2SupXOff: 0
OS2SupYOff: 477
OS2StrikeYSize: 50
OS2StrikeYPos: 250
OS2Vendor: 'AOEF'
OS2CodePages: 00000093.00000000
OS2UnicodeRanges: a00000ef.4000004a.00000000.00000000
Lookup: 1 0 0 "'aalt' Access All Alternates in Latin lookup 0"  {"'aalt' Access All Alternates in Latin lookup 0 subtable"  } ['aalt' ('latn' <'dflt' > ) ]
Lookup: 1 0 0 "'sups' Superscript in Latin lookup 1"  {"'sups' Superscript in Latin lookup 1 subtable" ("superior" ) } ['sups' ('latn' <'dflt' > ) ]
Lookup: 4 0 1 "'liga' Standard Ligatures in Latin lookup 2"  {"'liga' Standard Ligatures in Latin lookup 2 subtable"  } ['liga' ('latn' <'dflt' > ) ]
Lookup: 6 0 0 "'ordn' Ordinals in Latin lookup 3"  {"'ordn' Ordinals in Latin lookup 3 subtable"  } ['ordn' ('latn' <'dflt' > ) ]

StartChar: A
Encoding: 65 65 1
Width: 601
Flags: HMW
HStem: -78 21G<499.5 537> -56 117<189.5 217 153 234.5> 208 93<204.5 237 237 246 194.5 301> 674 20G<413 450.5>
VStem: -30 31<160 171 152.5 188> 373 156<631 641.5 612 657 612 675> 454 54 454 147
LayerCount: 2
Fore
SplineSet
324 299 m 1,0,1
 373 519.5 373 519.5 373 631 c 2,2,-1
 373 657 l 2,3,4
 373 674 373 674 381.5 682.5 c 128,-1,5
 390 691 390 691 399.5 692.5 c 128,-1,6
 409 694 409 694 437.5 694 c 128,-1,7
 466 694 466 694 497.5 673 c 128,-1,8
 529 652 529 652 529 616 c 0,9,10
 529 609 529 609 520 529 c 128,-1,11
 511 449 511 449 508 324 c 1,12,13
 542 338 542 338 562.5 353.5 c 128,-1,14
 583 369 583 369 590 369 c 0,15,16
 601 369 601 369 601 348.5 c 128,-1,17
 601 328 601 328 570 296.5 c 128,-1,18
 539 265 539 265 508 245 c 1,19,20
 508 223 508 223 510 175 c 1,21,22
 513 177 513 177 518.5 177 c 128,-1,23
 524 177 524 177 529.5 174 c 128,-1,24
 535 171 535 171 539.5 167 c 128,-1,25
 544 163 544 163 550 155.5 c 128,-1,26
 556 148 556 148 559 144 c 128,-1,27
 562 140 562 140 567 132.5 c 128,-1,28
 572 125 572 125 573 124 c 0,29,30
 591 97 591 97 591 81.5 c 128,-1,31
 591 66 591 66 585 46 c 1,32,33
 562 -13 562 -13 554 -57 c 0,34,35
 550 -78 550 -78 530 -78 c 0,36,37
 508.25 -78 508.25 -78 499.625 -66.5 c 128,-1,38
 491 -55 491 -55 486.5 -48 c 128,-1,39
 482 -41 482 -41 478.5 -28 c 128,-1,40
 475 -15 475 -15 473 -7.5 c 128,-1,41
 471 0 471 0 469 16 c 0,42,43
 466.4 36.8 466.4 36.8 465 58.5 c 2,44,-1
 464 74 l 2,45,46
 460 122 460 122 454 220 c 1,47,48
 428 211 428 211 374 209 c 1,49,50
 358 137 358 137 341.5 76.5 c 128,-1,51
 325 16 325 16 287.5 -20 c 128,-1,52
 250 -56 250 -56 196 -56 c 0,53,54
 180 -56 180 -56 158 -51 c 0,55,56
 29 -16 29 -16 -18 112 c 0,57,58
 -30 145 -30 145 -30 170 c 0,59,60
 -30 230 -30 230 20 252 c 0,61,62
 128 301 128 301 231 301 c 1,63,-1
 324 299 l 1,0,1
450 309 m 1,64,65
 446 397 446 397 442 577 c 1,66,67
 434 531 434 531 417.5 439 c 128,-1,68
 401 347 401 347 393 301 c 1,69,70
 431 305 431 305 450 309 c 1,64,65
301 208 m 1,71,-1
 237 208 l 2,72,73
 115 208 115 208 42 191 c 1,74,75
 1 183 1 183 1 161 c 0,76,77
 1 144 1 144 28 117 c 128,-1,78
 55 90 55 90 98 75.5 c 128,-1,79
 141 61 141 61 170 61 c 128,-1,80
 199 61 199 61 218.5 71 c 128,-1,81
 238 81 238 81 249.5 92 c 128,-1,82
 261 103 261 103 272.5 128.5 c 0,83,84
 286.38961039 159.298701299 286.38961039 159.298701299 301 208 c 1,71,-1
EndSplineSet
EndChar

StartChar: B
Encoding: 66 66 2
Width: 478
Flags: HMW
HStem: -48 93<169.5 245.5> 592 110<168 174 187 205>
VStem: 131 52<102 102> 131 65<91 94 64 128> 158 55 334 90<534 535 501.5 552>
LayerCount: 2
Fore
SplineSet
13 564 m 128,-1,1
 7 564 7 564 3 566.5 c 128,-1,2
 -1 569 -1 569 -3 575 c 128,-1,3
 -5 581 -5 581 -6.5 586.5 c 128,-1,4
 -8 592 -8 592 -8.5 600.5 c 128,-1,5
 -9 609 -9 609 -9 614.5 c 2,6,-1
 -9 641 l 2,7,8
 -9 666 -9 666 1 666 c 0,9,10
 3 666 3 666 7 664 c 1,11,12
 100 702 100 702 201 702 c 0,13,14
 341 702 341 702 394 614 c 0,15,16
 424 563 424 563 424 517 c 128,-1,17
 424 471 424 471 381.5 425.5 c 128,-1,18
 339 380 339 380 260 325 c 1,19,20
 427 274 427 274 457 162 c 0,21,22
 463 143 463 143 463 122 c 0,23,24
 463 4 463 4 250 -39 c 0,25,26
 210 -48 210 -48 185 -48 c 128,-1,27
 160 -48 160 -48 141 -36.5 c 128,-1,28
 122 -25 122 -25 122 -6.5 c 128,-1,29
 122 12 122 12 134 36 c 1,30,31
 131 69 131 69 131 118.5 c 128,-1,32
 131 168 131 168 143 255 c 1,33,34
 133 256 133 256 126.5 263 c 128,-1,35
 120 270 120 270 120 280.5 c 128,-1,36
 120 291 120 291 123.5 310 c 128,-1,37
 127 329 127 329 128 336 c 0,38,39
 133 374 133 374 158 391 c 1,40,41
 171 559 171 559 174 592 c 1,42,43
 128 592 128 592 95.5 588 c 128,-1,44
 63 584 63 584 41 574 c 128,-1,0
 19 564 19 564 13 564 c 128,-1,1
334 545 m 0,45,46
 334 559 334 559 299.5 575.5 c 128,-1,47
 265 592 265 592 187 592 c 1,48,49
 218 575 218 575 218 534 c 2,50,-1
 218 526 l 1,51,52
 213 488 213 488 213 463.5 c 128,-1,53
 213 439 213 439 214 430 c 1,54,55
 334 521 334 521 334 545 c 0,45,46
370 104 m 0,56,57
 391 116 391 116 391 133.5 c 128,-1,58
 391 151 391 151 376 170 c 0,59,60
 335 222 335 222 232 253 c 0,61,62
 220 257 220 257 213.5 257 c 128,-1,63
 207 257 207 257 201 254 c 1,64,65
 184 158 184 158 183 101 c 1,66,67
 191 122 191 122 214.5 140 c 128,-1,68
 238 158 238 158 253 158 c 128,-1,69
 268 158 268 158 268 153 c 0,70,71
 268 146 268 146 245.5 138.5 c 128,-1,72
 223 131 223 131 209.5 116.5 c 128,-1,73
 196 102 196 102 196 73.5 c 128,-1,74
 196 45 196 45 223 45 c 0,75,76
 273 45 273 45 370 104 c 0,56,57
EndSplineSet
EndChar

StartChar: C
Encoding: 67 67 3
Width: 384
Flags: HMW
HStem: -33 21G<191.5 212.5> 705 20G<237 243>
VStem: 30 100<193.5 253.5 168 293.5>
LayerCount: 2
Fore
SplineSet
359 224 m 0,0,1
 359 94 359 94 259 -11 c 0,2,3
 238 -33 238 -33 201 -33 c 0,4,5
 141 -33 141 -33 102 -3 c 0,6,7
 30 52.3846153846 30 52.3846153846 30 217 c 0,8,9
 30 326 30 326 74 447 c 128,-1,10
 118 568 118 568 186 668 c 1,11,12
 196 680 196 680 201 680 c 128,-1,13
 206 680 206 680 212.5 677 c 128,-1,14
 219 674 219 674 226.5 670 c 128,-1,15
 234 666 234 666 237 665 c 1,16,-1
 237 695 l 1,17,18
 231 707 231 707 231 716 c 128,-1,19
 231 725 231 725 239 725 c 128,-1,20
 247 725 247 725 256 722 c 0,21,22
 344 692 344 692 344 578 c 0,23,24
 344 513 344 513 311 445 c 0,25,26
 302 427 302 427 295 427 c 0,27,28
 290 427 290 427 280 443 c 1,29,30
 248 509 248 509 239 614 c 1,31,32
 224 614 224 614 217 603 c 128,-1,33
 210 592 210 592 193 545 c 0,34,35
 130 375 130 375 130 196 c 0,36,37
 130 97 130 97 152 27 c 1,38,39
 217 88 217 88 264.5 178.5 c 128,-1,40
 312 269 312 269 335 364 c 1,41,42
 359 285 359 285 359 224 c 0,0,1
EndSplineSet
EndChar

StartChar: D
Encoding: 68 68 4
Width: 490
Flags: HMW
HStem: -23 117<218.5 300.5> -13 21G<111.5 128> 611 86<241 259>
VStem: 10 196<472.5 609.5> 113 48 168 61 389 91<356.5 414 356.5 416>
LayerCount: 2
Fore
SplineSet
14 566 m 1,0,-1
 10 605 l 1,1,2
 10 618 10 618 21 625 c 0,3,4
 78 663 78 663 182 688 c 1,5,6
 225 697 225 697 253 697 c 0,7,8
 395 697 395 697 458 523 c 0,9,10
 480 461 480 461 480 392 c 0,11,12
 480 288 480 288 425 182 c 128,-1,13
 370 76 370 76 312 11 c 1,14,15
 280 -23 280 -23 244 -23 c 128,-1,16
 208 -23 208 -23 188 5 c 128,-1,17
 168 33 168 33 168 76.5 c 128,-1,18
 168 120 168 120 184 174 c 128,-1,19
 200 228 200 228 234 242 c 1,20,21
 229 219 229 219 229 193.5 c 128,-1,22
 229 168 229 168 246.5 131 c 128,-1,23
 264 94 264 94 288 94 c 128,-1,24
 312 94 312 94 327 122 c 0,25,26
 389 234 389 234 389 377 c 0,27,28
 389 547 389 547 300 597 c 0,29,30
 274 611 274 611 250 611 c 128,-1,31
 226 611 226 611 198 597 c 1,32,33
 206 554 206 554 206 488.5 c 128,-1,34
 206 423 206 423 183.5 279.5 c 128,-1,35
 161 136 161 136 161 61 c 2,36,-1
 161 29 l 2,37,38
 161 3 161 3 149 -5 c 128,-1,39
 137 -13 137 -13 124 -13 c 0,40,41
 86.9454545455 -13 86.9454545455 -13 72 124 c 0,42,43
 66 179 66 179 62 198 c 1,44,45
 65 199 65 199 71 199 c 0,46,47
 89 199 89 199 113 173 c 1,48,-1
 113 199 l 1,49,50
 112 278 112 278 134 487 c 0,51,52
 135 495 135 495 135 516.5 c 128,-1,53
 135 538 135 538 131 561 c 1,54,55
 124 557 124 557 103 540 c 0,56,57
 53.5882352941 500 53.5882352941 500 33.2941176471 500 c 128,-1,58
 13 500 13 500 13 535 c 1,59,-1
 14 566 l 1,0,-1
EndSplineSet
EndChar

StartChar: E
Encoding: 69 69 5
Width: 452
Flags: HMW
HStem: -36 70<142 165.5 120.5 213> 152 55<272 293.5> 690 20G<343 357.5>
VStem: -10 84<116.5 120 84.5 150> 91 54<424.5 507> 308 119<91.5 121>
LayerCount: 2
Fore
SplineSet
145 443 m 0,0,1
 145 409 145 409 284 409 c 2,2,-1
 301 409 l 1,3,4
 328 424 328 424 335 424 c 0,5,6
 352 424 352 424 377.5 396.5 c 128,-1,7
 403 369 403 369 403 333 c 0,8,9
 403 321 403 321 390 321 c 0,10,11
 386 321 386 321 353 327 c 1,12,13
 343 324 343 324 315.5 316 c 128,-1,14
 288 308 288 308 278 305 c 128,-1,15
 268 302 268 302 245 294 c 128,-1,16
 222 286 222 286 211.5 280.5 c 128,-1,17
 201 275 201 275 182.5 265 c 128,-1,18
 164 255 164 255 152.5 244 c 0,19,20
 114.32 207.48 114.32 207.48 100 186 c 0,21,22
 74 150 74 150 74 111.5 c 128,-1,23
 74 73 74 73 92 53.5 c 128,-1,24
 110 34 110 34 151.5 34 c 128,-1,25
 193 34 193 34 250.5 54.5 c 128,-1,26
 308 75 308 75 308 114 c 0,27,28
 308 127 308 127 302 139.5 c 128,-1,29
 296 152 296 152 282.5 152 c 128,-1,30
 269 152 269 152 200.5 111.5 c 128,-1,31
 132 71 132 71 128 71 c 128,-1,32
 124 71 124 71 124 79.5 c 128,-1,33
 124 88 124 88 131 100 c 0,34,35
 160 149 160 149 207 178 c 128,-1,36
 254 207 254 207 305 207 c 128,-1,37
 356 207 356 207 391.5 177 c 128,-1,38
 427 147 427 147 427 108.5 c 128,-1,39
 427 70 427 70 407 44 c 0,40,41
 346 -36 346 -36 175 -36 c 0,42,43
 69 -36 69 -36 18 46 c 1,44,45
 -10 89 -10 89 -10 129 c 128,-1,46
 -10 169 -10 169 15 226.5 c 128,-1,47
 40 284 40 284 81.5 313 c 128,-1,48
 123 342 123 342 188 365 c 1,49,50
 91 396 91 396 91 488 c 0,51,52
 91 543 91 543 137 582 c 0,53,54
 175.632750397 615.99682035 175.632750397 615.99682035 239.316375199 652.498410175 c 128,-1,55
 303 689 303 689 319 699.5 c 128,-1,56
 335 710 335 710 353 710 c 128,-1,57
 371 710 371 710 394 683 c 1,58,59
 406 685 406 685 411 685 c 0,60,61
 434 685 434 685 444 665 c 1,62,63
 452 646 452 646 452 640 c 0,64,65
 452 604 452 604 299 543 c 0,66,67
 293 541 293 541 291 541 c 0,68,69
 285 541 285 541 285 549.5 c 128,-1,70
 285 558 285 558 295 588 c 1,71,-1
 262 571.5 l 2,72,73
 203.727272727 542.363636364 203.727272727 542.363636364 191.363636364 527.681818182 c 0,74,75
 167.187919463 498.973154362 167.187919463 498.973154362 156.093959732 473.986577181 c 128,-1,76
 145 449 145 449 145 443 c 0,0,1
EndSplineSet
EndChar

StartChar: F
Encoding: 70 70 6
Width: 501
Flags: HMW
HStem: -36 133<192 219.5 192 224> 626 68<266 281> 700 20G<150.5 158.5>
VStem: 69 31<188 208> 325 77
LayerCount: 2
Fore
SplineSet
402 418 m 1,0,1
 535 475 535 475 543 475 c 128,-1,2
 551 475 551 475 551 462.5 c 128,-1,3
 551 450 551 450 525 411 c 0,4,5
 477 336 477 336 388 301 c 1,6,7
 365 174 365 174 299 50 c 1,8,9
 255 -36 255 -36 200 -36 c 0,10,11
 169 -36 169 -36 133 -6 c 0,12,13
 107.5 15.5769230769 107.5 15.5769230769 98.75 37.7884615385 c 0,14,15
 86.4691358025 68.962962963 86.4691358025 68.962962963 77.7345679012 96.9814814815 c 128,-1,16
 69 125 69 125 69 158.5 c 128,-1,17
 69 192 69 192 89 227.5 c 128,-1,18
 109 263 109 263 143 290.5 c 0,19,20
 202.860098522 338.916256158 202.860098522 338.916256158 282 371 c 1,21,-1
 323 387 l 1,22,23
 325 406 325 406 325 464.5 c 128,-1,24
 325 523 325 523 313 582 c 1,25,26
 306 626 306 626 267 626 c 0,27,28
 249 626 249 626 235 618 c 128,-1,29
 221 610 221 610 217 585 c 1,30,31
 190 453 190 453 117 364 c 0,32,33
 87 327 87 327 65.5 327 c 128,-1,34
 44 327 44 327 29 355 c 1,35,36
 26 363 26 363 24.5 378.5 c 128,-1,37
 23 394 23 394 21.5 403 c 128,-1,38
 20 412 20 412 20 420 c 0,39,40
 20 470.5 20 470.5 84 538.5 c 0,41,42
 108 564 108 564 128 602.5 c 128,-1,43
 148 641 148 641 148 682 c 1,44,-1
 147 707 l 2,45,46
 147 720 147 720 154 720 c 0,47,48
 163 720 163 720 210 673 c 1,49,50
 242 694 242 694 284.5 694 c 128,-1,51
 327 694 327 694 357 658.5 c 128,-1,52
 387 623 387 623 395.5 566.5 c 128,-1,53
 404 510 404 510 402 418 c 1,0,1
305 276 m 1,54,-1
 258 264 l 2,55,56
 237 259 237 259 196.5 255 c 128,-1,57
 156 251 156 251 137 247 c 0,58,59
 100 240 100 240 100 209 c 128,-1,60
 100 178 100 178 141 137.5 c 128,-1,61
 182 97 182 97 208.5 97 c 128,-1,62
 235 97 235 97 245 117 c 1,63,64
 283 185 283 185 305 276 c 1,54,-1
EndSplineSet
EndChar

StartChar: G
Encoding: 71 71 7
Width: 443
Flags: HMW
HStem: -22 76<152 237> 476 243<212 295.5>
VStem: 30 93<196 260.5 180 308> 252 101<610 614.5> 273 111<166 258>
LayerCount: 2
Fore
SplineSet
248 276 m 1,0,-1
 231 275 l 1,1,2
 202 275 202 275 184 290.5 c 128,-1,3
 166 306 166 306 166 316 c 128,-1,4
 166 326 166 326 179 332.5 c 128,-1,5
 192 339 192 339 264.5 372 c 128,-1,6
 337 405 337 405 365.5 419 c 128,-1,7
 394 433 394 433 407.5 433 c 128,-1,8
 421 433 421 433 438 418.5 c 128,-1,9
 455 404 455 404 455 390.5 c 128,-1,10
 455 377 455 377 450 368.5 c 128,-1,11
 445 360 445 360 434.5 352.5 c 128,-1,12
 424 345 424 345 416.5 340.5 c 128,-1,13
 409 336 409 336 394.5 329.5 c 128,-1,14
 380 323 380 323 377 321 c 0,15,16
 355 311 355 311 355 299 c 1,17,-1
 358 290 l 1,18,19
 384 241 384 241 384 193 c 0,20,21
 384 121 384 121 333 44 c 1,22,23
 287 -22 287 -22 212 -22 c 0,24,25
 162 -22 162 -22 120 -2.5 c 128,-1,26
 78 17 78 17 61 58 c 0,27,28
 30 136 30 136 30 224 c 0,29,30
 30 287.571428571 30 287.571428571 39 326.785714286 c 128,-1,31
 48 366 48 366 52.5 387 c 128,-1,32
 57 408 57 408 70 442.5 c 128,-1,33
 83 477 83 477 88 492 c 128,-1,34
 93 507 93 507 110.5 546.5 c 128,-1,35
 128 586 128 586 132 595 c 0,36,37
 160 658 160 658 179 696 c 1,38,39
 189 719 189 719 217.5 719 c 128,-1,40
 246 719 246 719 278 708.5 c 128,-1,41
 310 698 310 698 325 682 c 0,42,43
 353 652 353 652 353 623.5 c 128,-1,44
 353 595 353 595 317 538 c 0,45,46
 306 521.5 306 521.5 306 490 c 1,47,48
 304 476 304 476 291 476 c 0,49,50
 283 476 283 476 277 481 c 128,-1,51
 271 486 271 486 269.5 491.5 c 128,-1,52
 268 497 268 497 265.5 507 c 128,-1,53
 263 517 263 517 262 520 c 0,54,55
 252 548 252 548 252 612 c 0,56,57
 252 625 252 625 244 625 c 128,-1,58
 236 625 236 625 202 539 c 0,59,60
 123 343 123 343 123 200 c 0,61,62
 123 123 123 123 135 75 c 0,63,64
 140 54 140 54 161 54 c 128,-1,65
 182 54 182 54 206 85 c 0,66,67
 273 172 273 172 273 249 c 0,68,69
 273 276 273 276 248 276 c 1,0,-1
EndSplineSet
EndChar

StartChar: H
Encoding: 72 72 8
Width: 472
Flags: HMW
HStem: -48 21G<190 212.5> -14 21G<374 388> 698 20G<391.5 399.5>
LayerCount: 2
Fore
SplineSet
62 297 m 1,0,-1
 96 288 l 1,1,2
 113.5 288 113.5 288 173 305 c 1,3,4
 184 356 184 356 208.5 450.5 c 0,5,6
 246 595.142857143 246 595.142857143 246 611.071428571 c 128,-1,7
 246 627 246 627 236 627 c 0,8,9
 224 627 224 627 200.5 621 c 128,-1,10
 177 615 177 615 177 605 c 0,11,12
 177 598 177 598 192.5 581 c 128,-1,13
 208 564 208 564 208 557.5 c 128,-1,14
 208 551 208 551 207 549 c 0,15,16
 129 450 129 450 68 404 c 0,17,18
 58 396 58 396 48 396 c 0,19,20
 26 396 26 396 17 426 c 0,21,22
 15 433 15 433 7 450.5 c 0,23,24
 -10 487.6875 -10 487.6875 -10 507.34375 c 128,-1,25
 -10 527 -10 527 6 545 c 1,26,27
 76 615 76 615 180 690 c 1,28,29
 192 700 192 700 213 700 c 128,-1,30
 234 700 234 700 260 691.5 c 128,-1,31
 286 683 286 683 306.5 639 c 128,-1,32
 327 595 327 595 327 570.5 c 128,-1,33
 327 546 327 546 319 505.5 c 128,-1,34
 311 465 311 465 281 333 c 1,35,-1
 330 344 l 1,36,37
 349 508 349 508 396 674 c 0,38,39
 398 680 398 680 398 685.5 c 128,-1,40
 398 691 398 691 393 700 c 128,-1,41
 388 709 388 709 388 713.5 c 128,-1,42
 388 718 388 718 393.5 718 c 128,-1,43
 399 718 399 718 406.5 713 c 0,44,45
 447 686 447 686 447 661 c 0,46,47
 447 649 447 649 444 637 c 0,48,49
 417 513 417 513 402 359 c 1,50,51
 408 360 408 360 419 360 c 128,-1,52
 430 360 430 360 458.5 349.5 c 128,-1,53
 487 339 487 339 487 323 c 0,54,55
 487 317 487 317 480 311 c 128,-1,56
 473 305 473 305 447 282.5 c 128,-1,57
 421 260 421 260 412 257 c 128,-1,58
 403 254 403 254 393 251 c 1,59,60
 387 185 387 185 387 160.5 c 128,-1,61
 387 136 387 136 395 92.5 c 128,-1,62
 403 49 403 49 403 35.5 c 128,-1,63
 403 22 403 22 397 4 c 128,-1,64
 391 -14 391 -14 378 -14 c 0,65,66
 370 -14 370 -14 357 -3 c 0,67,68
 312 39 312 39 312 89.5 c 128,-1,69
 312 140 312 140 320 228 c 1,70,71
 289 220 289 220 252 207 c 1,72,73
 226 94 226 94 226 68 c 1,74,-1
 236 0 l 1,75,76
 236 -16 236 -16 226 -32 c 128,-1,77
 216 -48 216 -48 203.5 -48 c 128,-1,78
 191 -48 191 -48 183 -39 c 128,-1,79
 175 -30 175 -30 165.5 -11 c 128,-1,80
 156 8 156 8 156 9 c 0,81,82
 137 44 137 44 137 73 c 128,-1,83
 137 102 137 102 148 179 c 1,84,85
 116 183 116 183 103 199 c 128,-1,86
 90 215 90 215 72.5 246.5 c 128,-1,87
 55 278 55 278 55 287.5 c 128,-1,88
 55 297 55 297 62 297 c 1,0,-1
EndSplineSet
EndChar

StartChar: I
Encoding: 73 73 9
Width: 293
Flags: HMW
HStem: -50 204<78.5 202.5> 668 60<183 201.5>
VStem: 20 140<415 557.5> 207 65<415.5 609.5>
LayerCount: 2
Fore
SplineSet
207 634 m 2,0,1
 207 668 207 668 193 668 c 128,-1,2
 179 668 179 668 164.5 647 c 128,-1,3
 150 626 150 626 150 618 c 128,-1,4
 150 610 150 610 155 588 c 128,-1,5
 160 566 160 566 160 542.5 c 128,-1,6
 160 519 160 519 143 444.5 c 128,-1,7
 126 370 126 370 115.5 345.5 c 128,-1,8
 105 321 105 321 91 321 c 0,9,10
 80 321 80 321 71.5 330.5 c 128,-1,11
 63 340 63 340 51.5 359 c 128,-1,12
 40 378 40 378 30 391.5 c 128,-1,13
 20 405 20 405 20 422 c 128,-1,14
 20 439 20 439 51 508.5 c 128,-1,15
 82 578 82 578 103 619 c 1,16,17
 89 636 89 636 89 642 c 0,18,19
 89 654 89 654 106 654 c 0,20,21
 111 654 111 654 119 650 c 1,22,23
 121 653 121 653 128 666.5 c 128,-1,24
 135 680 135 680 138 685 c 128,-1,25
 141 690 141 690 148.5 700.5 c 128,-1,26
 156 711 156 711 162.5 715.5 c 0,27,28
 180.555555556 728 180.555555556 728 198 728 c 0,29,30
 273 728 273 728 272.027115588 509.854836463 c 0,31,32
 272 504 272 504 272 501 c 0,33,34
 272 270 272 270 218 -28 c 0,35,36
 213 -50 213 -50 196 -50 c 0,37,38
 176.548387097 -50 176.548387097 -50 151.774193548 -26 c 128,-1,39
 127 -2 127 -2 114 11 c 0,40,41
 79 46 79 46 67 62 c 1,42,43
 52 79 52 79 52 94 c 128,-1,44
 52 109 52 109 63.5 131.5 c 128,-1,45
 75 154 75 154 88 154 c 128,-1,46
 101 154 101 154 113.5 133 c 128,-1,47
 126 112 126 112 134 112 c 128,-1,48
 142 112 142 112 144.5 127.5 c 128,-1,49
 147 143 147 143 150.5 171 c 0,50,51
 157.857142857 229.857142857 157.857142857 229.857142857 182.428571429 379.928571429 c 128,-1,52
 207 530 207 530 207 603 c 2,53,-1
 207 634 l 2,0,1
EndSplineSet
EndChar

StartChar: J
Encoding: 74 74 10
Width: 376
Flags: HMW
HStem: -6 127 -6 200<103 136.5 103 139.5> 612 99 695 20G<34 91.5>
VStem: 221 40<477.5 501.5 471.5 533.5> 249 55<240.5 242 194 314>
LayerCount: 2
Fore
SplineSet
344 710 m 1,0,-1
 461 711 l 2,1,2
 486 711 486 711 506 698.5 c 128,-1,3
 526 686 526 686 526 666.5 c 0,4,5
 526 625.886075949 526 625.886075949 447.5 608 c 0,6,7
 408 599 408 599 372 600 c 128,-1,8
 336 601 336 601 301 601 c 1,9,10
 261 542 261 542 261 479 c 0,11,12
 261 444.739130435 261 444.739130435 276.5 379.369565217 c 0,13,14
 304 263.391304348 304 263.391304348 304 218.695652174 c 128,-1,15
 304 174 304 174 300 150.5 c 128,-1,16
 296 127 296 127 291 107.5 c 128,-1,17
 286 88 286 88 276.5 65 c 0,18,19
 257.097457627 18.0254237288 257.097457627 18.0254237288 213.048728814 6.01271186441 c 128,-1,20
 169 -6 169 -6 125 -6 c 0,21,22
 43 -6 43 -6 -30 36 c 0,23,24
 -60 53 -60 53 -60 85 c 0,25,26
 -60 101.5 -60 101.5 -57 118 c 0,27,28
 -52 156 -52 156 -36 162 c 0,29,30
 43 194 43 194 123 194 c 128,-1,31
 203 194 203 194 203 181 c 0,32,33
 203 172.3125 203 172.3125 176 159.65625 c 128,-1,34
 149 147 149 147 140 142.5 c 0,35,36
 116.8 130.9 116.8 130.9 100 112 c 1,37,38
 107 113 107 113 119 115.5 c 0,39,40
 145.4 121 145.4 121 160 121 c 0,41,42
 249 127 249 127 249 272 c 0,43,44
 249 314 249 314 235 396 c 128,-1,45
 221 478 221 478 221 521.5 c 128,-1,46
 221 565 221 565 232 603 c 1,47,48
 159 605.92 159 605.92 83 612 c 0,49,50
 28 616 28 616 25 653 c 0,51,52
 23 681 23 681 23 694 c 0,53,54
 23 715 23 715 41 715 c 2,55,-1
 344 710 l 1,0,-1
EndSplineSet
EndChar

StartChar: K
Encoding: 75 75 11
Width: 532
Flags: HMW
HStem: -35 140<455.5 532.5> -20 21G<183.5 199.5> 639 57<238 240.5> 717 20G<514 527>
VStem: 0 210<455 610.5> 138 95 138 207
LayerCount: 2
Fore
SplineSet
210.5 623.5 m 0,0,1
 210 619 210 619 210 614 c 2,2,-1
 210 601 l 2,3,4
 210 547 210 547 163.5 492.5 c 128,-1,5
 117 438 117 438 61 402 c 0,6,7
 47 394 47 394 38 394 c 0,8,9
 21 394 21 394 10.5 419.5 c 128,-1,10
 0 445 0 445 0 462.5 c 128,-1,11
 0 480 0 480 13 498 c 0,12,13
 99 612 99 612 202 682 c 0,14,15
 222 696 222 696 247.5 696 c 128,-1,16
 273 696 273 696 303 680 c 0,17,18
 345 658 345 658 345 596 c 0,19,20
 345 565.785714286 345 565.785714286 331.5 522.392857143 c 128,-1,21
 318 479 318 479 306.5 444.5 c 128,-1,22
 295 410 295 410 293 403 c 1,23,24
 340.931860037 448.112338858 340.931860037 448.112338858 407 552.5 c 0,25,26
 432 592 432 592 441.5 607 c 0,27,28
 493.75 689.5 493.75 689.5 505 712 c 1,29,30
 505 737 505 737 520 737 c 0,31,32
 530.4375 737 530.4375 737 543.71875 724.5 c 128,-1,33
 557 712 557 712 564.5 706 c 128,-1,34
 572 700 572 700 572 693 c 128,-1,35
 572 686 572 686 566 676 c 1,36,37
 491 506 491 506 319 324 c 0,38,39
 317 322 317 322 317 319 c 0,40,41
 317 304 317 304 351 304 c 1,42,43
 400 291 400 291 428 229 c 0,44,45
 432 221 432 221 448.5 180.5 c 128,-1,46
 465 140 465 140 475 119 c 1,47,48
 485 95 485 95 500 95 c 0,49,50
 506 95 506 95 514 100 c 128,-1,51
 522 105 522 105 525 105 c 0,52,53
 540 105 540 105 540 67.5 c 128,-1,54
 540 30 540 30 535 16.5 c 128,-1,55
 530 3 530 3 504.5 -16 c 128,-1,56
 479 -35 479 -35 462.5 -35 c 128,-1,57
 446 -35 446 -35 417 -0.5 c 128,-1,58
 388 34 388 34 359 120 c 128,-1,59
 330 206 330 206 321 225 c 0,60,61
 310 251 310 251 294.5 251 c 128,-1,62
 279 251 279 251 268.5 233.5 c 128,-1,63
 258 216 258 216 242 217 c 1,64,65
 227 147 227 147 227 104.5 c 128,-1,66
 227 62 227 62 230 44 c 128,-1,67
 233 26 233 26 233 16 c 128,-1,68
 233 6 233 6 219 -7 c 128,-1,69
 205 -20 205 -20 191.5 -20 c 128,-1,70
 178 -20 178 -20 158 2 c 0,71,72
 144.888888889 15.1111111111 144.888888889 15.1111111111 143.944444444 24.5555555556 c 0,73,74
 142 44 142 44 140 75 c 128,-1,75
 138 106 138 106 138 129 c 0,76,77
 138 206 138 206 155.5 283 c 128,-1,78
 173 360 173 360 205 457 c 0,79,80
 252 599.46875 252 599.46875 252 619.234375 c 128,-1,81
 252 639 252 639 234 639 c 0,82,83
 212.222222222 639 212.222222222 639 210.5 623.5 c 0,0,1
EndSplineSet
EndChar

StartChar: L
Encoding: 76 76 12
Width: 396
Flags: HMW
HStem: -9 21G<259 309> -8 110 -8 158<-17 78> 692 20G<188.5 199>
LayerCount: 2
Fore
SplineSet
230 672 m 1,0,-1
 226 697 l 2,1,2
 226 701 226 701 229 701 c 128,-1,3
 232 701 232 701 247 691 c 128,-1,4
 262 681 262 681 282.5 668 c 128,-1,5
 303 655 303 655 309 628 c 128,-1,6
 315 601 315 601 315 548.5 c 128,-1,7
 315 496 315 496 284 457 c 0,8,9
 273 443 273 443 267 443 c 0,10,11
 255 443 255 443 252.5 466 c 128,-1,12
 250 489 250 489 240 489 c 0,13,14
 233 489 233 489 231.5 474.5 c 0,15,16
 229 450.333333333 229 450.333333333 229 385 c 1,17,18
 221 214 221 214 171 107 c 1,19,20
 199 102 199 102 223 102 c 0,21,22
 318 102 318 102 363 154 c 1,23,24
 372 166 372 166 378.5 166 c 128,-1,25
 385 166 385 166 385 148 c 0,26,27
 385 97 385 97 375 54 c 0,28,29
 360 -9 360 -9 292 -9 c 128,-1,30
 224 -9 224 -9 130 40 c 1,31,32
 95 -8 95 -8 64.5 -8 c 128,-1,33
 34 -8 34 -8 -13 39.5 c 128,-1,34
 -60 87 -60 87 -60 116 c 0,35,36
 -60 132 -60 132 -42.5 141 c 128,-1,37
 -25 150 -25 150 -5 150 c 128,-1,38
 15 150 15 150 83 128 c 1,39,40
 116 190 116 190 124 269 c 128,-1,41
 132 348 132 348 154 499.5 c 128,-1,42
 176 651 176 651 180 681.5 c 128,-1,43
 184 712 184 712 193 712 c 128,-1,44
 202 712 202 712 230 666 c 1,45,-1
 230 672 l 1,0,-1
51 83 m 1,46,-1
 33 91 l 1,47,48
 30 91 30 91 30 80.5 c 128,-1,49
 30 70 30 70 38 70 c 0,50,51
 42 70 42 70 51 83 c 1,46,-1
EndSplineSet
EndChar

StartChar: M
Encoding: 77 77 13
Width: 715
Flags: HMW
HStem: -20 21G 0 21G<167.5 187> 697 20G
VStem: 310 230<103.5 106 87 181> 462 78<87 106 87 113>
LayerCount: 2
Fore
SplineSet
710 322 m 0,0,1
 715 322 715 322 715 311 c 128,-1,2
 715 300 715 300 714 289 c 0,3,4
 698 99 698 99 619 11 c 0,5,6
 593 -18 593 -18 534 -20 c 1,7,8
 462 6 462 6 462 107 c 0,9,10
 462 125 462 125 466 152.5 c 128,-1,11
 470 180 470 180 533 540 c 1,12,13
 445.132283465 362.011548556 445.132283465 362.011548556 420 106.5 c 0,14,15
 417 76 417 76 415 61 c 0,16,17
 411 29 411 29 388 29 c 0,18,19
 357 29 357 29 322 76 c 0,20,21
 310 92 310 92 310 116 c 128,-1,22
 310 140 310 140 311.5 169 c 128,-1,23
 313 198 313 198 317 233 c 128,-1,24
 321 268 321 268 323 289 c 128,-1,25
 325 310 325 310 332.5 353 c 128,-1,26
 340 396 340 396 342 408.5 c 128,-1,27
 344 421 344 421 353.5 472 c 128,-1,28
 363 523 363 523 364 529 c 1,29,30
 349.125 514.125 349.125 514.125 337.5625 484.0625 c 128,-1,31
 326 454 326 454 319 435.5 c 128,-1,32
 312 417 312 417 305 391 c 128,-1,33
 298 365 298 365 293 346 c 128,-1,34
 288 327 288 327 281.5 300 c 128,-1,35
 275 273 275 273 271.5 259 c 0,36,37
 265 233 265 233 249 162 c 128,-1,38
 233 91 233 91 228.5 72.5 c 128,-1,39
 224 54 224 54 221.5 42.5 c 128,-1,40
 219 31 219 31 217.5 26.5 c 128,-1,41
 216 22 216 22 211.5 14 c 0,42,43
 203.625 0 203.625 0 186.3125 0 c 128,-1,44
 169 0 169 0 156.5 12.5 c 128,-1,45
 144 25 144 25 140 34.5 c 128,-1,46
 136 44 136 44 129.5 61.5 c 128,-1,47
 123 79 123 79 123 89 c 128,-1,48
 123 99 123 99 129 124 c 128,-1,49
 135 149 135 149 143.5 186 c 128,-1,50
 152 223 152 223 154.5 233.5 c 128,-1,51
 157 244 157 244 164.5 278 c 128,-1,52
 172 312 172 312 175 326 c 128,-1,53
 178 340 178 340 184 370.5 c 128,-1,54
 190 401 190 401 193 418.5 c 128,-1,55
 196 436 196 436 201 463.5 c 128,-1,56
 206 491 206 491 209 511.5 c 0,57,58
 218.75 578.125 218.75 578.125 221 604 c 1,59,-1
 221 611 l 2,60,61
 221 629 221 629 213 629 c 128,-1,62
 205 629 205 629 187 601 c 128,-1,63
 169 573 169 573 162 558 c 128,-1,64
 155 543 155 543 152 517 c 0,65,66
 137.967567568 377.951351351 137.967567568 377.951351351 80 291 c 0,67,68
 73 281 73 281 58 281 c 128,-1,69
 43 281 43 281 26.5 297 c 128,-1,70
 10 313 10 313 10 330 c 0,71,72
 10 432 10 432 79 566 c 0,73,74
 106 617 106 617 123 717 c 1,75,76
 150 677 150 677 156.5 664 c 128,-1,77
 163 651 163 651 171 651 c 0,78,79
 175 651 175 651 189 663 c 128,-1,80
 203 675 203 675 230.5 675 c 128,-1,81
 258 675 258 675 275 661 c 128,-1,82
 292 647 292 647 296.5 629 c 128,-1,83
 301 611 301 611 303 575 c 1,84,85
 309 580 309 580 324 593.5 c 0,86,87
 355.666666667 622 355.666666667 622 380.333333333 622 c 128,-1,88
 405 622 405 622 424.5 595.5 c 128,-1,89
 444 569 444 569 442 541 c 1,90,91
 454 555 454 555 486 610 c 1,92,93
 509 646 509 646 547 646 c 0,94,95
 610 646 610 646 610 589 c 0,96,97
 610 563.307692308 610 563.307692308 586 445.153846154 c 128,-1,98
 562 327 562 327 551 250.5 c 128,-1,99
 540 174 540 174 540 106 c 2,100,-1
 540 87 l 1,101,102
 573 115 573 115 604.5 157.5 c 128,-1,103
 636 200 636 200 651 225.5 c 128,-1,104
 666 251 666 251 698 308 c 0,105,106
 707 322 707 322 710 322 c 0,0,1
EndSplineSet
EndChar

StartChar: N
Encoding: 78 78 14
Width: 601
Flags: HMW
HStem: -48 21G<239.5 269.5> 603 82<245.5 253.5 232.5 259> 698 20G<496 534.5>
VStem: 186 124<-10.5 41.5>
LayerCount: 2
Fore
SplineSet
308 22 m 1,0,-1
 310 4 l 1,1,2
 310 -17 310 -17 293.5 -32.5 c 128,-1,3
 277 -48 277 -48 255 -48 c 128,-1,4
 233 -48 233 -48 209.5 -18.5 c 128,-1,5
 186 11 186 11 186 32 c 0,6,7
 186 57 186 57 199 83 c 1,8,9
 200 90 200 90 206 153 c 128,-1,10
 212 216 212 216 237.5 365.5 c 128,-1,11
 263 515 263 515 270 569 c 1,12,-1
 270 579 l 2,13,14
 270 603 270 603 252.5 603 c 128,-1,15
 235 603 235 603 217 585 c 1,16,17
 219 581 219 581 219 569 c 128,-1,18
 219 557 219 557 192 492.5 c 128,-1,19
 165 428 165 428 115 297 c 1,20,21
 100 261 100 261 75 261 c 128,-1,22
 50 261 50 261 30 291 c 128,-1,23
 10 321 10 321 10 342.5 c 128,-1,24
 10 364 10 364 17 383 c 0,25,26
 42 443 42 443 74 502.5 c 128,-1,27
 106 562 106 562 124.5 597 c 128,-1,28
 143 632 143 632 152.5 648 c 128,-1,29
 162 664 162 664 172 664 c 128,-1,30
 182 664 182 664 190 662 c 1,31,32
 209 685 209 685 241 685 c 128,-1,33
 273 685 273 685 305.5 665 c 128,-1,34
 338 645 338 645 338 565 c 0,35,36
 338 537 338 537 333 484.5 c 128,-1,37
 328 432 328 432 327 418 c 1,38,39
 408 649 408 649 471 707 c 0,40,41
 482 718 482 718 502 718 c 0,42,43
 547 718 547 718 558.5 700.5 c 128,-1,44
 570 683 570 683 570 636.5 c 128,-1,45
 570 590 570 590 561 536 c 128,-1,46
 552 482 552 482 533 399.5 c 128,-1,47
 514 317 514 317 508.5 290.5 c 128,-1,48
 503 264 503 264 503 239 c 128,-1,49
 503 214 503 214 506 214 c 0,50,51
 514 214 514 214 546.5 267.5 c 128,-1,52
 579 321 579 321 585 321 c 128,-1,53
 591 321 591 321 591 302 c 0,54,55
 591 235 591 235 575.5 160 c 128,-1,56
 560 85 560 85 531.5 46 c 128,-1,57
 503 7 503 7 480 7 c 0,58,59
 470 7 470 7 455 18.5 c 128,-1,60
 440 30 440 30 437 33 c 0,61,62
 404 69 404 69 404 138 c 0,63,64
 404 199.307692308 404 199.307692308 465.5 500.5 c 0,65,66
 485 596 485 596 492 633 c 1,67,68
 417 507 417 507 375.5 366.5 c 128,-1,69
 334 226 334 226 311 47 c 1,70,-1
 308 22 l 1,0,-1
EndSplineSet
EndChar

StartChar: O
Encoding: 79 79 15
Width: 427
Flags: HMW
HStem: -20 79<145.5 212.5> 643 66<286 302.5>
VStem: 30 70<245.5 311.5 245.5 322.5> 137 55<401.5 416.5 360 431.5> 321 81<540.5 541.5 504 603>
LayerCount: 2
Fore
SplineSet
427 398 m 0,0,1
 427 317 427 317 367 261 c 1,2,3
 328 115 328 115 272 29 c 0,4,5
 239 -20 239 -20 195 -20 c 0,6,7
 172 -20 172 -20 141 -2 c 0,8,9
 58 49 58 49 44 116 c 128,-1,10
 30 183 30 183 30 256 c 0,11,12
 30 446 30 446 126 646 c 0,13,14
 138 669 138 669 151 669 c 0,15,16
 153 669 153 669 198 651 c 1,17,18
 223 709 223 709 300 709 c 0,19,20
 340 709 340 709 359 694 c 0,21,22
 402 660.052631579 402 660.052631579 402 522 c 0,23,24
 402 476 402 476 395 415 c 1,25,-1
 419 463 l 1,26,27
 427 429 427 429 427 398 c 0,0,1
321 594 m 0,28,29
 321 611 321 611 313.5 627 c 128,-1,30
 306 643 306 643 293 643 c 128,-1,31
 280 643 280 643 270.5 632 c 128,-1,32
 261 621 261 621 249 601 c 0,33,34
 192 509 192 509 192 378 c 0,35,36
 192 345 192 345 210.5 309.5 c 128,-1,37
 229 274 229 274 259 274 c 0,38,39
 264 274 264 274 272 276 c 1,40,41
 321 423 321 423 321 594 c 0,28,29
254 228 m 1,42,43
 223 236 223 236 197 256.5 c 128,-1,44
 171 277 171 277 159 305 c 1,45,46
 137 363 137 363 137 408 c 128,-1,47
 137 453 137 453 143 483 c 1,48,49
 100 394 100 394 100 282.5 c 128,-1,50
 100 171 100 171 125 89 c 0,51,52
 134 59 134 59 153 59 c 0,53,54
 166 59 166 59 177 77 c 1,55,56
 220 137 220 137 254 228 c 1,42,43
EndSplineSet
EndChar

StartChar: P
Encoding: 80 80 16
Width: 416
Flags: HMW
HStem: -19 21G<79 95.5> 237 116<203 221.5 203 223.5> 634 79<222.5 269>
VStem: -6 164 77 81 77 104<224.5 419.5> 373 53<474.5 542.5 467 561.5>
LayerCount: 2
Fore
SplineSet
80 143 m 2,0,-1
 77 241 l 1,1,2
 77 431 77 431 125 591 c 1,3,4
 105 577 105 577 92 560 c 0,5,6
 59 517 59 517 26.5 517 c 128,-1,7
 -6 517 -6 517 -6 560 c 0,8,9
 -6 628 -6 628 40 653 c 1,10,11
 80 676 80 676 133.5 694.5 c 128,-1,12
 187 713 187 713 226 713 c 0,13,14
 314 713 314 713 370 644 c 128,-1,15
 426 575 426 575 426 486 c 0,16,17
 426 431 426 431 407 372 c 0,18,19
 377 282 377 282 292 253 c 0,20,21
 246 237 246 237 207 237 c 128,-1,22
 168 237 168 237 148 256 c 1,23,-1
 148 213 l 2,24,25
 148 135 148 135 157 57 c 1,26,-1
 158 42 l 1,27,28
 158 9 158 9 127 -7 c 0,29,30
 105 -19 105 -19 87 -19 c 128,-1,31
 69 -19 69 -19 49 14 c 0,32,33
 16 67 16 67 -7 165 c 0,34,35
 -10 178 -10 178 -10 186.5 c 128,-1,36
 -10 195 -10 195 -2.5 195 c 128,-1,37
 5 195 5 195 36.5 160 c 128,-1,38
 68 125 68 125 74 125 c 128,-1,39
 80 125 80 125 80 143 c 2,0,-1
373 520 m 0,40,41
 373 578 373 578 333 606 c 128,-1,42
 293 634 293 634 231 634 c 0,43,44
 194 634 194 634 171 619 c 1,45,46
 176 597 176 597 176 583.5 c 128,-1,47
 176 570 176 570 174 551 c 128,-1,48
 172 532 172 532 167 487 c 128,-1,49
 162 442 162 442 160 419 c 1,50,51
 187 451 187 451 244 451 c 0,52,53
 259 451 259 451 259 446.5 c 128,-1,54
 259 442 259 442 249 442 c 0,55,56
 181 442 181 442 181 401 c 0,57,58
 181 353 181 353 218 353 c 0,59,60
 225 353 225 353 237 355 c 0,61,62
 373 384 373 384 373 520 c 0,40,41
EndSplineSet
EndChar

StartChar: Q
Encoding: 81 81 17
Width: 418
Flags: HMW
HStem: -52 67<310 338.5 310 347.5> -52 111<307.5 391> 687 64<260.5 281.5 235 284>
VStem: 30 70<200 222.5 185 291> 30 108<200 420> 310 83<537.5 539.5 437 621.5>
LayerCount: 2
Fore
SplineSet
384 59 m 0,0,1
 398 59 398 59 398 24.5 c 128,-1,2
 398 -10 398 -10 378 -31 c 128,-1,3
 358 -52 358 -52 325 -52 c 0,4,5
 275 -52 275 -52 231 -6 c 1,6,7
 209 -33 209 -33 182 -33 c 128,-1,8
 155 -33 155 -33 124 -9 c 0,9,10
 122 -7 122 -7 112 -0.5 c 128,-1,11
 102 6 102 6 98 9 c 128,-1,12
 94 12 94 12 87 18 c 0,13,14
 73.9032258065 29.2258064516 73.9032258065 29.2258064516 68 43 c 0,15,16
 30 120 30 120 30 232 c 0,17,18
 30 389 30 389 102 589 c 0,19,20
 109 606 109 606 115 606 c 128,-1,21
 121 606 121 606 130 597 c 1,22,23
 133 603 133 603 145 627.5 c 128,-1,24
 157 652 157 652 163.5 663.5 c 128,-1,25
 170 675 170 675 183.5 695 c 128,-1,26
 197 715 197 715 209 725 c 0,27,28
 240.2 751 240.2 751 268.1 751 c 128,-1,29
 296 751 296 751 316 740 c 0,30,31
 365 712 365 712 377 667 c 1,32,33
 393 600 393 600 393 496.5 c 128,-1,34
 393 393 393 393 360.5 266 c 128,-1,35
 328 139 328 139 268 44 c 1,36,37
 299 15 299 15 319.5 15 c 128,-1,38
 340 15 340 15 357.5 37 c 128,-1,39
 375 59 375 59 384 59 c 0,0,1
310 609 m 0,40,41
 310 635 310 635 299.5 661 c 128,-1,42
 289 687 289 687 269 687 c 128,-1,43
 249 687 249 687 234 668 c 0,44,45
 138 553 138 553 138 366 c 0,46,47
 138 328 138 328 140 308 c 128,-1,48
 142 288 142 288 154 261 c 128,-1,49
 166 234 166 234 191 219 c 0,50,51
 196 216 196 216 196 213 c 0,52,53
 196 204 196 204 185.75 204 c 128,-1,54
 175.5 204 175.5 204 168 207 c 0,55,56
 130 223 130 223 105 281 c 1,57,58
 100 243 100 243 100 211 c 0,59,60
 100 75 100 75 155 37 c 1,61,62
 172 58 172 58 186 85 c 1,63,64
 180 113 180 113 180 125 c 128,-1,65
 180 137 180 137 182.5 137 c 128,-1,66
 185 137 185 137 201 116 c 1,67,68
 246 215 246 215 278 359 c 128,-1,69
 310 503 310 503 310 609 c 0,40,41
EndSplineSet
EndChar

StartChar: R
Encoding: 82 82 18
Width: 460
Flags: HMW
HStem: -14 94<338.5 365> -14 177 -7 21G<131.5 145.5> 554 119<30.5 37.5 27.5 51> 614 99<245.5 269>
VStem: 93 64 251 69<137 211.5> 380 80<562.5 585.5>
LayerCount: 2
Fore
SplineSet
8 677 m 1,0,-1
 32 673 l 1,1,2
 43 673 43 673 63 679 c 0,3,4
 171 713 171 713 231.5 713 c 128,-1,5
 292 713 292 713 341 694.5 c 128,-1,6
 390 676 390 676 425 636 c 128,-1,7
 460 596 460 596 460 550 c 128,-1,8
 460 504 460 504 441.5 467.5 c 128,-1,9
 423 431 423 431 389.5 402.5 c 0,10,11
 331.765957447 353.382978723 331.765957447 353.382978723 255 315 c 1,12,13
 321 280 321 280 321 192 c 1,14,-1
 320 149 l 1,15,16
 320 80 320 80 356 80 c 0,17,18
 393 80 393 80 432 111.5 c 0,19,20
 445 122 445 122 448 122 c 0,21,22
 456 122 456 122 456 110 c 0,23,24
 456 75 456 75 412 17 c 1,25,26
 386 -14 386 -14 353 -14 c 0,27,28
 308 -14 308 -14 278.5 35 c 128,-1,29
 249 84 249 84 249 132 c 1,30,-1
 251 185 l 1,31,32
 251 251.571428571 251 251.571428571 229.5 270 c 0,33,34
 219 279 219 279 201 288 c 1,35,-1
 169 273 l 1,36,37
 156 176 156 176 156 117 c 2,38,-1
 157 30 l 2,39,40
 157 -7 157 -7 136 -7 c 0,41,42
 128 -7 128 -7 112 2 c 0,43,44
 48 42 48 42 26 146 c 0,45,46
 25 151 25 151 25 154 c 0,47,48
 25 163 25 163 39.5 163 c 128,-1,49
 54 163 54 163 64.5 154.5 c 128,-1,50
 75 146 75 146 80 137.5 c 128,-1,51
 85 129 85 129 88 129 c 0,52,53
 97 129 97 129 97 146 c 1,54,-1
 93 193 l 1,55,56
 96 348 96 348 118 514 c 1,57,58
 125 558 125 558 128 570 c 128,-1,59
 131 582 131 582 131 587.5 c 128,-1,60
 131 593 131 593 130 596 c 1,61,62
 91 585 91 585 75.5 569.5 c 128,-1,63
 60 554 60 554 48.5 554 c 128,-1,64
 37 554 37 554 30.5 556 c 128,-1,65
 24 558 24 558 18.5 564.5 c 128,-1,66
 13 571 13 571 10.5 574.5 c 0,67,68
 -10 603.2 -10 603.2 -10 625 c 0,69,70
 -10 677 -10 677 8 677 c 1,0,-1
380 566 m 0,71,72
 380 591 380 591 335.5 602.5 c 128,-1,73
 291 614 291 614 257.5 614 c 128,-1,74
 224 614 224 614 199 610 c 1,75,76
 196 598 196 598 196 541.5 c 128,-1,77
 196 485 196 485 184 384 c 1,78,79
 304 429 304 429 374 546 c 1,80,81
 380 558 380 558 380 566 c 0,71,72
EndSplineSet
EndChar

StartChar: S
Encoding: 83 83 19
Width: 419
Flags: HMW
HStem: -21 228<33.5 219> 688 20G<357.5 369>
VStem: -25 124<97 127> 67 70<402 524> 293 100
LayerCount: 2
Fore
SplineSet
400 690 m 0,0,1
 444 638 444 638 444 628 c 128,-1,2
 444 618 444 618 434 606 c 0,3,4
 387 553 387 553 324 499 c 0,5,6
 310 487 310 487 303 487 c 0,7,8
 293 487 293 487 293 502.5 c 128,-1,9
 293 518 293 518 306.5 544 c 128,-1,10
 320 570 320 570 320 574 c 128,-1,11
 320 578 320 578 316.5 578 c 128,-1,12
 313 578 313 578 307 576 c 0,13,14
 192 535 192 535 147 447 c 0,15,16
 137 427 137 427 137 414 c 0,17,18
 137 388 137 388 177 365 c 0,19,20
 183 361 183 361 231 335.5 c 0,21,22
 327.589235127 284.186968839 327.589235127 284.186968839 353 252 c 0,23,24
 393 202 393 202 393 154 c 0,25,26
 393 135 393 135 382.5 114.5 c 128,-1,27
 372 94 372 94 356 84 c 0,28,29
 187 -21 187 -21 55 -21 c 0,30,31
 -15 -21 -15 -21 -15 43 c 0,32,33
 -15 64 -15 64 -1 83 c 1,34,35
 -25 100 -25 100 -25 119.5 c 128,-1,36
 -25 139 -25 139 2 159 c 0,37,38
 66 207 66 207 208 207 c 0,39,40
 223 207 223 207 244 196.5 c 128,-1,41
 265 186 265 186 278 174 c 1,42,43
 303 188 303 188 303 199 c 128,-1,44
 303 210 303 210 290 221 c 1,45,46
 271 235 271 235 219.5 258 c 128,-1,47
 168 281 168 281 154 289 c 0,48,49
 112 313 112 313 89.5 358 c 128,-1,50
 67 403 67 403 67 453.5 c 128,-1,51
 67 504 67 504 92.5 545.5 c 128,-1,52
 118 587 118 587 163.5 617.5 c 0,53,54
 234.416787265 665.037626628 234.416787265 665.037626628 339 704 c 1,55,56
 353 708 353 708 361 708 c 0,57,58
 384 708 384 708 400 690 c 0,0,1
210 136 m 1,59,60
 200 138 200 138 187 138 c 128,-1,61
 174 138 174 138 136.5 126 c 128,-1,62
 99 114 99 114 99 99 c 0,63,64
 99 93 99 93 106 93 c 0,65,66
 133 93 133 93 210 136 c 1,59,60
EndSplineSet
EndChar

StartChar: T
Encoding: 84 84 20
Width: 381
Flags: HMW
HStem: 3 21G<214 245.5> 571 104<168 189.5> 691 20G<533 540>
LayerCount: 2
Fore
SplineSet
176 132 m 2,0,-1
 173 211 l 1,1,2
 173 399 173 399 233 566 c 1,3,4
 190 571 190 571 181 571 c 0,5,6
 141 571 141 571 115.5 555.5 c 128,-1,7
 90 540 90 540 64.5 519 c 0,8,9
 25.6428571429 487 25.6428571429 487 -15 487 c 0,10,11
 -32 487 -32 487 -41 494.5 c 128,-1,12
 -50 502 -50 502 -52 510 c 128,-1,13
 -54 518 -54 518 -55 534 c 128,-1,14
 -56 550 -56 550 -58 559 c 128,-1,15
 -60 568 -60 568 -60 577 c 128,-1,16
 -60 586 -60 586 -45 599 c 0,17,18
 41 675 41 675 212 675 c 0,19,20
 245 675 245 675 278 672 c 1,21,-1
 286 690 l 1,22,23
 291 683 291 683 299 671 c 1,24,-1
 318 671 l 2,25,26
 412 671 412 671 524 709 c 0,27,28
 532 711 532 711 535 711 c 0,29,30
 551 711 551 711 551 694 c 128,-1,31
 551 677 551 677 533 659 c 1,32,33
 444 561 444 561 296 563 c 1,34,35
 270.508196721 466.131147541 270.508196721 466.131147541 261.754098361 326.06557377 c 128,-1,36
 253 186 253 186 251 167 c 128,-1,37
 249 148 249 148 249 134 c 128,-1,38
 249 120 249 120 258 79 c 128,-1,39
 267 38 267 38 267 32 c 0,40,41
 267 3 267 3 237 3 c 0,42,43
 191 3 191 3 141 105 c 1,44,45
 131 123 131 123 131 139.5 c 128,-1,46
 131 156 131 156 139 156 c 128,-1,47
 147 156 147 156 158.5 140 c 128,-1,48
 170 124 170 124 173 124 c 128,-1,49
 176 124 176 124 176 132 c 2,0,-1
EndSplineSet
EndChar

StartChar: U
Encoding: 85 85 21
Width: 563
Flags: HMW
HStem: 1 21G<188.5 230.5> 681 20G<464.5 482.5>
VStem: 533 30
LayerCount: 2
Fore
SplineSet
486 648 m 0,0,1
 430 477 430 477 430 294 c 128,-1,2
 430 111 430 111 458 111 c 0,3,4
 464 111 464 111 469 116 c 0,5,6
 527 176 527 176 533 252 c 1,7,8
 533 272 533 272 538 272 c 128,-1,9
 543 272 543 272 553 255.5 c 128,-1,10
 563 239 563 239 563 196 c 128,-1,11
 563 153 563 153 528.5 85 c 128,-1,12
 494 17 494 17 451 17 c 0,13,14
 427 17 427 17 407 36 c 128,-1,15
 387 55 387 55 380 85.5 c 128,-1,16
 373 116 373 116 367.5 156.5 c 128,-1,17
 362 197 362 197 357 247 c 128,-1,18
 352 297 352 297 348 324 c 1,19,20
 341 297 341 297 322 215 c 128,-1,21
 303 133 303 133 291.5 93 c 0,22,23
 265.05 1 265.05 1 207 1 c 0,24,25
 179 1 179 1 158 17.5 c 128,-1,26
 137 34 137 34 132 61 c 0,27,28
 120 117 120 117 120 195.5 c 128,-1,29
 120 274 120 274 138.5 358 c 128,-1,30
 157 442 157 442 176.5 503.5 c 128,-1,31
 196 565 196 565 196 576 c 128,-1,32
 196 587 196 587 191 587 c 128,-1,33
 186 587 186 587 175 575 c 128,-1,34
 164 563 164 563 149.5 540.5 c 128,-1,35
 135 518 135 518 127.5 502.5 c 128,-1,36
 120 487 120 487 106 455 c 128,-1,37
 92 423 92 423 86 411 c 0,38,39
 72 382 72 382 49.5 382 c 128,-1,40
 27 382 27 382 13.5 409 c 128,-1,41
 0 436 0 436 0 459 c 128,-1,42
 0 482 0 482 17 501 c 0,43,44
 81 573 81 573 150 694 c 1,45,-1
 164 683 l 1,46,47
 187 690 187 690 192.5 690 c 128,-1,48
 198 690 198 690 205 687.5 c 128,-1,49
 212 685 212 685 230 680 c 128,-1,50
 248 675 248 675 254.5 672.5 c 128,-1,51
 261 670 261 670 273 663.5 c 128,-1,52
 285 657 285 657 289 649.5 c 0,53,54
 301 627 301 627 301 600 c 128,-1,55
 301 573 301 573 295 548.5 c 128,-1,56
 289 524 289 524 249 380.5 c 128,-1,57
 209 237 209 237 200 159 c 1,58,-1
 200 150 l 2,59,60
 200 133 200 133 206 133 c 128,-1,61
 212 133 212 133 218 149 c 0,62,63
 292 329 292 329 377 589 c 0,64,65
 383 609 383 609 383 619 c 1,66,-1
 376 649 l 1,67,68
 376 660 376 660 387 666 c 1,69,70
 403 677 403 677 431.5 689 c 128,-1,71
 460 701 460 701 476 701 c 128,-1,72
 492 701 492 701 492 684.5 c 128,-1,73
 492 668 492 668 486 648 c 0,0,1
EndSplineSet
EndChar

StartChar: V
Encoding: 86 86 22
Width: 479
Flags: HMW
HStem: -10 21G<250.5 274.5> 726 20G<410 429.5>
VStem: 152 87<176.5 252.5 176.5 258> 401 68<509 563.5 447.5 597.5>
LayerCount: 2
Fore
SplineSet
239 188 m 0,0,1
 239 95 239 95 256 95 c 0,2,3
 263 95 263 95 274 111 c 1,4,5
 290 138 290 138 311 183 c 0,6,7
 401 374 401 374 401 578 c 0,8,9
 401 628 401 628 397 666.5 c 128,-1,10
 393 705 393 705 393 709 c 0,11,12
 393 746 393 746 421 746 c 0,13,14
 439 746 439 746 448 714 c 0,15,16
 469 634 469 634 469 534 c 0,17,18
 469 290 469 290 327 41 c 0,19,20
 297 -10 297 -10 259 -10 c 0,21,22
 237 -10 237 -10 215 10 c 0,23,24
 152 68 152 68 152 186 c 0,25,26
 152 374 152 374 238 590 c 0,27,28
 242 600 242 600 242 606 c 0,29,30
 242 621 242 621 230 621 c 0,31,32
 224 621 224 621 213 613.5 c 128,-1,33
 202 606 202 606 195.5 596.5 c 128,-1,34
 189 587 189 587 182 574 c 128,-1,35
 175 561 175 561 171 555 c 0,36,37
 113.810485115 477.014297884 113.810485115 477.014297884 81.2610124918 458.431699793 c 0,38,39
 66.0929459487 450.31453757 66.0929459487 450.31453757 50.5464729744 450.157268785 c 128,-1,40
 35 450 35 450 17.5 468 c 128,-1,41
 0 486 0 486 0 500 c 128,-1,42
 0 514 0 514 6 530 c 1,43,44
 43 611 43 611 175 692 c 0,45,46
 199 707 199 707 233 707 c 128,-1,47
 267 707 267 707 294 678.5 c 128,-1,48
 321 650 321 650 321 608 c 0,49,50
 321 584 321 584 316 567.5 c 128,-1,51
 311 551 311 551 302.5 522 c 128,-1,52
 294 493 294 493 291.5 484 c 128,-1,53
 289 475 289 475 281.5 448.5 c 128,-1,54
 274 422 274 422 271.5 411 c 128,-1,55
 269 400 269 400 263 376 c 128,-1,56
 257 352 257 352 254.5 338 c 128,-1,57
 252 324 252 324 248.5 302 c 128,-1,58
 245 280 245 280 243.5 263.5 c 0,59,60
 239 214 239 214 239 188 c 0,0,1
EndSplineSet
EndChar

StartChar: W
Encoding: 87 87 23
Width: 611
Flags: HMW
HStem: 10 81<392 411.5 392 423> 10 129 483 89<34 81.5> 483 210<34 233.5> 713 20G<447 466.5>
VStem: 502 84<364.5 446 335.5 462>
LayerCount: 2
Fore
SplineSet
505 702 m 0,0,1
 586 556 586 556 586 389 c 128,-1,2
 586 222 586 222 494 65 c 0,3,4
 462 10 462 10 404 10 c 0,5,6
 341.333333333 10 341.333333333 10 317 83 c 0,7,8
 305.857142857 116.428571429 305.857142857 116.428571429 299.428571429 155.714285714 c 128,-1,9
 293 195 293 195 291 205 c 1,10,11
 283 189 283 189 262.5 138.5 c 128,-1,12
 242 88 242 88 228 62 c 0,13,14
 207 20 207 20 168 20 c 0,15,16
 139 20 139 20 116.5 42.5 c 0,17,18
 97.0857142857 61.9142857143 97.0857142857 61.9142857143 92.5 120 c 0,19,20
 91 139 91 139 89.5 155 c 128,-1,21
 88 171 88 171 88 185 c 128,-1,22
 88 199 88 199 91 219 c 128,-1,23
 94 239 94 239 97.5 257 c 128,-1,24
 101 275 101 275 109 300 c 128,-1,25
 117 325 117 325 123 342.5 c 128,-1,26
 129 360 129 360 140.5 388 c 128,-1,27
 152 416 152 416 158 430.5 c 128,-1,28
 164 445 164 445 177.5 474 c 128,-1,29
 191 503 191 503 195.5 513.5 c 0,30,31
 209 545 209 545 229 585 c 1,32,33
 164 516 164 516 90 490 c 0,34,35
 69 483 69 483 47.5 483 c 128,-1,36
 26 483 26 483 13 500 c 128,-1,37
 0 517 0 517 0 548 c 128,-1,38
 0 579 0 579 38.5 615 c 128,-1,39
 77 651 77 651 125 672 c 128,-1,40
 173 693 173 693 211.5 693 c 128,-1,41
 250 693 250 693 283.5 668 c 128,-1,42
 317 643 317 643 317 602 c 0,43,44
 317 587 317 587 305.5 556 c 128,-1,45
 294 525 294 525 261 443.5 c 0,46,47
 188.829268293 265.260162602 188.829268293 265.260162602 165 162 c 0,48,49
 163 154 163 154 163 146.5 c 128,-1,50
 163 139 163 139 170 139 c 0,51,52
 199.666666667 139 199.666666667 139 290 410 c 1,53,54
 283 419 283 419 283 428 c 0,55,56
 283 441 283 441 307 441 c 0,57,58
 356 441 356 441 373 439 c 128,-1,59
 390 437 390 437 390 428 c 128,-1,60
 390 419 390 419 383 414 c 1,61,62
 372 297 372 297 372 257 c 128,-1,63
 372 217 372 217 380 154 c 128,-1,64
 388 91 388 91 405 91 c 0,65,66
 420 91 420 91 435 128 c 1,67,68
 502 275 502 275 502 416.5 c 128,-1,69
 502 558 502 558 428 678 c 0,70,71
 417 694 417 694 417 709 c 0,72,73
 417 733 417 733 452 733 c 128,-1,74
 487 733 487 733 505 702 c 0,0,1
165 645 m 1,75,76
 98 634 98 634 65 601 c 0,77,78
 54 590 54 590 54 581 c 128,-1,79
 54 572 54 572 66 572 c 0,80,81
 99 572 99 572 165 645 c 1,75,76
EndSplineSet
EndChar

StartChar: X
Encoding: 88 88 24
Width: 473
Flags: HMW
HStem: -10 21G<366.5 383> 629 89 702 20G
VStem: 202 88
LayerCount: 2
Fore
SplineSet
456 677 m 0,0,1
 473 662 473 662 473 640.5 c 128,-1,2
 473 619 473 619 455 567 c 128,-1,3
 437 515 437 515 421 515 c 0,4,5
 409 515 409 515 403 594 c 1,6,7
 344 507 344 507 290 393 c 1,8,9
 290 238 290 238 306.5 175 c 0,10,11
 321.10430839 119.238095238 321.10430839 119.238095238 351 80 c 1,12,13
 380 99 380 99 426 179 c 0,14,15
 437 197 437 197 443 197 c 0,16,17
 456 197 456 197 456 142.5 c 128,-1,18
 456 88 456 88 424 24 c 0,19,20
 407 -10 407 -10 371 -10 c 0,21,22
 362 -10 362 -10 337 -3.5 c 128,-1,23
 312 3 312 3 287.5 27 c 128,-1,24
 263 51 263 51 248.5 86 c 0,25,26
 225.246010638 142.130319149 225.246010638 142.130319149 215 220 c 1,27,28
 167 102 167 102 145 51.5 c 128,-1,29
 123 1 123 1 102 1 c 0,30,31
 91 1 91 1 73 11 c 0,32,33
 43 27 43 27 33 56.5 c 128,-1,34
 23 86 23 86 23 130 c 0,35,36
 23 145 23 145 33.5 145 c 128,-1,37
 44 145 44 145 59.5 129.5 c 2,38,-1
 75 114 l 1,39,40
 80 114 80 114 84 127 c 1,41,42
 181 339 181 339 202 380 c 1,43,44
 202 452.285714286 202 452.285714286 195.5 519.142857143 c 0,45,46
 184.819444444 629 184.819444444 629 166 629 c 0,47,48
 160 629 160 629 150 610.5 c 128,-1,49
 140 592 140 592 118.5 545 c 128,-1,50
 97 498 97 498 82.5 471.5 c 128,-1,51
 68 445 68 445 49.5 445 c 128,-1,52
 31 445 31 445 15.5 464 c 128,-1,53
 0 483 0 483 0 506 c 128,-1,54
 0 529 0 529 30.5 588.5 c 128,-1,55
 61 648 61 648 83 673 c 1,56,57
 86 691 86 691 90 722 c 1,58,59
 97 718 97 718 103 691 c 1,60,61
 126 708 126 708 151.5 708 c 128,-1,62
 177 708 177 708 202 698 c 0,63,64
 280 669 280 669 284 592 c 0,65,66
 286 556 286 556 286 537 c 1,67,68
 345 638 345 638 387 699 c 0,69,70
 401 718 401 718 410.5 718 c 128,-1,71
 420 718 420 718 428 710.5 c 128,-1,72
 436 703 436 703 444 691.5 c 128,-1,73
 452 680 452 680 456 677 c 0,0,1
EndSplineSet
EndChar

StartChar: Y
Encoding: 89 89 25
Width: 517
Flags: HMW
HStem: -144 21G<382.5 394> 555 198<24.5 244.5> 691 62<217.5 232>
VStem: 58 72<275 279.5 253.5 308.5> 322 155<649.5 707.5> 331 81<-30.5 99.5>
LayerCount: 2
Fore
SplineSet
522 727 m 0,0,1
 587 727 587 727 587 705 c 0,2,3
 587 696 587 696 578 680 c 0,4,5
 455 465 455 465 423 200 c 0,6,7
 412 114 412 114 412 80 c 0,8,9
 412 63 412 63 424 63 c 0,10,11
 428 63 428 63 431 73 c 128,-1,12
 434 83 434 83 437 83 c 0,13,14
 444 83 444 83 456.5 60.5 c 128,-1,15
 469 38 469 38 469 27 c 0,16,17
 469 -2 469 -2 422 -105 c 0,18,19
 405 -144 405 -144 385 -144 c 0,20,21
 381 -144 381 -144 373 -140 c 0,22,23
 331 -115 331 -115 331 -5.5 c 128,-1,24
 331 104 331 104 361 290 c 1,25,26
 353 280 353 280 333 251.5 c 128,-1,27
 313 223 313 223 299.5 206.5 c 128,-1,28
 286 190 286 190 265 169.5 c 0,29,30
 223.512195122 129 223.512195122 129 178.756097561 129 c 128,-1,31
 134 129 134 129 104 161 c 0,32,33
 95 171 95 171 76.5 209.5 c 128,-1,34
 58 248 58 248 58 292.5 c 128,-1,35
 58 337 58 337 78.5 386 c 128,-1,36
 99 435 99 435 120 472.5 c 128,-1,37
 141 510 141 510 156.5 533.5 c 0,38,39
 183.80952381 574.904761905 183.80952381 574.904761905 243 661 c 0,40,41
 249 671 249 671 249 677 c 0,42,43
 249 691 249 691 225.5 691 c 128,-1,44
 202 691 202 691 182 682 c 128,-1,45
 162 673 162 673 159 669 c 128,-1,46
 156 665 156 665 154 655 c 1,47,-1
 155 642 l 1,48,49
 155 619 155 619 137.5 601.5 c 128,-1,50
 120 584 120 584 100 569.5 c 128,-1,51
 80 555 80 555 55 555 c 128,-1,52
 30 555 30 555 20.5 559.5 c 128,-1,53
 11 564 11 564 6.5 574 c 0,54,55
 0 588.444444444 0 588.444444444 0 618.222222222 c 128,-1,56
 0 648 0 648 23 664 c 0,57,58
 26 666 26 666 51 682.5 c 128,-1,59
 76 699 76 699 83.5 704 c 128,-1,60
 91 709 91 709 113.5 721.5 c 128,-1,61
 136 734 136 734 149 738.5 c 0,62,63
 190.888888889 753 190.888888889 753 225.444444444 753 c 128,-1,64
 260 753 260 753 291 727.5 c 128,-1,65
 322 702 322 702 322 660 c 0,66,67
 322 633 322 633 304.5 593.5 c 128,-1,68
 287 554 287 554 235.5 477.5 c 128,-1,69
 184 401 184 401 169 376 c 1,70,71
 130 305 130 305 130 266 c 128,-1,72
 130 227 130 227 148 227 c 0,73,74
 165.214285714 227 165.214285714 227 197.107142857 255.5 c 128,-1,75
 229 284 229 284 246 303 c 128,-1,76
 263 322 263 322 286.5 355 c 128,-1,77
 310 388 310 388 320.5 405 c 128,-1,78
 331 422 331 422 354 460 c 128,-1,79
 377 498 377 498 389.5 519 c 0,80,81
 444.948717949 612.153846154 444.948717949 612.153846154 479 676 c 1,82,83
 477 686 477 686 477 693 c 0,84,85
 477 727 477 727 522 727 c 0,0,1
EndSplineSet
EndChar

StartChar: Z
Encoding: 90 90 26
Width: 436
Flags: HMW
HStem: 6 100<179.5 194.5 145 245.5> 592 80<311.5 318.5> 592 142<225.5 318.5>
VStem: 48 70<125.5 154.5 123 158> 383 83<533 584.5>
LayerCount: 2
Fore
SplineSet
292.5 671 m 2,0,-1
 321 672 l 1,1,2
 426 672 426 672 460 585 c 0,3,4
 466 568 466 568 466 551 c 0,5,6
 466 504 466 504 424 460.5 c 128,-1,7
 382 417 382 417 303.5 350 c 128,-1,8
 225 283 225 283 193 252 c 0,9,10
 118 180 118 180 118 134 c 0,11,12
 118 106 118 106 155 106 c 0,13,14
 229 106 229 106 391 133 c 1,15,-1
 400 134 l 1,16,17
 413 134 413 134 413 121 c 128,-1,18
 413 108 413 108 407 92 c 1,19,20
 381 6 381 6 212 6 c 0,21,22
 154 6 154 6 117 20 c 128,-1,23
 80 34 80 34 60 80 c 0,24,25
 48 106 48 106 48 135 c 0,26,27
 48 193 48 193 97.5 252 c 128,-1,28
 147 311 147 311 239 408.5 c 128,-1,29
 331 506 331 506 357 536.5 c 128,-1,30
 383 567 383 567 383 575 c 0,31,32
 383 592 383 592 312 592 c 0,33,34
 275 592 275 592 205 586 c 1,35,36
 148 552 148 552 58 552 c 0,37,38
 33 552 33 552 21.5 559.5 c 128,-1,39
 10 567 10 567 10 595 c 128,-1,40
 10 623 10 623 17.5 641 c 128,-1,41
 25 659 25 659 55.5 672.5 c 128,-1,42
 86 686 86 686 153.5 710 c 128,-1,43
 221 734 221 734 235 734 c 128,-1,44
 249 734 249 734 254.5 726.5 c 128,-1,45
 260 719 260 719 266.5 702 c 2,46,-1
 273 685 l 2,47,48
 279 671 279 671 292.5 671 c 2,0,-1
EndSplineSet
EndChar

StartChar: a
Encoding: 97 97 27
Width: 418
Flags: HMW
HStem: -16 21G<317.5 348.5> -15 94 -15 206 408 20G<216.5 228.5>
LayerCount: 2
Fore
SplineSet
237 132 m 1,0,1
 155.333333333 -15 155.333333333 -15 112 -15 c 0,2,3
 81 -15 81 -15 56 23 c 0,4,5
 49 33 49 33 41 54.5 c 128,-1,6
 33 76 33 76 21.5 94 c 128,-1,7
 10 112 10 112 10 142.5 c 128,-1,8
 10 173 10 173 22 197 c 0,9,10
 104 359 104 359 195 419 c 0,11,12
 207 428 207 428 223 428 c 128,-1,13
 239 428 239 428 263 410 c 1,14,15
 277 396 277 396 279.5 386 c 0,16,17
 285 364 285 364 285 359 c 1,18,19
 320 347 320 347 320 315 c 0,20,21
 320 293.428571429 320 293.428571429 308 215.714285714 c 128,-1,22
 296 138 296 138 294 100 c 1,23,24
 294 79 294 79 308 79 c 0,25,26
 324 79 324 79 365.5 135 c 128,-1,27
 407 191 407 191 413 191 c 0,28,29
 423 191 423 191 423 158 c 1,30,-1
 421 109 l 1,31,32
 421 81 421 81 396 32.5 c 128,-1,33
 371 -16 371 -16 332 -16 c 0,34,35
 307.9 -16 307.9 -16 293.5 0 c 0,36,37
 289 5 289 5 279 20 c 0,38,39
 248 65 248 65 237 132 c 1,0,1
246 363 m 1,40,41
 120 248 120 248 86 100 c 1,42,43
 187 187 187 187 246 363 c 1,40,41
EndSplineSet
Substitution2: "Single Substitution lookup 5 subtable" ordfeminine
Substitution2: "'aalt' Access All Alternates in Latin lookup 0 subtable" ordfeminine
EndChar

StartChar: b
Encoding: 98 98 28
Width: 332
Flags: HMW
HStem: -39 21G<167.5 193.5> -32 140<79.5 166.5> 729 20G<133.5 146.5>
VStem: 10 94<112.5 164.5> 49 81 240 74<262 264.5 192.5 280.5>
LayerCount: 2
Fore
SplineSet
126 113 m 1,0,-1
 155 108 l 1,1,2
 189 108 189 108 203 141 c 0,3,4
 212 161 212 161 226 209.5 c 128,-1,5
 240 258 240 258 240 273 c 0,6,7
 240 301 240 301 218 301 c 0,8,9
 215 301 215 301 211 300 c 0,10,11
 155 287 155 287 134 246 c 0,12,13
 104 190 104 190 104 124 c 0,14,15
 104 92 104 92 111.5 55 c 128,-1,16
 119 18 119 18 119 8 c 0,17,18
 119 -32 119 -32 96 -32 c 0,19,20
 70.8837209302 -32 70.8837209302 -32 36 68 c 0,21,22
 21 111 21 111 15.5 124 c 128,-1,23
 10 137 10 137 10 153 c 0,24,25
 10 184 10 184 49 256 c 1,26,27
 69 517 69 517 123 729 c 0,28,29
 129 749 129 749 138 749 c 0,30,31
 149 749 149 749 154.5 732 c 128,-1,32
 160 715 160 715 160 704.5 c 128,-1,33
 160 694 160 694 150.5 614.5 c 128,-1,34
 141 535 141 535 130 366 c 1,35,36
 183 414 183 414 223 414 c 0,37,38
 248 414 248 414 266.5 394.5 c 128,-1,39
 285 375 285 375 295 345.5 c 0,40,41
 314 289.45 314 289.45 314 238 c 0,42,43
 314 107 314 107 223 -15 c 0,44,45
 205 -39 205 -39 186 -39 c 0,46,47
 161 -39 161 -39 138 14 c 128,-1,48
 115 67 115 67 115 98 c 0,49,50
 115 113 115 113 126 113 c 1,0,-1
EndSplineSet
EndChar

StartChar: c
Encoding: 99 99 29
Width: 277
Flags: HMW
HStem: -22 89<86.5 113 80 169.5> 227 227<171 206>
VStem: 15 51<126 142.5 90.5 207> 15 226<126 392.5>
LayerCount: 2
Fore
SplineSet
269 162 m 0,0,1
 269 98 269 98 228 38 c 128,-1,2
 187 -22 187 -22 124 -22 c 0,3,4
 74 -22 74 -22 44.5 38.5 c 128,-1,5
 15 99 15 99 15 166.5 c 128,-1,6
 15 234 15 234 51.5 314 c 128,-1,7
 88 394 88 394 147 442 c 1,8,9
 160 454 160 454 180 454 c 128,-1,10
 200 454 200 454 227 431 c 0,11,12
 241 418 241 418 241 377 c 128,-1,13
 241 336 241 336 217 249 c 0,14,15
 211 227 211 227 201 227 c 0,16,17
 181.941176471 227 181.941176471 227 172.5 334 c 0,18,19
 171 351 171 351 170 355 c 1,20,21
 121 301 121 301 93.5 232.5 c 128,-1,22
 66 164 66 164 66 100 c 0,23,24
 66 67 66 67 88 67 c 0,25,26
 126.423076923 67 126.423076923 67 207.5 135 c 0,27,28
 223 148 223 148 230 154.5 c 128,-1,29
 237 161 237 161 251 173.5 c 128,-1,30
 265 186 265 186 267 188 c 1,31,32
 269 179 269 179 269 162 c 0,0,1
EndSplineSet
EndChar

StartChar: d
Encoding: 100 100 30
Width: 384
Flags: HMW
HStem: -27 113<79.5 170> 35 111<336.5 341 322.5 368.5> 711 20G<300.5 322.5>
VStem: 15 51<115.5 199.5>
LayerCount: 2
Fore
SplineSet
382 142 m 1,0,-1
 385 90 l 1,1,2
 385 35 385 35 356 35 c 0,3,4
 332.615384615 35 332.615384615 35 316 59 c 128,-1,5
 299.485436893 82.854368932 299.485436893 82.854368932 290.242718447 102.427184466 c 128,-1,6
 281 122 281 122 272 139.5 c 128,-1,7
 263 157 263 157 256 181 c 1,8,9
 255 178 255 178 250 160 c 2,10,-1
 242.5 133 l 2,11,12
 230.256410256 88.9230769231 230.256410256 88.9230769231 223.628205128 74.4615384615 c 128,-1,13
 217 60 217 60 209.5 42.5 c 128,-1,14
 202 25 202 25 194 14.5 c 128,-1,15
 186 4 186 4 177 -6.5 c 0,16,17
 159.428571429 -27 159.428571429 -27 133.714285714 -27 c 128,-1,18
 108 -27 108 -27 83.5 2 c 0,19,20
 43.3161033797 49.564612326 43.3161033797 49.564612326 24 122 c 0,21,22
 15 152 15 152 15 191.25 c 128,-1,23
 15 230.5 15 230.5 39 277.75 c 128,-1,24
 63 325 63 325 111 382 c 128,-1,25
 159 439 159 439 200 439 c 0,26,27
 222 439 222 439 250 418 c 1,28,29
 256 472 256 472 270 571 c 128,-1,30
 284 670 284 670 287 700.5 c 128,-1,31
 290 731 290 731 308.5 731 c 128,-1,32
 327 731 327 731 335.5 711.5 c 128,-1,33
 344 692 344 692 344 673 c 128,-1,34
 344 654 344 654 341 638 c 1,35,36
 313 352 313 352 313 173 c 0,37,38
 313 146 313 146 328 146 c 128,-1,39
 343 146 343 146 360.5 169.5 c 128,-1,40
 378 193 378 193 383.5 193 c 128,-1,41
 389 193 389 193 389 185 c 1,42,-1
 382 142 l 1,0,-1
224 333 m 0,43,44
 224 345 224 345 212.5 345 c 128,-1,45
 201 345 201 345 185 335 c 0,46,47
 133 306 133 306 99.5 245 c 128,-1,48
 66 184 66 184 66 123 c 0,49,50
 66 86 66 86 89 86 c 0,51,52
 98 86 98 86 109 97 c 0,53,54
 165 156 165 156 220 315 c 0,55,56
 224 325 224 325 224 333 c 0,43,44
EndSplineSet
EndChar

StartChar: e
Encoding: 101 101 31
Width: 337
Flags: HMW
HStem: -20 104<116.5 151.5 90 213.5> 170 83<149.5 161> 170 220<109.5 161> 412 20G<221 255>
VStem: 10 52<111.5 189>
LayerCount: 2
Fore
SplineSet
317 132 m 0,0,1
 317 -20 317 -20 163 -20 c 0,2,3
 99 -20 99 -20 69.5 13 c 128,-1,4
 40 46 40 46 18 114 c 0,5,6
 10 140 10 140 10 169.5 c 128,-1,7
 10 199 10 199 36.5 248.5 c 128,-1,8
 63 298 63 298 95 335 c 1,9,10
 99 390 99 390 120 390 c 0,11,12
 131 390 131 390 135 377 c 1,13,14
 156 396 156 396 186 414 c 128,-1,15
 216 432 216 432 240 432 c 128,-1,16
 264 432 264 432 289.5 404 c 128,-1,17
 315 376 315 376 315 346.5 c 128,-1,18
 315 317 315 317 273.5 265.5 c 0,19,20
 196.54368932 170 196.54368932 170 153 170 c 0,21,22
 121 170 121 170 103 223 c 1,23,24
 102 221 102 221 93.5 206.5 c 128,-1,25
 85 192 85 192 81.5 185 c 128,-1,26
 78 178 78 178 72.5 166 c 0,27,28
 62 143.090909091 62 143.090909091 62 125 c 0,29,30
 62 84 62 84 103 84 c 0,31,32
 171 84 171 84 218.5 112.5 c 128,-1,33
 266 141 266 141 313 199 c 1,34,35
 317 155 317 155 317 132 c 0,0,1
201.5 292 m 128,-1,37
 233 331 233 331 233 345.5 c 128,-1,38
 233 360 233 360 222.5 360 c 128,-1,39
 212 360 212 360 186.5 334 c 128,-1,40
 161 308 161 308 146 289 c 1,41,42
 144 277 144 277 144 271 c 0,43,44
 144 253 144 253 154 253 c 0,45,36
 170 253 170 253 201.5 292 c 128,-1,37
EndSplineSet
EndChar

StartChar: f
Encoding: 102 102 32
Width: 367
Flags: HMW
HStem: -385 87<97 145.5> 691 20G<250.5 270.5>
VStem: 10 43 267 77<29.5 73 -41.5 118.5>
LayerCount: 2
Fore
SplineSet
56 435 m 2,0,-1
 53 406 l 1,1,2
 53 390 53 390 62 390 c 0,3,4
 66 390 66 390 71 395 c 0,5,6
 106 430 106 430 146 521 c 128,-1,7
 186 612 186 612 227 688 c 1,8,9
 238 711 238 711 257 711 c 128,-1,10
 276 711 276 711 286.5 697 c 128,-1,11
 297 683 297 683 297 665.5 c 128,-1,12
 297 648 297 648 287 635 c 1,13,14
 226.107806691 542.791821561 226.107806691 542.791821561 161 333 c 1,15,16
 204 349 204 349 252 393 c 1,17,18
 271 409 271 409 293.5 409 c 128,-1,19
 316 409 316 409 346.5 390.5 c 128,-1,20
 377 372 377 372 377 349.5 c 128,-1,21
 377 327 377 327 337.5 299 c 128,-1,22
 298 271 298 271 262 254 c 1,23,24
 305 197 305 197 324.5 145 c 128,-1,25
 344 93 344 93 344 27 c 0,26,27
 344 -147 344 -147 208 -353 c 0,28,29
 194 -373 194 -373 176.5 -379 c 128,-1,30
 159 -385 159 -385 135.5 -385 c 128,-1,31
 112 -385 112 -385 103.5 -379 c 128,-1,32
 95 -373 95 -373 87.5 -361 c 128,-1,33
 80 -349 80 -349 65.5 -327 c 128,-1,34
 51 -305 51 -305 44 -292 c 0,35,36
 10 -225 10 -225 10 -128 c 0,37,38
 10 -46.5 10 -46.5 20.5 32.25 c 0,39,40
 33.5 129.75 33.5 129.75 50 237 c 1,41,42
 35 255 35 255 35 274.5 c 128,-1,43
 35 294 35 294 51 305 c 1,44,45
 27.1379310345 358.689655172 27.1379310345 358.689655172 23.5689655172 375.344827586 c 128,-1,46
 20 392 20 392 20 408 c 0,47,48
 20 462 20 462 39 462 c 0,49,50
 46 462 46 462 51 452.5 c 128,-1,51
 56 443 56 443 56 435 c 2,0,-1
228.5 -112 m 128,-1,53
 267 -4 267 -4 267 92.5 c 128,-1,54
 267 189 267 189 192 228 c 1,55,56
 160.5 220.5 160.5 220.5 129 216 c 1,57,58
 84 20 84 20 84 -224 c 0,59,60
 84 -298 84 -298 109 -298 c 0,61,62
 118 -298 118 -298 130 -284 c 0,63,52
 190 -220 190 -220 228.5 -112 c 128,-1,53
EndSplineSet
EndChar

StartChar: g
Encoding: 103 103 33
Width: 347
Flags: HMW
HStem: -295 179<207.5 248.5> -256 140<152 215> 446 20G<258 289>
VStem: 224 41
LayerCount: 2
Fore
SplineSet
134 -154 m 1,0,-1
 136 -143 l 1,1,2
 136 -134.8 136 -134.8 142 -132.4 c 128,-1,3
 148 -130 148 -130 152 -127.5 c 128,-1,4
 156 -125 156 -125 162.5 -120 c 0,5,6
 175.5 -110 175.5 -110 185.25 -110 c 128,-1,7
 195 -110 195 -110 201.5 -113 c 128,-1,8
 208 -116 208 -116 210 -116 c 0,9,10
 221 -116 221 -116 221 -75 c 1,11,12
 226 22 226 22 240 154 c 1,13,14
 211 108 211 108 164 56.5 c 128,-1,15
 117 5 117 5 89 5 c 128,-1,16
 61 5 61 5 43 30.5 c 0,17,18
 10 77.25 10 77.25 10 138 c 0,19,20
 10 228.424242424 10 228.424242424 105 333.5 c 0,21,22
 138 370 138 370 154.5 385.5 c 128,-1,23
 171 401 171 401 206 433.5 c 128,-1,24
 241 466 241 466 269 466 c 128,-1,25
 297 466 297 466 312 446 c 128,-1,26
 327 426 327 426 327 400.5 c 128,-1,27
 327 375 327 375 315 331 c 1,28,29
 323 326 323 326 323 316.5 c 128,-1,30
 323 307 323 307 321 297 c 0,31,32
 275.902592485 14.7236344451 275.902592485 14.7236344451 270.451296243 -73.3594531964 c 128,-1,33
 265 -161.442540838 265 -161.442540838 265 -212 c 2,34,-1
 266 -265 l 2,35,36
 266 -278 266 -278 259 -286.5 c 128,-1,37
 252 -295 252 -295 241 -295 c 128,-1,38
 230 -295 230 -295 204.5 -275.5 c 128,-1,39
 179 -256 179 -256 156 -256 c 1,40,-1
 133 -258 l 1,41,42
 121 -258 121 -258 121 -247 c 1,43,-1
 134 -154 l 1,0,-1
253 321 m 0,44,45
 258 333 258 333 258 344 c 128,-1,46
 258 355 258 355 250 355 c 0,47,48
 247 355 247 355 243 353 c 0,49,50
 184 324 184 324 139 276 c 128,-1,51
 94 228 94 228 72 169 c 0,52,53
 68 157 68 157 68 148 c 0,54,55
 68 128 68 128 83 128 c 0,56,57
 91 128 91 128 101 134 c 0,58,59
 147 165 147 165 188 216 c 128,-1,60
 229 267 229 267 253 321 c 0,44,45
EndSplineSet
EndChar

StartChar: h
Encoding: 104 104 34
Width: 347
Flags: HMW
HStem: -9 129<264 275 262 279> 708 20G<140 157>
VStem: 185 109 185 155<134 143.5 118.5 170.5>
LayerCount: 2
Fore
SplineSet
340 140 m 0,0,1
 340 61 340 61 311 19 c 1,2,3
 289 -9 289 -9 273 -9 c 128,-1,4
 257 -9 257 -9 241 7 c 1,5,6
 185 72 185 72 185 163 c 0,7,8
 185 193.222222222 185 193.222222222 192 225.111111111 c 0,9,10
 204 279.777777778 204 279.777777778 204 295.888888889 c 128,-1,11
 204 312 204 312 201.5 312 c 0,12,13
 195.928176796 312 195.928176796 312 123 37 c 1,14,15
 114 9 114 9 104 9 c 0,16,17
 77 9 77 9 40 102 c 1,18,19
 20 146 20 146 20 208 c 0,20,21
 20 278.375 20 278.375 28.5 326.1875 c 128,-1,22
 37 374 37 374 39 385.5 c 128,-1,23
 41 397 41 397 46.5 422.5 c 128,-1,24
 52 448 52 448 54 456 c 0,25,26
 66.5 506 66.5 506 70 527 c 1,27,28
 45 527 45 527 45 542 c 0,29,30
 45 549 45 549 51 557 c 0,31,32
 106 644 106 644 129 711 c 1,33,34
 133 728 133 728 145 728 c 0,35,36
 161 728 161 728 169 697 c 128,-1,37
 177 666 177 666 177 643 c 0,38,39
 177 585 177 585 139 550 c 1,40,41
 94 271.25 94 271.25 94 257.125 c 128,-1,42
 94 243 94 243 98 243 c 128,-1,43
 102 243 102 243 112.5 261.5 c 128,-1,44
 123 280 123 280 146 332.5 c 128,-1,45
 169 385 169 385 184 410 c 0,46,47
 206 447 206 447 240 447 c 0,48,49
 294 447 294 447 294 346 c 0,50,51
 294 264 294 264 256 139 c 0,52,53
 255 135 255 135 255 131 c 0,54,55
 255 120 255 120 265.5 120 c 128,-1,56
 276 120 276 120 302.5 149 c 128,-1,57
 329 178 329 178 334.5 178 c 128,-1,58
 340 178 340 178 340 140 c 0,0,1
EndSplineSet
EndChar

StartChar: i
Encoding: 105 105 35
Width: 240
Flags: HMW
HStem: -12 21G<102 129.5> 506 221<101 160.5>
VStem: 14 125<375.5 391.5> 32 208<157 190.5 147 195> 46 93<306 397> 87 118<537 700.5>
LayerCount: 2
Fore
SplineSet
205 688 m 0,0,1
 205 655 205 655 177 596.5 c 128,-1,2
 149 538 149 538 124 512 c 0,3,4
 119.5 506 119.5 506 112 506 c 0,5,6
 87 506 87 506 87 546 c 128,-1,7
 87 586 87 586 122 658 c 0,8,9
 129 673 129 673 131 689 c 128,-1,10
 133 705 133 705 133.5 707.5 c 128,-1,11
 134 710 134 710 134.5 711.5 c 128,-1,12
 135 713 135 713 135.5 715.5 c 128,-1,13
 136 718 136 718 136.5 719.5 c 128,-1,14
 137 721 137 721 138 722.5 c 128,-1,15
 139 724 139 724 140.5 725 c 0,16,17
 143.5 727 143.5 727 156.25 727 c 128,-1,18
 169 727 169 727 187 716 c 128,-1,19
 205 705 205 705 205 688 c 0,0,1
215 244 m 0,20,21
 226 261 226 261 230.5 261 c 128,-1,22
 235 261 235 261 237.5 236 c 128,-1,23
 240 211 240 211 240 169.5 c 128,-1,24
 240 128 240 128 220.5 80.5 c 128,-1,25
 201 33 201 33 164 4 c 0,26,27
 143 -12 143 -12 125.5 -12 c 128,-1,28
 108 -12 108 -12 96.5 -4.5 c 128,-1,29
 85 3 85 3 75.5 19.5 c 0,30,31
 61.1769230769 44.3769230769 61.1769230769 44.3769230769 46.5884615385 82.1884615385 c 128,-1,32
 32 120 32 120 32 164 c 128,-1,33
 32 208 32 208 39 253 c 128,-1,34
 46 298 46 298 46 313.5 c 128,-1,35
 46 329 46 329 30 353.5 c 128,-1,36
 14 378 14 378 14 383 c 128,-1,37
 14 388 14 388 17.5 393.5 c 128,-1,38
 21 399 21 399 26.5 404.5 c 128,-1,39
 32 410 32 410 37.5 414 c 128,-1,40
 43 418 43 418 49.5 423.5 c 0,41,42
 72.5454545455 443 72.5454545455 443 91.7727272727 443 c 128,-1,43
 111 443 111 443 125.5 430 c 128,-1,44
 140 417 140 417 139.5 385 c 128,-1,45
 139 353 139 353 124 263.5 c 0,46,47
 105 150.133333333 105 150.133333333 105 133.066666667 c 128,-1,48
 105 116 105 116 114 116 c 0,49,50
 134 116 134 116 215 244 c 0,20,21
EndSplineSet
EndChar

StartChar: j
Encoding: 106 106 36
Width: 184
Flags: HMW
HStem: -433 163<-103.5 -56.5> 535 169<140 160.5 140 162.5>
VStem: -240 77<-236 -162.5> 117 81<614 659>
LayerCount: 2
Fore
SplineSet
182.5 685.5 m 128,-1,1
 198 667 198 667 198 644 c 128,-1,2
 198 621 198 621 182.5 578 c 128,-1,3
 167 535 167 535 149 535 c 0,4,5
 135 535 135 535 126 568.5 c 128,-1,6
 117 602 117 602 117 624 c 128,-1,7
 117 646 117 646 125 688 c 0,8,9
 128 704 128 704 147.5 704 c 128,-1,0
 167 704 167 704 182.5 685.5 c 128,-1,1
153 76 m 0,10,11
 163 76 163 76 163 65 c 128,-1,12
 163 54 163 54 159 38.5 c 128,-1,13
 155 23 155 23 149 4 c 128,-1,14
 143 -15 143 -15 141 -22 c 0,15,16
 132 -59 132 -59 92 -74 c 1,17,18
 53 -260 53 -260 -4 -382 c 0,19,20
 -27 -433 -27 -433 -73 -433 c 0,21,22
 -106 -433 -106 -433 -132 -404 c 1,23,24
 -189 -344 -189 -344 -232 -209 c 0,25,26
 -240 -183 -240 -183 -240 -165.5 c 128,-1,27
 -240 -148 -240 -148 -228 -135 c 0,28,29
 -142 -41 -142 -41 40 35 c 1,30,31
 83.3594771242 214.032679739 83.3594771242 214.032679739 100 447 c 0,32,33
 102 468 102 468 114 468 c 0,34,35
 132 468 132 468 144.5 448.5 c 128,-1,36
 157 429 157 429 157 411.5 c 128,-1,37
 157 394 157 394 156 386 c 0,38,39
 139 199 139 199 117 65 c 1,40,41
 150 76 150 76 153 76 c 0,10,11
3 -102 m 1,42,43
 -41.0272108844 -118.510204082 -41.0272108844 -118.510204082 -102.013605442 -161.755102041 c 128,-1,44
 -163 -205 -163 -205 -163 -226 c 0,45,46
 -163 -240 -163 -240 -136.5 -255 c 128,-1,47
 -110 -270 -110 -270 -93 -270 c 128,-1,48
 -76 -270 -76 -270 -62 -248 c 0,49,50
 -26 -194 -26 -194 3 -102 c 1,42,43
EndSplineSet
EndChar

StartChar: k
Encoding: 107 107 37
Width: 342
Flags: HMW
HStem: -7 21G<250.5 271> -1 21G<63 81> 772 20G<97.5 106>
VStem: 19 89<20.5 123>
LayerCount: 2
Fore
SplineSet
301.5 88 m 1,0,1
 322.090909091 88 322.090909091 88 320.5 53 c 0,2,3
 320 42 320 42 322 36 c 128,-1,4
 324 30 324 30 324 25 c 0,5,6
 324 9 324 9 302.5 1 c 128,-1,7
 281 -7 281 -7 255 -7 c 128,-1,8
 229 -7 229 -7 200.5 23.5 c 128,-1,9
 172 54 172 54 99 162 c 1,10,-1
 99 137 l 2,11,12
 99 88 99 88 103.5 63 c 128,-1,13
 108 38 108 38 108 32 c 0,14,15
 108 -1 108 -1 70 -1 c 0,16,17
 50 -1 50 -1 42.5 14.5 c 128,-1,18
 35 30 35 30 27 63 c 128,-1,19
 19 96 19 96 19 110 c 128,-1,20
 19 124 19 124 23.5 150.5 c 128,-1,21
 28 177 28 177 29.5 192.5 c 128,-1,22
 31 208 31 208 33.5 245 c 0,23,24
 48.3863636364 465.318181818 48.3863636364 465.318181818 96 751 c 1,25,26
 92 767 92 767 92 779.5 c 128,-1,27
 92 792 92 792 102 792 c 128,-1,28
 112 792 112 792 124 778 c 1,29,30
 141 761 141 761 151 728 c 128,-1,31
 161 695 161 695 161 675 c 128,-1,32
 161 655 161 655 156.5 626.5 c 128,-1,33
 152 598 152 598 142 542 c 0,34,35
 120.076923077 419.230769231 120.076923077 419.230769231 112 353 c 1,36,37
 114 355 114 355 126 366.5 c 128,-1,38
 138 378 138 378 141 381 c 128,-1,39
 144 384 144 384 155 393.5 c 128,-1,40
 166 403 166 403 171.5 406 c 128,-1,41
 177 409 177 409 187.5 415.5 c 128,-1,42
 198 422 198 422 205.5 424.5 c 0,43,44
 225 431 225 431 244 431 c 0,45,46
 288 431 288 431 310 399 c 128,-1,47
 332 367 332 367 332 320 c 0,48,49
 332 288.230769231 332 288.230769231 323 271.615384615 c 128,-1,50
 314 255 314 255 309 246.5 c 128,-1,51
 304 238 304 238 292 228 c 2,52,-1
 274 213 l 2,53,54
 260.519480519 201.766233766 260.519480519 201.766233766 223.75974026 183.883116883 c 128,-1,55
 187 166 187 166 181.5 162.5 c 128,-1,56
 176 159 176 159 176 155.5 c 128,-1,57
 176 152 176 152 181 147 c 0,58,59
 231 97 231 97 291 89 c 1,60,-1
 301.5 88 l 1,0,1
256 347 m 1,61,62
 198 321 198 321 147 263 c 1,63,64
 206 281 206 281 256 347 c 1,61,62
EndSplineSet
EndChar

StartChar: l
Encoding: 108 108 38
Width: 241
Flags: HMW
HStem: -8 21G<117 140> 727 20G<96 102.5>
VStem: 28 84<187 227.5 134.5 259.5> 92 81<686.5 696.5 671 710>
LayerCount: 2
Fore
SplineSet
92 705 m 1,0,-1
 87 735 l 1,1,2
 87 747 87 747 100 747 c 0,3,4
 105 747 105 747 113 745 c 0,5,6
 173 733 173 733 173 676 c 0,7,8
 173 662 173 662 170 645.5 c 128,-1,9
 167 629 167 629 158.5 577 c 128,-1,10
 150 525 150 525 146.5 502 c 2,11,-1
 136 433 l 2,12,13
 112 275.285714286 112 275.285714286 112 142 c 0,14,15
 112 113 112 113 126 113 c 0,16,17
 131 113 131 113 137 119 c 0,18,19
 207 207 207 207 218.5 226.5 c 128,-1,20
 230 246 230 246 235.5 246 c 128,-1,21
 241 246 241 246 241 232.5 c 128,-1,22
 241 219 241 219 235.5 181.5 c 128,-1,23
 230 144 230 144 229 133.5 c 128,-1,24
 228 123 228 123 224.5 110 c 128,-1,25
 221 97 221 97 218.5 89.5 c 128,-1,26
 216 82 216 82 208 68.5 c 128,-1,27
 200 55 200 55 197 51 c 0,28,29
 176 23 176 23 163.5 7.5 c 128,-1,30
 151 -8 151 -8 134.5 -8 c 128,-1,31
 118 -8 118 -8 103 7 c 128,-1,32
 88 22 88 22 81.5 34 c 128,-1,33
 75 46 75 46 63 71 c 0,34,35
 28 139 28 139 28 214 c 0,36,37
 28 277.789473684 28 277.789473684 42.5 370.894736842 c 128,-1,38
 57 464 57 464 60 487 c 1,39,40
 37 487 37 487 37 507 c 0,41,42
 37 515 37 515 39.5 522.5 c 128,-1,43
 42 530 42 530 58.5 578 c 0,44,45
 92 675.454545455 92 675.454545455 92 705 c 1,0,-1
EndSplineSet
EndChar

StartChar: m
Encoding: 109 109 39
Width: 516
Flags: HMW
HStem: -6 21G<422 432> 420 20G<323.5 336>
VStem: 22 98 339 76 339 177<149.5 160.5>
LayerCount: 2
Fore
SplineSet
339 131 m 1,0,-1
 347 338 l 2,1,2
 347 350 347 350 345 350 c 0,3,4
 341 350 341 350 336 334 c 1,5,6
 318 288 318 288 252 47 c 0,7,8
 242 12 242 12 231 12 c 0,9,10
 226 12 226 12 213 20 c 1,11,12
 162 57 162 57 162 111 c 0,13,14
 162 153.705882353 162 153.705882353 175.5 228.352941176 c 0,15,16
 192 319.588235294 192 319.588235294 192 327.294117647 c 128,-1,17
 192 335 192 335 189.5 335 c 128,-1,18
 187 335 187 335 182 325 c 0,19,20
 131 203 131 203 120 34 c 0,21,22
 118 4 118 4 100 4 c 0,23,24
 76 4 76 4 57 31.5 c 0,25,26
 22 82.1578947368 22 82.1578947368 22 144 c 0,27,28
 22 182.666666667 22 182.666666667 31.5 242.833333333 c 128,-1,29
 41 303 41 303 43 316 c 0,30,31
 60 421 60 421 74 421 c 0,32,33
 85 421 85 421 91 392.5 c 128,-1,34
 97 364 97 364 97 351 c 128,-1,35
 97 338 97 338 101 338 c 0,36,37
 112 338 112 338 123 361.5 c 128,-1,38
 134 385 134 385 150 408.5 c 128,-1,39
 166 432 166 432 189.5 432 c 128,-1,40
 213 432 213 432 233 414.5 c 128,-1,41
 253 397 253 397 258 372 c 1,42,43
 270 389 270 389 298 419 c 1,44,45
 313 440 313 440 328.5 440 c 128,-1,46
 344 440 344 440 374 425 c 0,47,48
 415 404 415 404 415 315 c 128,-1,49
 415 226 415 226 409 162 c 1,50,-1
 409 155 l 2,51,52
 409 140 409 140 415 140 c 0,53,54
 424 140 424 140 459 190.5 c 128,-1,55
 494 241 494 241 502 241 c 0,56,57
 516 241 516 241 516 169.5 c 128,-1,58
 516 98 516 98 465 27 c 0,59,60
 441 -6 441 -6 424 -6 c 1,61,-1
 413 -3 l 1,62,63
 373 18 373 18 356 45 c 128,-1,64
 339 72 339 72 339 131 c 1,0,-1
EndSplineSet
EndChar

StartChar: n
Encoding: 110 110 40
Width: 351
Flags: HMW
HStem: -20 21G<244 271.5> -7 21G<94 103.5> 426 20G<55 72> 427 20G<157.5 199>
VStem: 38 236
LayerCount: 2
Fore
SplineSet
351 222 m 0,0,1
 351 173 351 173 346 137 c 128,-1,2
 341 101 341 101 310 40.5 c 128,-1,3
 279 -20 279 -20 249 -20 c 0,4,5
 236 -20 236 -20 224 -6 c 0,6,7
 165 64.8 165 64.8 165 129 c 0,8,9
 165 148 165 148 177.5 216.5 c 0,10,11
 196 317.88 196 317.88 196 329.44 c 128,-1,12
 196 341 196 341 192.5 341 c 128,-1,13
 189 341 189 341 185 333 c 0,14,15
 159 287 159 287 143 228.5 c 128,-1,16
 127 170 127 170 122 130 c 128,-1,17
 117 90 117 90 111 18 c 1,18,19
 111 -7 111 -7 98 -7 c 0,20,21
 92 -7 92 -7 78 4 c 0,22,23
 24 50 24 50 24 130 c 0,24,25
 24 164 24 164 30.5 224 c 128,-1,26
 37 284 37 284 38 307 c 0,27,28
 49 446 49 446 65 446 c 0,29,30
 74 446 74 446 78 426.5 c 128,-1,31
 82 407 82 407 82 382.5 c 128,-1,32
 82 358 82 358 83.5 338 c 128,-1,33
 85 318 85 318 91 318 c 128,-1,34
 97 318 97 318 108 350 c 128,-1,35
 119 382 119 382 140.5 414.5 c 128,-1,36
 162 447 162 447 187 447 c 128,-1,37
 212 447 212 447 231 436 c 1,38,39
 274 414 274 414 274 344 c 0,40,41
 274 320 274 320 268 285 c 128,-1,42
 262 250 262 250 257.5 208.5 c 128,-1,43
 253 167 253 167 253 161.5 c 128,-1,44
 253 156 253 156 257 156 c 0,45,46
 265 156 265 156 297.5 196 c 128,-1,47
 330 236 330 236 342 236 c 0,48,49
 351 236 351 236 351 222 c 0,0,1
EndSplineSet
EndChar

StartChar: o
Encoding: 111 111 41
Width: 275
Flags: HMW
HStem: -11 21G<117 137.5> 393 64<146 154.5 116 163>
VStem: 18 73<158 184 140.5 226> 174 83<197.5 310>
LayerCount: 2
Fore
SplineSet
257 236 m 0,0,1
 257 115 257 115 187 21 c 0,2,3
 162 -11 162 -11 131.5 -11 c 0,4,5
 101 -11 101 -11 83 4 c 0,6,7
 18 58 18 58 18 189 c 0,8,9
 18 280 18 280 67 421 c 0,10,11
 71 431 71 431 74 433.5 c 128,-1,12
 77 436 77 436 84.5 436 c 0,13,14
 92 436 92 436 103 446.5 c 128,-1,15
 114 457 114 457 139.5 457 c 0,16,17
 165 457 165 457 191 438 c 128,-1,18
 217 419 217 419 229 387 c 0,19,20
 257 312 257 312 257 236 c 0,0,1
174 301 m 0,21,22
 174 393 174 393 151 393 c 0,23,24
 140 393 140 393 131 376 c 1,25,26
 91 281 91 281 91 149 c 0,27,28
 91 116 91 116 92 99 c 1,29,30
 174 162 174 162 174 301 c 0,21,22
EndSplineSet
Substitution2: "Single Substitution lookup 5 subtable" ordmasculine
Substitution2: "'aalt' Access All Alternates in Latin lookup 0 subtable" ordmasculine
EndChar

StartChar: p
Encoding: 112 112 42
Width: 331
Flags: HMW
HStem: -211 21G<33 58> 2 149<153 175.5 153 181.5> 438 20G<75.5 91.5>
VStem: 18 55<-72.5 -17.5 -78 -10> 241 75<244 314>
LayerCount: 2
Fore
SplineSet
45 243 m 1,0,-1
 46 260 l 1,1,2
 46 286 46 286 30.5 303.5 c 128,-1,3
 15 321 15 321 15 326 c 128,-1,4
 15 331 15 331 21.5 334 c 128,-1,5
 28 337 28 337 36 338.5 c 128,-1,6
 44 340 44 340 52 350.5 c 128,-1,7
 60 361 60 361 65 395 c 128,-1,8
 70 429 70 429 70 443.5 c 128,-1,9
 70 458 70 458 79 458 c 128,-1,10
 88 458 88 458 95 452 c 128,-1,11
 102 446 102 446 105.5 440.5 c 128,-1,12
 109 435 109 435 114 424 c 128,-1,13
 119 413 119 413 121 410 c 1,14,15
 154 421 154 421 176 421 c 0,16,17
 233 421 233 421 274.5 365.5 c 128,-1,18
 316 310 316 310 316 252 c 0,19,20
 316 231 316 231 311 204 c 1,21,22
 280 70 280 70 215 20 c 0,23,24
 193 2 193 2 175 2 c 128,-1,25
 157 2 157 2 145 16.5 c 128,-1,26
 133 31 133 31 128 54 c 0,27,28
 119 95.4 119 95.4 119 149.2 c 128,-1,29
 119 203 119 203 131 203 c 0,30,31
 133 203 133 203 141.5 177 c 128,-1,32
 150 151 150 151 168 151 c 128,-1,33
 186 151 186 151 195 169 c 1,34,35
 211 197 211 197 226 239.5 c 128,-1,36
 241 282 241 282 241 305.5 c 128,-1,37
 241 329 241 329 219 329 c 0,38,39
 206 329 206 329 190 322 c 0,40,41
 128 297 128 297 108 209 c 0,42,43
 73 53 73 53 73 -63 c 0,44,45
 73 -118 73 -118 79 -154 c 1,46,-1
 82 -177 l 1,47,48
 82 -189 82 -189 72 -200 c 128,-1,49
 62 -211 62 -211 50 -211 c 0,50,51
 18 -211 18 -211 18 -61 c 0,52,53
 18 33 18 33 45 243 c 1,0,-1
EndSplineSet
EndChar

StartChar: q
Encoding: 113 113 43
Width: 337
Flags: HMW
HStem: -307 21G<196 244.5> 438 20G<221 250.5>
VStem: 156 135<-173 -164.5 -188 -116>
LayerCount: 2
Fore
SplineSet
312.5 361.5 m 128,-1,1
 322 342 322 342 322 333 c 128,-1,2
 322 324 322 324 317 291 c 1,3,4
 301 220 301 220 219 -184 c 1,5,6
 237 -181 237 -181 258.5 -159 c 128,-1,7
 280 -137 280 -137 285.5 -137 c 128,-1,8
 291 -137 291 -137 291 -174 c 128,-1,9
 291 -211 291 -211 272 -259 c 128,-1,10
 253 -307 253 -307 217 -307 c 0,11,12
 169 -307 169 -307 161 -238 c 1,13,14
 156 -205 156 -205 156 -144 c 128,-1,15
 156 -83 156 -83 190 100 c 1,16,17
 156 52.4 156 52.4 142 37 c 1,18,19
 128 18 128 18 107.5 18 c 128,-1,20
 87 18 87 18 66 34 c 0,21,22
 18 72 18 72 18 163 c 128,-1,23
 18 254 18 254 59.5 323.5 c 128,-1,24
 101 393 101 393 173 440 c 1,25,26
 198 458 198 458 229 458 c 128,-1,27
 260 458 260 458 279.5 439 c 128,-1,28
 299 420 299 420 301 400.5 c 128,-1,0
 303 381 303 381 312.5 361.5 c 128,-1,1
236 337 m 0,29,30
 240 347 240 347 240 355 c 128,-1,31
 240 363 240 363 232 363 c 0,32,33
 230 363 230 363 226 361 c 0,34,35
 114 306 114 306 90 156 c 0,36,37
 89 149 89 149 89 139.5 c 128,-1,38
 89 130 89 130 94.5 130 c 128,-1,39
 100 130 100 130 109 139 c 0,40,41
 183 204 183 204 236 337 c 0,29,30
EndSplineSet
EndChar

StartChar: r
Encoding: 114 114 44
Width: 307
Flags: HMW
HStem: -13 21G<151 201.5> 436 20G<45.5 53.5>
VStem: 0 222<320 374>
LayerCount: 2
Fore
SplineSet
319 225 m 0,0,1
 326 225 326 225 326 183.5 c 128,-1,2
 326 142 326 142 298 100 c 1,3,4
 285.772727273 75.5454545455 285.772727273 75.5454545455 259.386363636 44.2727272727 c 128,-1,5
 233 13 233 13 224 6.5 c 0,6,7
 197 -13 197 -13 180.5 -13 c 128,-1,8
 164 -13 164 -13 156 -11 c 128,-1,9
 148 -9 148 -9 140.5 -2.5 c 128,-1,10
 133 4 133 4 128.5 7.5 c 128,-1,11
 124 11 124 11 117.5 21.5 c 128,-1,12
 111 32 111 32 109 35 c 128,-1,13
 107 38 107 38 100 51 c 128,-1,14
 93 64 93 64 93 65 c 0,15,16
 74 100 74 100 74 131.5 c 128,-1,17
 74 163 74 163 79.5 190.5 c 128,-1,18
 85 218 85 218 97 258 c 128,-1,19
 109 298 109 298 112 309 c 1,20,21
 97 290 97 290 72 268 c 0,22,23
 62 260 62 260 50.5 260 c 128,-1,24
 39 260 39 260 31.5 270.5 c 128,-1,25
 24 281 24 281 12 316 c 128,-1,26
 0 351 0 351 0 363.5 c 128,-1,27
 0 376 0 376 16 402.5 c 128,-1,28
 32 429 32 429 35 438 c 0,29,30
 40 456 40 456 50 456 c 0,31,32
 55 456 55 456 74 445.5 c 128,-1,33
 93 435 93 435 99 405 c 0,34,35
 101 393 101 393 108 393 c 0,36,37
 111 393 111 393 125.5 404 c 128,-1,38
 140 415 140 415 157.5 415 c 128,-1,39
 175 415 175 415 210 383 c 0,40,41
 222 371 222 371 222 349 c 128,-1,42
 222 327 222 327 219.5 318 c 128,-1,43
 217 309 217 309 214 306.5 c 0,44,45
 205.3 299.25 205.3 299.25 200.65 286.625 c 128,-1,46
 196 274 196 274 173.5 192.5 c 128,-1,47
 151 111 151 111 151 103 c 128,-1,48
 151 95 151 95 157 95 c 0,49,50
 165 95 165 95 221 143 c 128,-1,51
 277 191 277 191 302 214 c 1,52,53
 317 225 317 225 319 225 c 0,0,1
EndSplineSet
EndChar

StartChar: s
Encoding: 115 115 45
Width: 322
Flags: HMW
HStem: -1 116<81 107 81 125> 310 140<213 270>
LayerCount: 2
Fore
SplineSet
286 429.5 m 128,-1,1
 322 409 322 409 322 381.5 c 128,-1,2
 322 354 322 354 300.5 332 c 128,-1,3
 279 310 279 310 252 310 c 0,4,5
 211 310 211 310 195 348 c 0,6,7
 193 354 193 354 188.5 354 c 128,-1,8
 184 354 184 354 155.5 342 c 128,-1,9
 127 330 127 330 117 325 c 128,-1,10
 107 320 107 320 107 315.5 c 128,-1,11
 107 311 107 311 121 304 c 1,12,13
 299 256 299 256 299 157 c 0,14,15
 299 122 299 122 271.5 84.5 c 128,-1,16
 244 47 244 47 194 23 c 128,-1,17
 144 -1 144 -1 98 -1 c 128,-1,18
 52 -1 52 -1 33.5 24 c 128,-1,19
 15 49 15 49 15 96 c 128,-1,20
 15 143 15 143 48 166 c 1,21,22
 92 195 92 195 120 195 c 0,23,24
 127 195 127 195 127 191.5 c 128,-1,25
 127 188 127 188 111.5 179 c 128,-1,26
 96 170 96 170 78.5 153 c 128,-1,27
 61 136 61 136 61 125.5 c 128,-1,28
 61 115 61 115 85 115 c 0,29,30
 149 115 149 115 211 151 c 0,31,32
 225 158 225 158 225 167.5 c 128,-1,33
 225 177 225 177 204 187 c 128,-1,34
 183 197 183 197 133.5 216 c 128,-1,35
 84 235 84 235 55.5 248.5 c 128,-1,36
 27 262 27 262 27 293 c 0,37,38
 27 302 27 302 31.5 318.5 c 128,-1,39
 36 335 36 335 37 341 c 0,40,41
 42 376 42 376 68.5 389 c 128,-1,42
 95 402 95 402 183 443 c 0,43,44
 198 450 198 450 224 450 c 128,-1,0
 250 450 250 450 286 429.5 c 128,-1,1
EndSplineSet
EndChar

StartChar: t
Encoding: 116 116 46
Width: 269
Flags: HMW
HStem: -26 21G<154.5 202.5> 634 20G<120.5 136.5>
VStem: 54 87<157.5 233> 54 195<97 233> 107 88<595.5 643.5>
LayerCount: 2
Fore
SplineSet
164 440 m 1,0,-1
 243 444 l 1,1,2
 274 444 274 444 274 404 c 0,3,4
 274 384 274 384 261 374 c 1,5,6
 229 345 229 345 151 334 c 1,7,8
 141 239 141 239 141 176 c 128,-1,9
 141 113 141 113 150 113 c 0,10,11
 156 113 156 113 192 145 c 128,-1,12
 228 177 228 177 232 177 c 0,13,14
 249 177 249 177 249 125.5 c 128,-1,15
 249 74 249 74 230 24 c 128,-1,16
 211 -26 211 -26 176 -26 c 0,17,18
 161 -26 161 -26 146 -15.5 c 128,-1,19
 131 -5 131 -5 123.5 5.5 c 128,-1,20
 116 16 116 16 102.5 37 c 128,-1,21
 89 58 89 58 86 62 c 0,22,23
 59 99 59 99 56.5 135.5 c 128,-1,24
 54 172 54 172 54 221 c 128,-1,25
 54 270 54 270 60 327 c 1,26,27
 29 328 29 328 8.5 349 c 128,-1,28
 -12 370 -12 370 -23.5 399.5 c 128,-1,29
 -35 429 -35 429 -35 433 c 0,30,31
 -35 446 -35 446 -20 446 c 2,32,-1
 76 440 l 1,33,34
 81 471 81 471 92.5 526.5 c 0,35,36
 109 606.130434783 109 606.130434783 109 619 c 1,37,-1
 107 638 l 1,38,39
 107 654 107 654 125 654 c 128,-1,40
 143 654 143 654 169 636 c 128,-1,41
 195 618 195 618 195 602 c 0,42,43
 195 595 195 595 188.5 574 c 0,44,45
 178.551020408 541.857142857 178.551020408 541.857142857 164 440 c 1,0,-1
EndSplineSet
EndChar

StartChar: u
Encoding: 117 117 47
Width: 338
Flags: HMW
HStem: -14 21G<93 108> -8 21G<256 276.5> 351 113<38 98.5>
VStem: 5 173<387 452>
LayerCount: 2
Fore
SplineSet
42 455 m 1,0,-1
 90 464 l 1,1,2
 113 464 113 464 133 447 c 0,3,4
 135 445 135 445 145.5 437 c 128,-1,5
 156 429 156 429 161.5 424 c 0,6,7
 178 409 178 409 178 398.5 c 128,-1,8
 178 388 178 388 160 338 c 128,-1,9
 142 288 142 288 121.5 232.5 c 0,10,11
 96 163.463414634 96 163.463414634 96 156.231707317 c 128,-1,12
 96 149 96 149 101 149 c 0,13,14
 109 149 109 149 161 244 c 128,-1,15
 213 339 213 339 240 393 c 0,16,17
 250 412 250 412 268 412 c 0,18,19
 310 412 310 412 310 377 c 0,20,21
 310 357 310 357 284.5 263.5 c 0,22,23
 251 140.666666667 251 140.666666667 251 130.333333333 c 128,-1,24
 251 120 251 120 256.5 120 c 128,-1,25
 262 120 262 120 279 172.5 c 128,-1,26
 296 225 296 225 303 225 c 0,27,28
 307 225 307 225 313 216 c 1,29,30
 338 164 338 164 338 120 c 128,-1,31
 338 76 338 76 307 19 c 0,32,33
 293 -8 293 -8 268 -8 c 0,34,35
 251.714285714 -8 251.714285714 -8 244.857142857 0 c 0,36,37
 224.8 23.4 224.8 23.4 221 31 c 1,38,39
 202.423076923 54.8846153846 202.423076923 54.8846153846 190 117 c 1,40,41
 183 104 183 104 172.5 80 c 0,42,43
 149.448275862 27.3103448276 149.448275862 27.3103448276 130 3 c 1,44,45
 118 -14 118 -14 99.5 -14 c 128,-1,46
 81 -14 81 -14 59 12 c 1,47,48
 26 57 26 57 25.5 113 c 128,-1,49
 25 169 25 169 36.5 218 c 128,-1,50
 48 267 48 267 72 337 c 1,51,-1
 75 349 l 1,52,53
 75 357 75 357 68 357 c 1,54,-1
 45 351 l 1,55,56
 28 351 28 351 21 371 c 1,57,58
 5 407 5 407 5 449 c 0,59,60
 5 461 5 461 15 461 c 1,61,-1
 42 455 l 1,0,-1
EndSplineSet
EndChar

StartChar: v
Encoding: 118 118 48
Width: 278
Flags: HMW
HStem: -6 21G<134 153> 465 20G<221.5 229.5>
VStem: 25 233<132 251.5>
LayerCount: 2
Fore
SplineSet
22 459 m 1,0,-1
 70 463 l 1,1,2
 104 463 104 463 140 429 c 0,3,4
 159 411 159 411 159 393.5 c 0,5,6
 159 363.066666667 159 363.066666667 106 144 c 0,7,8
 104 134 104 134 104 126 c 128,-1,9
 104 118 104 118 108 118 c 128,-1,10
 112 118 112 118 121 127 c 1,11,12
 153 167 153 167 166 206 c 128,-1,13
 179 245 179 245 185 263.5 c 128,-1,14
 191 282 191 282 196 316 c 128,-1,15
 201 350 201 350 203 364 c 0,16,17
 205.666666667 382.666666667 205.666666667 382.666666667 214 466 c 1,18,19
 217 485 217 485 225.5 485 c 128,-1,20
 234 485 234 485 237 470 c 0,21,22
 258 356 258 356 258 238 c 128,-1,23
 258 120 258 120 203 38 c 1,24,25
 175 -6 175 -6 139 -6 c 0,26,27
 124 -6 124 -6 110 2 c 1,28,29
 71 20 71 20 48 67 c 128,-1,30
 25 114 25 114 25 161 c 0,31,32
 25 194.5 25 194.5 32.5 220.75 c 128,-1,33
 40 247 40 247 47 270 c 0,34,35
 58 306.142857143 58 306.142857143 58 315.571428571 c 128,-1,36
 58 325 58 325 39.5 333 c 128,-1,37
 21 341 21 341 15.5 354.5 c 128,-1,38
 10 368 10 368 0 407.5 c 128,-1,39
 -10 447 -10 447 -10 454 c 128,-1,40
 -10 461 -10 461 -3 461 c 2,41,-1
 22 459 l 1,0,-1
EndSplineSet
EndChar

StartChar: w
Encoding: 119 119 49
Width: 411
Flags: HMW
HStem: -18 21G<293.5 341.5> -7 21G<112 132> 316 112<2.5 14 1.5 30.5> 316 144<2.5 113>
VStem: -20 176<355.5 421.5> 37 226<161.5 186.5 161.5 197.5> 312 81
LayerCount: 2
Fore
SplineSet
214 323 m 0,0,1
 223.25 323 223.25 323 229.125 323 c 128,-1,2
 235 323 235 323 241 322.5 c 128,-1,3
 247 322 247 322 250 321.5 c 128,-1,4
 253 321 253 321 257.5 319.5 c 128,-1,5
 262 318 262 318 264 315.5 c 128,-1,6
 266 313 266 313 268.5 310 c 0,7,8
 273 304.6 273 304.6 273 296.8 c 128,-1,9
 273 289 273 289 268 242 c 128,-1,10
 263 195 263 195 263 167 c 0,11,12
 263 87 263 87 274 87 c 0,13,14
 278 87 278 87 284 99 c 0,15,16
 314 160 314 160 314 265 c 0,17,18
 314 367.625 314 367.625 304.5 387.8125 c 128,-1,19
 295 408 295 408 286 415.5 c 128,-1,20
 277 423 277 423 269.5 429 c 128,-1,21
 262 435 262 435 262 438 c 0,22,23
 262 448 262 448 279 448 c 2,24,-1
 294 448 l 1,25,26
 316 447 316 447 331 415 c 0,27,28
 393 284 393 284 393 165 c 0,29,30
 393 109.941176471 393 109.941176471 381 65.4705882353 c 0,31,32
 358.476190476 -18 358.476190476 -18 301 -18 c 0,33,34
 279 -18 279 -18 255 -0.5 c 128,-1,35
 231 17 231 17 218.5 45 c 128,-1,36
 206 73 206 73 198 118 c 1,37,38
 187 82 187 82 162 37.5 c 128,-1,39
 137 -7 137 -7 115 -7 c 0,40,41
 107 -7 107 -7 99 -1 c 0,42,43
 37 45 37 45 37 161 c 0,44,45
 37 223.909090909 37 223.909090909 54.5 278 c 0,46,47
 60 295 60 295 77 341 c 1,48,49
 39.5 316 39.5 316 21.75 316 c 128,-1,50
 4 316 4 316 -6 337.5 c 0,51,52
 -20 367.6 -20 367.6 -20 418 c 0,53,54
 -20 430 -20 430 -10 430 c 1,55,-1
 4 428 l 1,56,57
 14 428 14 428 47 444 c 128,-1,58
 80 460 80 460 92 460 c 0,59,60
 120 460 120 460 138 425.5 c 128,-1,61
 156 391 156 391 156 368.5 c 128,-1,62
 156 346 156 346 151 322.5 c 128,-1,63
 146 299 146 299 127 229.5 c 0,64,65
 100 130.736842105 100 130.736842105 100 119.368421053 c 128,-1,66
 100 108 100 108 104 108 c 128,-1,67
 108 108 108 108 115 118 c 0,68,69
 155 180 155 180 185 299 c 0,70,71
 191 323 191 323 214 323 c 0,0,1
EndSplineSet
EndChar

StartChar: x
Encoding: 120 120 50
Width: 295
Flags: HMW
HStem: -3 21G<221.5 232.5> 452 20G<316 330>
VStem: 10 237<18.5 109>
LayerCount: 2
Fore
SplineSet
335 451 m 2,0,-1
 335 443 l 1,1,2
 334 429 334 429 323 407 c 1,3,4
 268 309 268 309 188 194 c 1,5,6
 247 51 247 51 247 25 c 0,7,8
 247 14 247 14 241 5.5 c 128,-1,9
 235 -3 235 -3 225.5 -3 c 128,-1,10
 216 -3 216 -3 209 4 c 0,11,12
 172 40 172 40 130 111 c 1,13,14
 128 108 128 108 119 96 c 128,-1,15
 110 84 110 84 108 80 c 128,-1,16
 106 76 106 76 101 66.5 c 0,17,18
 94.2417582418 53.6593406593 94.2417582418 53.6593406593 91.6208791209 28.3296703297 c 128,-1,19
 89 3 89 3 78 3 c 128,-1,20
 67 3 67 3 38.5 31.5 c 128,-1,21
 10 60 10 60 10 90 c 0,22,23
 10 135 10 135 73 224 c 1,24,25
 10 378 10 378 10 390.5 c 128,-1,26
 10 403 10 403 19 421 c 128,-1,27
 28 439 28 439 39 439 c 128,-1,28
 50 439 50 439 86 384 c 128,-1,29
 122 329 122 329 136 301 c 1,30,31
 164 331 164 331 238.5 401.5 c 128,-1,32
 313 472 313 472 325 472 c 0,33,34
 335 472 335 472 335 451 c 2,0,-1
EndSplineSet
EndChar

StartChar: y
Encoding: 121 121 51
Width: 379
Flags: HMW
HStem: -351 21G<218 228.5> -132 140<82 155> 322 87 322 117<42 120>
VStem: -2 193<328.5 415.5> 27 164 134 107<-326.5 -153>
LayerCount: 2
Fore
SplineSet
-2 407 m 0,0,1
 -2 422.363636364 -2 422.363636364 18.5 420.5 c 0,2,3
 24 420 24 420 33 420 c 128,-1,4
 42 420 42 420 71 429.5 c 128,-1,5
 100 439 100 439 117 439 c 128,-1,6
 134 439 134 439 149.5 425.5 c 128,-1,7
 165 412 165 412 178 391 c 128,-1,8
 191 370 191 370 191 347.5 c 128,-1,9
 191 325 191 325 147.5 228.5 c 128,-1,10
 104 132 104 132 104 125 c 128,-1,11
 104 118 104 118 112 118 c 0,12,13
 127.52 118 127.52 118 179 176.5 c 0,14,15
 190 189 190 189 203.5 210.5 c 128,-1,16
 217 232 217 232 224 243 c 128,-1,17
 231 254 231 254 243.5 281 c 128,-1,18
 256 308 256 308 260 316.5 c 0,19,20
 278.666666667 356.166666667 278.666666667 356.166666667 293 392 c 1,21,22
 301 409 301 409 317 409 c 128,-1,23
 333 409 333 409 347 390 c 128,-1,24
 361 371 361 371 361 352 c 0,25,26
 361 318.76744186 361 318.76744186 309 73.8837209302 c 128,-1,27
 257 -171 257 -171 251.5 -198 c 128,-1,28
 246 -225 246 -225 241 -320 c 1,29,30
 241 -351 241 -351 220 -351 c 0,31,32
 213 -351 213 -351 207 -348 c 0,33,34
 134 -318 134 -318 134 -220 c 2,35,-1
 134 -153 l 2,36,37
 134 -132 134 -132 147 -132 c 0,38,39
 159.391304348 -132 159.391304348 -132 172.695652174 -149 c 128,-1,40
 186 -166 186 -166 187 -168 c 1,41,-1
 241 99 l 1,42,43
 195.936446248 44.6586557698 195.936446248 44.6586557698 169.759263287 26.3293278849 c 128,-1,44
 143.582080325 8 143.582080325 8 107.291040163 8 c 128,-1,45
 71 8 71 8 49 42 c 128,-1,46
 27 76 27 76 27 119 c 0,47,48
 27 208 27 208 90 329 c 1,49,50
 62 322 62 322 44.5 322 c 128,-1,51
 27 322 27 322 19 340 c 0,52,53
 15 348 15 348 6.5 374.5 c 128,-1,54
 -2 401 -2 401 -2 407 c 0,0,1
EndSplineSet
EndChar

StartChar: z
Encoding: 122 122 52
Width: 303
Flags: HMW
HStem: 4 121<73.5 214> 437 20G<103 110.5>
VStem: 10 248
LayerCount: 2
Fore
SplineSet
143.5 428 m 1,0,-1
 164 429 l 1,1,2
 215 429 215 429 242 413 c 128,-1,3
 269 397 269 397 293 352 c 0,4,5
 303 335 303 335 303 316.5 c 128,-1,6
 303 298 303 298 289 284 c 0,7,8
 256 249 256 249 185.5 191 c 128,-1,9
 115 133 115 133 101 121 c 1,10,-1
 196 125 l 1,11,12
 226.375 125 226.375 125 238.1875 120.5 c 128,-1,13
 250 116 250 116 254 106.5 c 128,-1,14
 258 97 258 97 258 75 c 128,-1,15
 258 53 258 53 239 50 c 0,16,17
 208 44 208 44 117 11 c 0,18,19
 98 4 98 4 78 4 c 128,-1,20
 58 4 58 4 44 25 c 1,21,22
 15 77 15 77 15 103 c 128,-1,23
 15 129 15 129 32 151 c 0,24,25
 63 189 63 189 130 253.5 c 128,-1,26
 197 318 197 318 207 329 c 1,27,28
 79.3846153846 308 79.3846153846 308 63.1923076923 308 c 128,-1,29
 47 308 47 308 38 311.5 c 128,-1,30
 29 315 29 315 24 325 c 0,31,32
 10 353 10 353 10 379 c 0,33,34
 10 421 10 421 92 454 c 0,35,36
 98 457 98 457 105 457 c 0,37,38
 118 457 118 457 120 441 c 0,39,40
 122.6 428 122.6 428 143.5 428 c 1,0,-1
EndSplineSet
EndChar

StartChar: fi
Encoding: 64257 64257 53
Width: 597
Flags: HMW
HStem: -385 87<97 145.5> -12 21G<459 486.5> 506 221<458 517.5>
VStem: 10 43 267 77<29.5 89.5 -41.5 125> 389 106 389 208<157 190.5 147 197.5> 444 118<537 700.5>
LayerCount: 2
Fore
SplineSet
56 435 m 2,0,-1
 53 406 l 1,1,2
 53 390 53 390 62 390 c 0,3,4
 66 390 66 390 71 395 c 0,5,6
 106 430 106 430 146 521 c 128,-1,7
 186 612 186 612 227 688 c 1,8,9
 238 711 238 711 257 711 c 128,-1,10
 276 711 276 711 286.5 697 c 128,-1,11
 297 683 297 683 297 665.5 c 128,-1,12
 297 648 297 648 287 635 c 1,13,14
 226.107806691 542.791821561 226.107806691 542.791821561 161 333 c 1,15,16
 207 344 207 344 282 376 c 128,-1,17
 357 408 357 408 375.5 429.5 c 128,-1,18
 394 451 394 451 428 451 c 0,19,20
 444 451 444 451 469.5 432.5 c 128,-1,21
 495 414 495 414 495 391 c 0,22,23
 495 354 495 354 480 258 c 0,24,25
 462 142.8 462 142.8 462 129.4 c 128,-1,26
 462 116 462 116 471 116 c 0,27,28
 491 116 491 116 572 244 c 1,29,30
 580 261 580 261 587 261 c 0,31,32
 592 261 592 261 594.5 236 c 128,-1,33
 597 211 597 211 597 169.5 c 128,-1,34
 597 128 597 128 577.5 80.5 c 128,-1,35
 558 33 558 33 521 4 c 0,36,37
 500 -12 500 -12 482.5 -12 c 128,-1,38
 465 -12 465 -12 453.5 -4.5 c 128,-1,39
 442 3 442 3 432.5 19.5 c 0,40,41
 418.176923077 44.3769230769 418.176923077 44.3769230769 403.588461538 82.1884615385 c 128,-1,42
 389 120 389 120 389 172 c 128,-1,43
 389 224 389 224 405 327 c 1,44,45
 354 303 354 303 253 269 c 1,46,47
 301 217 301 217 322.5 166 c 128,-1,48
 344 115 344 115 344 27 c 0,49,50
 344 -147 344 -147 208 -353 c 0,51,52
 194 -373 194 -373 176.5 -379 c 128,-1,53
 159 -385 159 -385 135.5 -385 c 128,-1,54
 112 -385 112 -385 103.5 -379 c 128,-1,55
 95 -373 95 -373 87.5 -361 c 128,-1,56
 80 -349 80 -349 65.5 -327 c 128,-1,57
 51 -305 51 -305 44 -292 c 0,58,59
 10 -225 10 -225 10 -128 c 0,60,61
 10 -21 10 -21 52 245 c 1,62,63
 35 256 35 256 35 275.5 c 128,-1,64
 35 295 35 295 48 313 c 1,65,66
 44 323 44 323 37.5 337 c 128,-1,67
 31 351 31 351 28 358.5 c 0,68,69
 20 378.5 20 378.5 20 408 c 0,70,71
 20 462 20 462 39 462 c 0,72,73
 46 462 46 462 51 452.5 c 128,-1,74
 56 443 56 443 56 435 c 2,0,-1
267 89 m 0,75,76
 267 142 267 142 242.5 182.5 c 128,-1,77
 218 223 218 223 176 245 c 1,78,79
 167 243 167 243 132 235 c 1,80,81
 84 26 84 26 84 -224 c 0,82,83
 84 -298 84 -298 109 -298 c 0,84,85
 118 -298 118 -298 130 -284 c 0,86,87
 190 -220 190 -220 228.5 -112 c 128,-1,88
 267 -4 267 -4 267 89 c 0,75,76
562 688 m 0,89,90
 562 655 562 655 534 596.5 c 128,-1,91
 506 538 506 538 481 512 c 0,92,93
 476.5 506 476.5 506 469 506 c 0,94,95
 444 506 444 506 444 546 c 128,-1,96
 444 586 444 586 479 658 c 0,97,98
 486 673 486 673 488 689 c 128,-1,99
 490 705 490 705 490.5 707.5 c 128,-1,100
 491 710 491 710 491.5 711.5 c 128,-1,101
 492 713 492 713 492.5 715.5 c 128,-1,102
 493 718 493 718 493.5 719.5 c 128,-1,103
 494 721 494 721 495 722.5 c 128,-1,104
 496 724 496 724 497.5 725 c 0,105,106
 500.5 727 500.5 727 513.25 727 c 128,-1,107
 526 727 526 727 544 716 c 128,-1,108
 562 705 562 705 562 688 c 0,89,90
EndSplineSet
Ligature2: "'liga' Standard Ligatures in Latin lookup 2 subtable" f i
EndChar

StartChar: fl
Encoding: 64258 64258 54
Width: 598
Flags: HMW
HStem: -385 87<97 145.5> -8 21G<474 497> 727 20G<453 459.5>
VStem: 10 43 267 77<29.5 73 -41.5 118.5> 385 84<187 227.5 134.5 259.5> 449 81<686.5 696.5 671 710>
LayerCount: 2
Fore
SplineSet
56 435 m 2,0,-1
 53 406 l 1,1,2
 53 390 53 390 62 390 c 0,3,4
 66 390 66 390 71 395 c 0,5,6
 106 430 106 430 146 521 c 128,-1,7
 186 612 186 612 227 688 c 1,8,9
 238 711 238 711 257 711 c 128,-1,10
 276 711 276 711 286.5 697 c 128,-1,11
 297 683 297 683 297 665.5 c 128,-1,12
 297 648 297 648 287 635 c 1,13,14
 226.107806691 542.791821561 226.107806691 542.791821561 161 333 c 1,15,16
 204 349 204 349 252 393 c 1,17,18
 271 409 271 409 293.5 409 c 128,-1,19
 316 409 316 409 346.5 390.5 c 128,-1,20
 377 372 377 372 377 349.5 c 128,-1,21
 377 327 377 327 337.5 299 c 128,-1,22
 298 271 298 271 262 254 c 1,23,24
 305 197 305 197 324.5 145 c 128,-1,25
 344 93 344 93 344 27 c 0,26,27
 344 -147 344 -147 208 -353 c 0,28,29
 194 -373 194 -373 176.5 -379 c 128,-1,30
 159 -385 159 -385 135.5 -385 c 128,-1,31
 112 -385 112 -385 103.5 -379 c 128,-1,32
 95 -373 95 -373 87.5 -361 c 128,-1,33
 80 -349 80 -349 65.5 -327 c 128,-1,34
 51 -305 51 -305 44 -292 c 0,35,36
 10 -225 10 -225 10 -128 c 0,37,38
 10 -46.5 10 -46.5 20.5 32.25 c 0,39,40
 33.5 129.75 33.5 129.75 50 237 c 1,41,42
 35 255 35 255 35 274.5 c 128,-1,43
 35 294 35 294 51 305 c 1,44,45
 27.1379310345 358.689655172 27.1379310345 358.689655172 23.5689655172 375.344827586 c 128,-1,46
 20 392 20 392 20 408 c 0,47,48
 20 462 20 462 39 462 c 0,49,50
 46 462 46 462 51 452.5 c 128,-1,51
 56 443 56 443 56 435 c 2,0,-1
228.5 -112 m 128,-1,53
 267 -4 267 -4 267 92.5 c 128,-1,54
 267 189 267 189 192 228 c 1,55,56
 160.5 220.5 160.5 220.5 129 216 c 1,57,58
 84 20 84 20 84 -224 c 0,59,60
 84 -298 84 -298 109 -298 c 0,61,62
 118 -298 118 -298 130 -284 c 0,63,52
 190 -220 190 -220 228.5 -112 c 128,-1,53
449 705 m 1,64,-1
 444 735 l 1,65,66
 444 747 444 747 457 747 c 0,67,68
 462 747 462 747 470 745 c 0,69,70
 530 733 530 733 530 676 c 0,71,72
 530 662 530 662 527 645.5 c 128,-1,73
 524 629 524 629 515.5 577 c 128,-1,74
 507 525 507 525 503.5 502 c 2,75,-1
 493 433 l 2,76,77
 469 275.285714286 469 275.285714286 469 142 c 0,78,79
 469 113 469 113 483 113 c 0,80,81
 488 113 488 113 494 119 c 0,82,83
 564 207 564 207 575.5 226.5 c 128,-1,84
 587 246 587 246 592.5 246 c 128,-1,85
 598 246 598 246 598 232.5 c 128,-1,86
 598 219 598 219 592.5 181.5 c 128,-1,87
 587 144 587 144 586 133.5 c 128,-1,88
 585 123 585 123 581.5 110 c 128,-1,89
 578 97 578 97 575.5 89.5 c 128,-1,90
 573 82 573 82 565 68.5 c 128,-1,91
 557 55 557 55 554 51 c 0,92,93
 533 23 533 23 520.5 7.5 c 128,-1,94
 508 -8 508 -8 491.5 -8 c 128,-1,95
 475 -8 475 -8 460 7 c 128,-1,96
 445 22 445 22 438.5 34 c 128,-1,97
 432 46 432 46 420 71 c 0,98,99
 385 139 385 139 385 214 c 0,100,101
 385 277.789473684 385 277.789473684 399.5 370.894736842 c 128,-1,102
 414 464 414 464 417 487 c 1,103,104
 394 487 394 487 394 507 c 0,105,106
 394 515 394 515 396.5 522.5 c 128,-1,107
 399 530 399 530 415.5 578 c 0,108,109
 449 675.454545455 449 675.454545455 449 705 c 1,64,-1
EndSplineSet
Ligature2: "'liga' Standard Ligatures in Latin lookup 2 subtable" f l
EndChar

StartChar: germandbls
Encoding: 223 223 55
Width: 434
Flags: HMW
HStem: -345 21G<98 109.5> -1 116<201 216.5 201 250> 613 98<302.5 330>
VStem: 0 74<-157 -150.5 -247 -17> 177 242<145 375> 343 76
LayerCount: 2
Fore
SplineSet
0 -128 m 0,0,1
 0 232 0 232 126 522 c 0,2,3
 144 563 144 563 193 637 c 128,-1,4
 242 711 242 711 268 711 c 0,5,6
 361.962962963 711 361.962962963 711 391 655 c 0,7,8
 415 608.714285714 415 608.714285714 415 533.357142857 c 128,-1,9
 415 458 415 458 382 424 c 128,-1,10
 349 390 349 390 269 366 c 0,11,12
 257 363 257 363 257 357 c 128,-1,13
 257 351 257 351 271 344 c 1,14,15
 321 324 321 324 370 271 c 128,-1,16
 419 218 419 218 419 157 c 0,17,18
 419 122 419 122 396 91 c 0,19,20
 329 -1 329 -1 210 -1 c 0,21,22
 172 -1 172 -1 153.5 24 c 128,-1,23
 135 49 135 49 135 84 c 128,-1,24
 135 119 135 119 142 136 c 128,-1,25
 149 153 149 153 168 166 c 0,26,27
 212 195 212 195 240 195 c 0,28,29
 247 195 247 195 247 192 c 0,30,31
 247 186 247 186 233.5 179.5 c 128,-1,32
 220 173 220 173 200.5 154.5 c 128,-1,33
 181 136 181 136 181 125.5 c 128,-1,34
 181 115 181 115 207.5 115 c 128,-1,35
 234 115 234 115 289.5 130.5 c 128,-1,36
 345 146 345 146 345 167 c 0,37,38
 345 193 345 193 200 286 c 0,39,40
 177 301 177 301 177 328.5 c 128,-1,41
 177 356 177 356 194 375.5 c 128,-1,42
 211 395 211 395 235.5 412.5 c 128,-1,43
 260 430 260 430 284.5 450 c 128,-1,44
 309 470 309 470 326 503 c 128,-1,45
 343 536 343 536 343 574.5 c 128,-1,46
 343 613 343 613 320 613 c 0,47,48
 293 613 293 613 238.5 525 c 128,-1,49
 184 437 184 437 151.5 334 c 128,-1,50
 119 231 119 231 96.5 61.5 c 128,-1,51
 74 -108 74 -108 74 -224 c 0,52,53
 74 -255 74 -255 79 -265 c 128,-1,54
 84 -275 84 -275 90.5 -284.5 c 0,55,56
 114 -318.846153846 114 -318.846153846 114 -331.923076923 c 128,-1,57
 114 -345 114 -345 107 -345 c 0,58,59
 94 -345 94 -345 67.5 -324.5 c 128,-1,60
 41 -304 41 -304 34 -292 c 0,61,62
 0 -225 0 -225 0 -128 c 0,0,1
EndSplineSet
EndChar

StartChar: agrave
Encoding: 224 224 57
Width: 418
Flags: HMW
HStem: -16 21G<317.5 348.5> -15 94 -15 206 466 198<118.5 254>
LayerCount: 2
Fore
SplineSet
237 132 m 1,0,1
 155.333333333 -15 155.333333333 -15 112 -15 c 0,2,3
 81 -15 81 -15 56 23 c 0,4,5
 49 33 49 33 41 54.5 c 128,-1,6
 33 76 33 76 21.5 94 c 128,-1,7
 10 112 10 112 10 142.5 c 128,-1,8
 10 173 10 173 22 197 c 0,9,10
 104 359 104 359 195 419 c 0,11,12
 207 428 207 428 223 428 c 128,-1,13
 239 428 239 428 263 410 c 1,14,15
 277 396 277 396 279.5 386 c 0,16,17
 285 364 285 364 285 359 c 1,18,19
 320 347 320 347 320 315 c 0,20,21
 320 293.428571429 320 293.428571429 308 215.714285714 c 128,-1,22
 296 138 296 138 294 100 c 1,23,24
 294 79 294 79 308 79 c 0,25,26
 324 79 324 79 365.5 135 c 128,-1,27
 407 191 407 191 413 191 c 0,28,29
 423 191 423 191 423 158 c 1,30,-1
 421 109 l 1,31,32
 421 81 421 81 396 32.5 c 128,-1,33
 371 -16 371 -16 332 -16 c 0,34,35
 307.9 -16 307.9 -16 293.5 0 c 0,36,37
 289 5 289 5 279 20 c 0,38,39
 248 65 248 65 237 132 c 1,0,1
246 363 m 1,40,41
 120 248 120 248 86 100 c 1,42,43
 187 187 187 187 246 363 c 1,40,41
176 509 m 128,-1,45
 168 521 168 521 156 536.5 c 128,-1,46
 144 552 144 552 119 576 c 128,-1,47
 94 600 94 600 82 611.5 c 128,-1,48
 70 623 70 623 70 630 c 0,49,50
 70 640 70 640 91 652 c 128,-1,51
 112 664 112 664 125 664 c 128,-1,52
 138 664 138 664 142 663 c 128,-1,53
 146 662 146 662 150.5 658.5 c 128,-1,54
 155 655 155 655 158 652 c 128,-1,55
 161 649 161 649 166 641 c 128,-1,56
 171 633 171 633 175.5 626 c 128,-1,57
 180 619 180 619 188.5 605 c 128,-1,58
 197 591 197 591 201 584.5 c 128,-1,59
 205 578 205 578 223.5 550 c 0,60,61
 262 491.72972973 262 491.72972973 262 478.864864865 c 128,-1,62
 262 466 262 466 250 466 c 128,-1,63
 238 466 238 466 228 468.5 c 128,-1,64
 218 471 218 471 211.5 473.5 c 128,-1,65
 205 476 205 476 197.5 483.5 c 2,66,-1
 187 494 l 2,67,44
 184 497 184 497 176 509 c 128,-1,45
EndSplineSet
EndChar

StartChar: aacute
Encoding: 225 225 59
Width: 418
Flags: HMW
HStem: -16 21G<317.5 348.5> -15 94 -15 206 642 20G<322 342.5>
VStem: 211 164<481 595.5>
LayerCount: 2
Fore
SplineSet
237 132 m 1,0,1
 155.333333333 -15 155.333333333 -15 112 -15 c 0,2,3
 81 -15 81 -15 56 23 c 0,4,5
 49 33 49 33 41 54.5 c 128,-1,6
 33 76 33 76 21.5 94 c 128,-1,7
 10 112 10 112 10 142.5 c 128,-1,8
 10 173 10 173 22 197 c 0,9,10
 104 359 104 359 195 419 c 0,11,12
 207 428 207 428 223 428 c 128,-1,13
 239 428 239 428 263 410 c 1,14,15
 277 396 277 396 279.5 386 c 0,16,17
 285 364 285 364 285 359 c 1,18,19
 320 347 320 347 320 315 c 0,20,21
 320 293.428571429 320 293.428571429 308 215.714285714 c 128,-1,22
 296 138 296 138 294 100 c 1,23,24
 294 79 294 79 308 79 c 0,25,26
 324 79 324 79 365.5 135 c 128,-1,27
 407 191 407 191 413 191 c 0,28,29
 423 191 423 191 423 158 c 1,30,-1
 421 109 l 1,31,32
 421 81 421 81 396 32.5 c 128,-1,33
 371 -16 371 -16 332 -16 c 0,34,35
 307.9 -16 307.9 -16 293.5 0 c 0,36,37
 289 5 289 5 279 20 c 0,38,39
 248 65 248 65 237 132 c 1,0,1
246 363 m 1,40,41
 120 248 120 248 86 100 c 1,42,43
 187 187 187 187 246 363 c 1,40,41
211 483 m 0,44,45
 211 538.428571429 211 538.428571429 293 617.5 c 0,46,47
 307 631 307 631 312.5 637.5 c 128,-1,48
 318 644 318 644 318 653 c 128,-1,49
 318 662 318 662 324 662 c 0,50,51
 348 662 348 662 361.5 634 c 128,-1,52
 375 606 375 606 375 592 c 0,53,54
 375 564 375 564 353 546 c 1,55,56
 343 533 343 533 294 499.5 c 128,-1,57
 245 466 245 466 232.5 466 c 128,-1,58
 220 466 220 466 215.5 472 c 128,-1,59
 211 478 211 478 211 483 c 0,44,45
EndSplineSet
EndChar

StartChar: acircumflex
Encoding: 226 226 61
Width: 418
Flags: HMW
HStem: -16 21G<317.5 348.5> -15 94 -15 206 466 198<210 364>
LayerCount: 2
Fore
SplineSet
237 132 m 1,0,1
 155.333333333 -15 155.333333333 -15 112 -15 c 0,2,3
 81 -15 81 -15 56 23 c 0,4,5
 49 33 49 33 41 54.5 c 128,-1,6
 33 76 33 76 21.5 94 c 128,-1,7
 10 112 10 112 10 142.5 c 128,-1,8
 10 173 10 173 22 197 c 0,9,10
 104 359 104 359 195 419 c 0,11,12
 207 428 207 428 223 428 c 128,-1,13
 239 428 239 428 263 410 c 1,14,15
 277 396 277 396 279.5 386 c 0,16,17
 285 364 285 364 285 359 c 1,18,19
 320 347 320 347 320 315 c 0,20,21
 320 293.428571429 320 293.428571429 308 215.714285714 c 128,-1,22
 296 138 296 138 294 100 c 1,23,24
 294 79 294 79 308 79 c 0,25,26
 324 79 324 79 365.5 135 c 128,-1,27
 407 191 407 191 413 191 c 0,28,29
 423 191 423 191 423 158 c 1,30,-1
 421 109 l 1,31,32
 421 81 421 81 396 32.5 c 128,-1,33
 371 -16 371 -16 332 -16 c 0,34,35
 307.9 -16 307.9 -16 293.5 0 c 0,36,37
 289 5 289 5 279 20 c 0,38,39
 248 65 248 65 237 132 c 1,0,1
246 363 m 1,40,41
 120 248 120 248 86 100 c 1,42,43
 187 187 187 187 246 363 c 1,40,41
372 478 m 0,44,45
 372 466 372 466 357.5 466 c 128,-1,46
 343 466 343 466 328 472 c 128,-1,47
 313 478 313 478 297.5 495.5 c 128,-1,48
 282 513 282 513 276.5 519.5 c 128,-1,49
 271 526 271 526 254 554.5 c 128,-1,50
 237 583 237 583 236 584 c 1,51,52
 215 552 215 552 173.5 512.5 c 128,-1,53
 132 473 132 473 109 473 c 0,54,55
 91 473 91 473 91 496 c 128,-1,56
 91 519.130434783 91 519.130434783 135.5 567.5 c 0,57,58
 158.059233449 592.020905923 158.059233449 592.020905923 174.529616725 617.010452962 c 128,-1,59
 191 642 191 642 201 653 c 128,-1,60
 211 664 211 664 231 664 c 128,-1,61
 251 664 251 664 271 644.5 c 128,-1,62
 291 625 291 625 305.5 594 c 128,-1,63
 320 563 320 563 321.5 560.5 c 128,-1,64
 323 558 323 558 334 543.5 c 128,-1,65
 345 529 345 529 352 519.5 c 0,66,67
 372 492.357142857 372 492.357142857 372 478 c 0,44,45
EndSplineSet
EndChar

StartChar: atilde
Encoding: 227 227 63
Width: 418
Flags: HMW
HStem: -16 21G<317.5 348.5> -15 94 -15 206 482 79<265.5 289.5 260 308.5> 541 20 541 77<158 189>
LayerCount: 2
Fore
SplineSet
237 132 m 1,0,1
 155.333333333 -15 155.333333333 -15 112 -15 c 0,2,3
 81 -15 81 -15 56 23 c 0,4,5
 49 33 49 33 41 54.5 c 128,-1,6
 33 76 33 76 21.5 94 c 128,-1,7
 10 112 10 112 10 142.5 c 128,-1,8
 10 173 10 173 22 197 c 0,9,10
 104 359 104 359 195 419 c 0,11,12
 207 428 207 428 223 428 c 128,-1,13
 239 428 239 428 263 410 c 1,14,15
 277 396 277 396 279.5 386 c 0,16,17
 285 364 285 364 285 359 c 1,18,19
 320 347 320 347 320 315 c 0,20,21
 320 293.428571429 320 293.428571429 308 215.714285714 c 128,-1,22
 296 138 296 138 294 100 c 1,23,24
 294 79 294 79 308 79 c 0,25,26
 324 79 324 79 365.5 135 c 128,-1,27
 407 191 407 191 413 191 c 0,28,29
 423 191 423 191 423 158 c 1,30,-1
 421 109 l 1,31,32
 421 81 421 81 396 32.5 c 128,-1,33
 371 -16 371 -16 332 -16 c 0,34,35
 307.9 -16 307.9 -16 293.5 0 c 0,36,37
 289 5 289 5 279 20 c 0,38,39
 248 65 248 65 237 132 c 1,0,1
246 363 m 1,40,41
 120 248 120 248 86 100 c 1,42,43
 187 187 187 187 246 363 c 1,40,41
227.5 589.5 m 128,-1,45
 263 561 263 561 275 561 c 128,-1,46
 287 561 287 561 296.5 573.5 c 128,-1,47
 306 586 306 586 313 598 c 128,-1,48
 320 610 320 610 332 610 c 128,-1,49
 344 610 344 610 354 591.5 c 128,-1,50
 364 573 364 573 364 557 c 0,51,52
 364 524 364 524 341.5 503 c 128,-1,53
 319 482 319 482 291 482 c 128,-1,54
 263 482 263 482 224.5 511.5 c 128,-1,55
 186 541 186 541 173.5 541 c 128,-1,56
 161 541 161 541 152.5 526 c 128,-1,57
 144 511 144 511 135 496 c 128,-1,58
 126 481 126 481 114 481 c 128,-1,59
 102 481 102 481 95 494.5 c 128,-1,60
 88 508 88 508 88 523 c 0,61,62
 88 560 88 560 115 589 c 128,-1,63
 142 618 142 618 167 618 c 128,-1,44
 192 618 192 618 227.5 589.5 c 128,-1,45
EndSplineSet
EndChar

StartChar: adieresis
Encoding: 228 228 65
Width: 418
Flags: HMW
HStem: -16 21G<317.5 348.5> -15 94 -15 206 496 120<290.5 320.5 289 323.5> 599 20G<134 160>
VStem: 105 98<543.5 561.5 542.5 576.5> 253 111<542 561 542 561.5>
LayerCount: 2
Fore
SplineSet
237 132 m 1,0,1
 155.333333333 -15 155.333333333 -15 112 -15 c 0,2,3
 81 -15 81 -15 56 23 c 0,4,5
 49 33 49 33 41 54.5 c 128,-1,6
 33 76 33 76 21.5 94 c 128,-1,7
 10 112 10 112 10 142.5 c 128,-1,8
 10 173 10 173 22 197 c 0,9,10
 104 359 104 359 195 419 c 0,11,12
 207 428 207 428 223 428 c 128,-1,13
 239 428 239 428 263 410 c 1,14,15
 277 396 277 396 279.5 386 c 0,16,17
 285 364 285 364 285 359 c 1,18,19
 320 347 320 347 320 315 c 0,20,21
 320 293.428571429 320 293.428571429 308 215.714285714 c 128,-1,22
 296 138 296 138 294 100 c 1,23,24
 294 79 294 79 308 79 c 0,25,26
 324 79 324 79 365.5 135 c 128,-1,27
 407 191 407 191 413 191 c 0,28,29
 423 191 423 191 423 158 c 1,30,-1
 421 109 l 1,31,32
 421 81 421 81 396 32.5 c 128,-1,33
 371 -16 371 -16 332 -16 c 0,34,35
 307.9 -16 307.9 -16 293.5 0 c 0,36,37
 289 5 289 5 279 20 c 0,38,39
 248 65 248 65 237 132 c 1,0,1
246 363 m 1,40,41
 120 248 120 248 86 100 c 1,42,43
 187 187 187 187 246 363 c 1,40,41
361 578 m 0,44,45
 364 567 364 567 364 550 c 128,-1,46
 364 533 364 533 348 514.5 c 128,-1,47
 332 496 332 496 307.5 496 c 128,-1,48
 283 496 283 496 268 511.5 c 128,-1,49
 253 527 253 527 253 550 c 128,-1,50
 253 573 253 573 267 594.5 c 128,-1,51
 281 616 281 616 315 616 c 128,-1,52
 349 616 349 616 361 578 c 0,44,45
152 619 m 0,53,54
 170 619 170 619 186.5 601.5 c 128,-1,55
 203 584 203 584 203 558.5 c 128,-1,56
 203 533 203 533 189.5 514.5 c 128,-1,57
 176 496 176 496 154.5 496 c 128,-1,58
 133 496 133 496 119 515.5 c 128,-1,59
 105 535 105 535 105 563 c 0,60,61
 105 619 105 619 152 619 c 0,53,54
EndSplineSet
EndChar

StartChar: aring
Encoding: 229 229 67
Width: 418
Flags: HMW
HStem: -16 21G<317.5 348.5> -15 94 -15 206 456 77<213.5 248 213.5 281.5> 692 20G<253 288.5>
VStem: 110 65<566 606 566 611.5> 293 70<581.5 612>
LayerCount: 2
Fore
SplineSet
237 132 m 1,0,1
 155.333333333 -15 155.333333333 -15 112 -15 c 0,2,3
 81 -15 81 -15 56 23 c 0,4,5
 49 33 49 33 41 54.5 c 128,-1,6
 33 76 33 76 21.5 94 c 128,-1,7
 10 112 10 112 10 142.5 c 128,-1,8
 10 173 10 173 22 197 c 0,9,10
 104 359 104 359 195 419 c 0,11,12
 207 428 207 428 223 428 c 128,-1,13
 239 428 239 428 263 410 c 1,14,15
 277 396 277 396 279.5 386 c 0,16,17
 285 364 285 364 285 359 c 1,18,19
 320 347 320 347 320 315 c 0,20,21
 320 293.428571429 320 293.428571429 308 215.714285714 c 128,-1,22
 296 138 296 138 294 100 c 1,23,24
 294 79 294 79 308 79 c 0,25,26
 324 79 324 79 365.5 135 c 128,-1,27
 407 191 407 191 413 191 c 0,28,29
 423 191 423 191 423 158 c 1,30,-1
 421 109 l 1,31,32
 421 81 421 81 396 32.5 c 128,-1,33
 371 -16 371 -16 332 -16 c 0,34,35
 307.9 -16 307.9 -16 293.5 0 c 0,36,37
 289 5 289 5 279 20 c 0,38,39
 248 65 248 65 237 132 c 1,0,1
246 363 m 1,40,41
 120 248 120 248 86 100 c 1,42,43
 187 187 187 187 246 363 c 1,40,41
262 712 m 0,44,45
 303 712 303 712 333 679.5 c 128,-1,46
 363 647 363 647 363 601 c 0,47,48
 363 562.214285714 363 562.214285714 336 514 c 0,49,50
 322 489 322 489 293.5 472.5 c 128,-1,51
 265 456 265 456 228 456 c 0,52,53
 169 456 169 456 139.5 500 c 128,-1,54
 110 544 110 544 110 586 c 0,55,56
 110 663 110 663 204 700 c 1,57,-1
 204 701 l 2,58,59
 204 712 204 712 262 712 c 0,44,45
225 647 m 1,60,61
 208 647 208 647 191.5 630 c 128,-1,62
 175 613 175 613 175 588 c 0,63,64
 175 533 175 533 226 533 c 0,65,66
 257 533 257 533 275 552 c 128,-1,67
 293 571 293 571 293 596 c 0,68,69
 293 611 293 611 287 617 c 128,-1,70
 281 623 281 623 277.5 626 c 128,-1,71
 274 629 274 629 266 632.5 c 128,-1,72
 258 636 258 636 254 637.5 c 0,73,74
 236 644.25 236 644.25 225 647 c 1,60,61
EndSplineSet
EndChar

StartChar: AE
Encoding: 198 198 68
Width: 873
Flags: HMW
HStem: -56 117<189.5 217 153 234.5> -36 70<563 586.5 541.5 634> 152 55<693 714.5> 208 82<204.5 237 237 246 194.5 301> 690 20G<764 778.5>
VStem: -30 31<160 171 152.5 188> 373 156<631 641.5 612 657 612 675> 411 84<116.5 120 84.5 146> 442 66 442 124 729 119<91.5 121>
LayerCount: 2
Fore
SplineSet
231 290 m 1,0,-1
 321 288 l 1,1,-1
 324 288 l 1,2,3
 326 296 326 296 329.5 319 c 128,-1,4
 333 342 333 342 335 350 c 0,5,6
 373 536 373 536 373 631 c 2,7,-1
 373 657 l 2,8,9
 373 674 373 674 381.5 682.5 c 128,-1,10
 390 691 390 691 399.5 692.5 c 128,-1,11
 409 694 409 694 437.5 694 c 128,-1,12
 466 694 466 694 497.5 673 c 128,-1,13
 529 652 529 652 529 616 c 0,14,15
 529 609 529 609 526.5 589.5 c 128,-1,16
 524 570 524 570 520 531 c 1,17,18
 532 560 532 560 557.5 582 c 128,-1,19
 583 604 583 604 612.5 623 c 128,-1,20
 642 642 642 642 683 665.5 c 128,-1,21
 724 689 724 689 740 699.5 c 128,-1,22
 756 710 756 710 774 710 c 128,-1,23
 792 710 792 710 815 683 c 1,24,25
 827 685 827 685 832 685 c 0,26,27
 855 685 855 685 865 665 c 1,28,29
 873 646 873 646 873 640 c 0,30,31
 873 604 873 604 720 543 c 0,32,33
 714 541 714 541 712 541 c 0,34,35
 706 541 706 541 706 549.5 c 128,-1,36
 706 558 706 558 716 588 c 1,37,-1
 683 571.5 l 2,38,39
 624.727272727 542.363636364 624.727272727 542.363636364 612.363636364 527.681818182 c 0,40,41
 588.187919463 498.973154362 588.187919463 498.973154362 577.093959732 474.986577181 c 128,-1,42
 566 451 566 451 566 443 c 0,43,44
 566 409 566 409 705 409 c 2,45,-1
 722 409 l 1,46,47
 749 424 749 424 756 424 c 0,48,49
 773 424 773 424 798.5 396.5 c 128,-1,50
 824 369 824 369 824 333 c 0,51,52
 824 321 824 321 811 321 c 0,53,54
 807 321 807 321 774 327 c 1,55,56
 764 324 764 324 736.5 316 c 128,-1,57
 709 308 709 308 699 305 c 128,-1,58
 689 302 689 302 666 294 c 128,-1,59
 643 286 643 286 632.5 280.5 c 128,-1,60
 622 275 622 275 603.5 265 c 128,-1,61
 585 255 585 255 573.5 244 c 0,62,63
 535.32 207.48 535.32 207.48 521 186 c 0,64,65
 495 150 495 150 495 111.5 c 128,-1,66
 495 73 495 73 513 53.5 c 128,-1,67
 531 34 531 34 572.5 34 c 128,-1,68
 614 34 614 34 671.5 54.5 c 128,-1,69
 729 75 729 75 729 114 c 0,70,71
 729 127 729 127 723 139.5 c 128,-1,72
 717 152 717 152 703.5 152 c 128,-1,73
 690 152 690 152 621.5 111.5 c 128,-1,74
 553 71 553 71 549 71 c 128,-1,75
 545 71 545 71 545 77.5 c 128,-1,76
 545 84 545 84 552 100 c 1,77,78
 578 149 578 149 626 178 c 128,-1,79
 674 207 674 207 725.5 207 c 128,-1,80
 777 207 777 207 812.5 177 c 128,-1,81
 848 147 848 147 848 108.5 c 128,-1,82
 848 70 848 70 828 44 c 0,83,84
 767 -36 767 -36 596 -36 c 0,85,86
 490 -36 490 -36 439 46 c 1,87,88
 411 89 411 89 411 126.5 c 128,-1,89
 411 164 411 164 430 213 c 1,90,91
 406 209 406 209 374 209 c 1,92,93
 354 117 354 117 340 67 c 128,-1,94
 326 17 326 17 288.5 -19.5 c 128,-1,95
 251 -56 251 -56 196 -56 c 0,96,97
 180 -56 180 -56 158 -51 c 0,98,99
 29 -16 29 -16 -18 112 c 0,100,101
 -30 145 -30 145 -30 170 c 0,102,103
 -30 230 -30 230 20 252 c 0,104,105
 104 290 104 290 231 290 c 1,0,-1
301 208 m 1,106,-1
 237 208 l 2,107,108
 119 208 119 208 42 190 c 1,109,110
 1 182 1 182 1 161 c 0,111,112
 1 144 1 144 28 117 c 128,-1,113
 55 90 55 90 98 75.5 c 128,-1,114
 141 61 141 61 170 61 c 128,-1,115
 199 61 199 61 218.5 71 c 128,-1,116
 238 81 238 81 249.5 92 c 128,-1,117
 261 103 261 103 272.5 128.5 c 0,118,119
 286.38961039 159.298701299 286.38961039 159.298701299 301 208 c 1,106,-1
450 298 m 1,120,121
 447 375 447 375 442 577 c 1,122,123
 434 531 434 531 417.5 433.5 c 128,-1,124
 401 336 401 336 393 290 c 1,125,126
 431 294 431 294 450 298 c 1,120,121
514 460 m 1,127,128
 505.84 323.32 505.84 323.32 509 317 c 1,129,130
 542 341 542 341 609 365 c 1,131,132
 528 391 528 391 514 460 c 1,127,128
EndSplineSet
EndChar

StartChar: ae
Encoding: 230 230 69
Width: 524
Flags: HMW
HStem: -20 104<308.5 338.5 277 400.5> -15 21G<100.5 128.5> 170 83<336.5 348> 412 20G<408 442>
VStem: 10 239<133.5 140.5 111.5 153>
LayerCount: 2
Fore
SplineSet
504 132 m 0,0,1
 504 -20 504 -20 350 -20 c 0,2,3
 292 -20 292 -20 262 7.5 c 128,-1,4
 232 35 232 35 213 90 c 1,5,6
 151 -15 151 -15 112 -15 c 0,7,8
 81 -15 81 -15 56 23 c 0,9,10
 49 33 49 33 41 54.5 c 128,-1,11
 33 76 33 76 21.5 94 c 128,-1,12
 10 112 10 112 10 142.5 c 128,-1,13
 10 173 10 173 22 197 c 0,14,15
 104 359 104 359 195 419 c 0,16,17
 207 428 207 428 223 428 c 128,-1,18
 239 428 239 428 263 410 c 1,19,20
 277 396 277 396 279.5 386 c 0,21,22
 285 364 285 364 285 359 c 1,23,24
 291 390 291 390 307 390 c 0,25,26
 318 390 318 390 322 377 c 1,27,28
 343 396 343 396 373 414 c 128,-1,29
 403 432 403 432 427 432 c 128,-1,30
 451 432 451 432 476.5 404 c 128,-1,31
 502 376 502 376 502 346.5 c 128,-1,32
 502 317 502 317 460.5 265.5 c 0,33,34
 383.54368932 170 383.54368932 170 340 170 c 0,35,36
 308 170 308 170 290 223 c 1,37,38
 289 221 289 221 280.5 206.5 c 128,-1,39
 272 192 272 192 268.5 185 c 128,-1,40
 265 178 265 178 259.5 166 c 0,41,42
 249 143.090909091 249 143.090909091 249 125 c 0,43,44
 249 84 249 84 290 84 c 0,45,46
 358 84 358 84 405.5 112.5 c 128,-1,47
 453 141 453 141 500 199 c 1,48,49
 504 155 504 155 504 132 c 0,0,1
246 363 m 1,50,51
 120 248 120 248 86 100 c 1,52,53
 187 187 187 187 246 363 c 1,50,51
388.5 292 m 128,-1,55
 420 331 420 331 420 345.5 c 128,-1,56
 420 360 420 360 409.5 360 c 128,-1,57
 399 360 399 360 373.5 334 c 128,-1,58
 348 308 348 308 333 289 c 1,59,60
 331 277 331 277 331 271 c 0,61,62
 331 253 331 253 341 253 c 0,63,54
 357 253 357 253 388.5 292 c 128,-1,55
EndSplineSet
EndChar

StartChar: aeacute
Encoding: 509 509 71
Width: 524
Flags: HMW
HStem: -20 104<308.5 338.5 277 400.5> -15 21G<100.5 128.5> 170 83<336.5 348> 646 20G<416 436.5>
VStem: 10 239<133.5 140.5 111.5 153> 305 164<485 599.5> 420 84
LayerCount: 2
Fore
SplineSet
504 132 m 0,0,1
 504 -20 504 -20 350 -20 c 0,2,3
 292 -20 292 -20 262 7.5 c 128,-1,4
 232 35 232 35 213 90 c 1,5,6
 151 -15 151 -15 112 -15 c 0,7,8
 81 -15 81 -15 56 23 c 0,9,10
 49 33 49 33 41 54.5 c 128,-1,11
 33 76 33 76 21.5 94 c 128,-1,12
 10 112 10 112 10 142.5 c 128,-1,13
 10 173 10 173 22 197 c 0,14,15
 104 359 104 359 195 419 c 0,16,17
 207 428 207 428 223 428 c 128,-1,18
 239 428 239 428 263 410 c 1,19,20
 277 396 277 396 279.5 386 c 0,21,22
 285 364 285 364 285 359 c 1,23,24
 291 390 291 390 307 390 c 0,25,26
 318 390 318 390 322 377 c 1,27,28
 343 396 343 396 373 414 c 128,-1,29
 403 432 403 432 427 432 c 128,-1,30
 451 432 451 432 476.5 404 c 128,-1,31
 502 376 502 376 502 346.5 c 128,-1,32
 502 317 502 317 460.5 265.5 c 0,33,34
 383.54368932 170 383.54368932 170 340 170 c 0,35,36
 308 170 308 170 290 223 c 1,37,38
 289 221 289 221 280.5 206.5 c 128,-1,39
 272 192 272 192 268.5 185 c 128,-1,40
 265 178 265 178 259.5 166 c 0,41,42
 249 143.090909091 249 143.090909091 249 125 c 0,43,44
 249 84 249 84 290 84 c 0,45,46
 358 84 358 84 405.5 112.5 c 128,-1,47
 453 141 453 141 500 199 c 1,48,49
 504 155 504 155 504 132 c 0,0,1
246 363 m 1,50,51
 120 248 120 248 86 100 c 1,52,53
 187 187 187 187 246 363 c 1,50,51
388.5 292 m 128,-1,55
 420 331 420 331 420 345.5 c 128,-1,56
 420 360 420 360 409.5 360 c 128,-1,57
 399 360 399 360 373.5 334 c 128,-1,58
 348 308 348 308 333 289 c 1,59,60
 331 277 331 277 331 271 c 0,61,62
 331 253 331 253 341 253 c 0,63,54
 357 253 357 253 388.5 292 c 128,-1,55
305 487 m 0,64,65
 305 542.428571429 305 542.428571429 387 621.5 c 0,66,67
 401 635 401 635 406.5 641.5 c 128,-1,68
 412 648 412 648 412 657 c 128,-1,69
 412 666 412 666 418 666 c 0,70,71
 442 666 442 666 455.5 638 c 128,-1,72
 469 610 469 610 469 596 c 0,73,74
 469 568 469 568 447 550 c 1,75,76
 437 537 437 537 388 503.5 c 128,-1,77
 339 470 339 470 326.5 470 c 128,-1,78
 314 470 314 470 309.5 476 c 128,-1,79
 305 482 305 482 305 487 c 0,64,65
EndSplineSet
EndChar

StartChar: amacron
Encoding: 257 257 73
Width: 418
Flags: HMW
HStem: -16 21G<317.5 348.5> -15 94 -15 206 506 81<122 250.5> 506 86<122 151 120 154> 581 20G<330.5 340>
VStem: 106 249<530.5 564 530.5 575.5>
LayerCount: 2
Fore
SplineSet
237 132 m 1,0,1
 155.333333333 -15 155.333333333 -15 112 -15 c 0,2,3
 81 -15 81 -15 56 23 c 0,4,5
 49 33 49 33 41 54.5 c 128,-1,6
 33 76 33 76 21.5 94 c 128,-1,7
 10 112 10 112 10 142.5 c 128,-1,8
 10 173 10 173 22 197 c 0,9,10
 104 359 104 359 195 419 c 0,11,12
 207 428 207 428 223 428 c 128,-1,13
 239 428 239 428 263 410 c 1,14,15
 277 396 277 396 279.5 386 c 0,16,17
 285 364 285 364 285 359 c 1,18,19
 320 347 320 347 320 315 c 0,20,21
 320 293.428571429 320 293.428571429 308 215.714285714 c 128,-1,22
 296 138 296 138 294 100 c 1,23,24
 294 79 294 79 308 79 c 0,25,26
 324 79 324 79 365.5 135 c 128,-1,27
 407 191 407 191 413 191 c 0,28,29
 423 191 423 191 423 158 c 1,30,-1
 421 109 l 1,31,32
 421 81 421 81 396 32.5 c 128,-1,33
 371 -16 371 -16 332 -16 c 0,34,35
 307.9 -16 307.9 -16 293.5 0 c 0,36,37
 289 5 289 5 279 20 c 0,38,39
 248 65 248 65 237 132 c 1,0,1
246 363 m 1,40,41
 120 248 120 248 86 100 c 1,42,43
 187 187 187 187 246 363 c 1,40,41
127 592 m 2,44,-1
 232 587 l 1,45,46
 275 587 275 587 300.5 594 c 128,-1,47
 326 601 326 601 332 601 c 0,48,49
 342 601 342 601 348.5 582 c 128,-1,50
 355 563 355 563 355 550 c 128,-1,51
 355 537 355 537 346.5 527.5 c 128,-1,52
 338 518 338 518 319.5 515 c 0,53,54
 294.833333333 511 294.833333333 511 261 511 c 1,55,-1
 129 506 l 2,56,57
 117 506 117 506 106 556 c 1,58,-1
 106 564 l 2,59,60
 106 580 106 580 111 586 c 128,-1,61
 116 592 116 592 127 592 c 2,44,-1
EndSplineSet
EndChar

StartChar: abreve
Encoding: 259 259 75
Width: 418
Flags: HMW
HStem: -16 21G<317.5 348.5> -15 94 -15 206 476 79<195 249.5 178 286.5> 476 171<195 341.5>
LayerCount: 2
Fore
SplineSet
237 132 m 1,0,1
 155.333333333 -15 155.333333333 -15 112 -15 c 0,2,3
 81 -15 81 -15 56 23 c 0,4,5
 49 33 49 33 41 54.5 c 128,-1,6
 33 76 33 76 21.5 94 c 128,-1,7
 10 112 10 112 10 142.5 c 128,-1,8
 10 173 10 173 22 197 c 0,9,10
 104 359 104 359 195 419 c 0,11,12
 207 428 207 428 223 428 c 128,-1,13
 239 428 239 428 263 410 c 1,14,15
 277 396 277 396 279.5 386 c 0,16,17
 285 364 285 364 285 359 c 1,18,19
 320 347 320 347 320 315 c 0,20,21
 320 293.428571429 320 293.428571429 308 215.714285714 c 128,-1,22
 296 138 296 138 294 100 c 1,23,24
 294 79 294 79 308 79 c 0,25,26
 324 79 324 79 365.5 135 c 128,-1,27
 407 191 407 191 413 191 c 0,28,29
 423 191 423 191 423 158 c 1,30,-1
 421 109 l 1,31,32
 421 81 421 81 396 32.5 c 128,-1,33
 371 -16 371 -16 332 -16 c 0,34,35
 307.9 -16 307.9 -16 293.5 0 c 0,36,37
 289 5 289 5 279 20 c 0,38,39
 248 65 248 65 237 132 c 1,0,1
246 363 m 1,40,41
 120 248 120 248 86 100 c 1,42,43
 187 187 187 187 246 363 c 1,40,41
83 644 m 0,44,45
 102 644 102 644 120.5 622 c 128,-1,46
 139 600 139 600 161 577.5 c 128,-1,47
 183 555 183 555 210 555 c 128,-1,48
 237 555 237 555 256.5 569.5 c 128,-1,49
 276 584 276 584 285 601 c 0,50,51
 309.352941176 647 309.352941176 647 335 647 c 0,52,53
 344 647 344 647 357.5 632.5 c 128,-1,54
 371 618 371 618 371 611 c 0,55,56
 371 579 371 579 335 527.5 c 128,-1,57
 299 476 299 476 238.5 476 c 128,-1,58
 178 476 178 476 124 533 c 128,-1,59
 70 590 70 590 70 626 c 0,60,61
 70 644 70 644 83 644 c 0,44,45
EndSplineSet
EndChar

StartChar: Aogonek
Encoding: 260 260 76
Width: 601
Flags: HMW
HStem: -242 94<504.5 533 504 559.5> -242 137<504.5 645> -56 117<189.5 217 153 234.5> 208 93<204.5 237 237 246 194.5 301> 674 20G<413 450.5>
VStem: -30 31<160 171 152.5 188> 373 156<631 641.5 612 657 612 675> 450 58 450 151
LayerCount: 2
Fore
SplineSet
324 299 m 1,0,1
 373 519.5 373 519.5 373 631 c 2,2,-1
 373 657 l 2,3,4
 373 674 373 674 381.5 682.5 c 128,-1,5
 390 691 390 691 399.5 692.5 c 128,-1,6
 409 694 409 694 437.5 694 c 128,-1,7
 466 694 466 694 497.5 673 c 128,-1,8
 529 652 529 652 529 616 c 0,9,10
 529 609 529 609 520 529 c 128,-1,11
 511 449 511 449 508 324 c 1,12,13
 542 338 542 338 562.5 353.5 c 128,-1,14
 583 369 583 369 590 369 c 0,15,16
 601 369 601 369 601 348.5 c 128,-1,17
 601 328 601 328 570 296.5 c 128,-1,18
 539 265 539 265 508 245 c 1,19,20
 508 223 508 223 510 175 c 1,21,22
 513 177 513 177 518.5 177 c 128,-1,23
 524 177 524 177 529.5 174 c 128,-1,24
 535 171 535 171 539.5 167 c 128,-1,25
 544 163 544 163 550 155.5 c 128,-1,26
 556 148 556 148 559 144 c 128,-1,27
 562 140 562 140 567 132.5 c 128,-1,28
 572 125 572 125 573 124 c 0,29,30
 591 97 591 97 591 81.5 c 128,-1,31
 591 66 591 66 585 46 c 1,32,33
 577 33 577 33 543 -9.5 c 0,34,35
 490 -75.75 490 -75.75 490 -120 c 0,36,37
 490 -140 490 -140 504 -148 c 1,38,39
 536 -148 536 -148 581.5 -126.5 c 128,-1,40
 627 -105 627 -105 639 -105 c 0,41,42
 647 -105 647 -105 654 -125 c 128,-1,43
 661 -145 661 -145 661 -157 c 1,44,45
 652 -195 652 -195 615 -218.5 c 128,-1,46
 578 -242 578 -242 519 -242 c 0,47,48
 492 -242 492 -242 456.5 -207.5 c 128,-1,49
 421 -173 421 -173 421 -138.5 c 128,-1,50
 421 -104 421 -104 440.5 -58.5 c 128,-1,51
 460 -13 460 -13 480 11 c 1,52,53
 468 14 468 14 464 68 c 128,-1,54
 460 122 460 122 454 220 c 1,55,56
 428 211 428 211 374 209 c 1,57,58
 358 137 358 137 341.5 76.5 c 128,-1,59
 325 16 325 16 287.5 -20 c 128,-1,60
 250 -56 250 -56 196 -56 c 0,61,62
 180 -56 180 -56 158 -51 c 0,63,64
 29 -16 29 -16 -18 112 c 0,65,66
 -30 145 -30 145 -30 170 c 0,67,68
 -30 230 -30 230 20 252 c 0,69,70
 128 301 128 301 231 301 c 1,71,-1
 321 299 l 1,72,-1
 324 299 l 1,0,1
301 208 m 1,73,-1
 237 208 l 2,74,75
 119 208 119 208 42 190 c 1,76,77
 1 182 1 182 1 161 c 0,78,79
 1 144 1 144 28 117 c 128,-1,80
 55 90 55 90 98 75.5 c 128,-1,81
 141 61 141 61 170 61 c 128,-1,82
 199 61 199 61 218.5 71 c 128,-1,83
 238 81 238 81 249.5 92 c 128,-1,84
 261 103 261 103 272.5 128.5 c 0,85,86
 286.38961039 159.298701299 286.38961039 159.298701299 301 208 c 1,73,-1
450 309 m 1,87,88
 446 397 446 397 442 577 c 1,89,90
 434 531 434 531 417.5 439 c 128,-1,91
 401 347 401 347 393 301 c 1,92,93
 431 305 431 305 450 309 c 1,87,88
EndSplineSet
EndChar

StartChar: aogonek
Encoding: 261 261 77
Width: 418
Flags: HMW
HStem: -222 94<306.5 335 306 361.5> -222 137<306.5 447> -15 21G<100.5 135> 408 20G<216.5 228.5>
VStem: 223 69<-106 -94> 223 198<-117.5 117.5>
LayerCount: 2
Fore
SplineSet
423 158 m 1,0,-1
 421 109 l 2,1,2
 421 85 421 85 401 57 c 128,-1,3
 381 29 381 29 356.5 7.5 c 128,-1,4
 332 -14 332 -14 312 -43.5 c 128,-1,5
 292 -73 292 -73 292 -96.5 c 128,-1,6
 292 -120 292 -120 306 -128 c 1,7,8
 338 -128 338 -128 383.5 -106.5 c 128,-1,9
 429 -85 429 -85 441 -85 c 0,10,11
 449 -85 449 -85 456 -105 c 128,-1,12
 463 -125 463 -125 463 -137 c 1,13,14
 454 -175 454 -175 417 -198.5 c 128,-1,15
 380 -222 380 -222 321 -222 c 0,16,17
 294 -222 294 -222 258.5 -187.5 c 128,-1,18
 223 -153 223 -153 223 -119.5 c 128,-1,19
 223 -86 223 -86 241 -48.5 c 128,-1,20
 259 -11 259 -11 282 15 c 1,21,22
 281 16 281 16 279 20 c 0,23,24
 248 65 248 65 237 132 c 1,25,26
 155.333333333 -15 155.333333333 -15 112 -15 c 0,27,28
 81 -15 81 -15 56 23 c 0,29,30
 49 33 49 33 41 54.5 c 128,-1,31
 33 76 33 76 21.5 94 c 128,-1,32
 10 112 10 112 10 142.5 c 128,-1,33
 10 173 10 173 22 197 c 0,34,35
 104 359 104 359 195 419 c 0,36,37
 207 428 207 428 223 428 c 128,-1,38
 239 428 239 428 263 410 c 1,39,40
 277 396 277 396 279.5 386 c 0,41,42
 285 364 285 364 285 359 c 1,43,44
 320 347 320 347 320 315 c 1,45,-1
 319 300 l 2,46,47
 317 273 317 273 306.5 206 c 128,-1,48
 296 139 296 139 294 103 c 1,49,-1
 294 100 l 2,50,51
 294 79 294 79 308 79 c 0,52,53
 324 79 324 79 365.5 135 c 128,-1,54
 407 191 407 191 413 191 c 0,55,56
 423 191 423 191 423 158 c 1,0,-1
246 363 m 1,57,58
 120 248 120 248 86 100 c 1,59,60
 187 187 187 187 246 363 c 1,57,58
EndSplineSet
EndChar

StartChar: Ccedilla
Encoding: 199 199 78
Width: 384
Flags: HMW
HStem: -289 83<127.5 196.5> -206 173<127.5 212.5> 705 20G<237 243>
VStem: 30 100<193.5 253.5 168 293.5> 98 70 240 66<-173 -171 -171 -171> 240 104
LayerCount: 2
Fore
SplineSet
240 -171 m 1,0,1
 235.13740458 -156.41221374 235.13740458 -156.41221374 169 -138.5 c 0,2,3
 145 -132 145 -132 125.5 -113 c 128,-1,4
 106 -94 106 -94 106 -65 c 128,-1,5
 106 -36 106 -36 121 -15 c 1,6,7
 66 12 66 12 49 78 c 1,8,9
 30 144 30 144 30 217 c 0,10,11
 30 326 30 326 74 447 c 128,-1,12
 118 568 118 568 186 668 c 1,13,14
 196 680 196 680 201 680 c 128,-1,15
 206 680 206 680 212.5 677 c 128,-1,16
 219 674 219 674 226.5 670 c 128,-1,17
 234 666 234 666 237 665 c 1,18,-1
 237 695 l 1,19,20
 231 707 231 707 231 716 c 128,-1,21
 231 725 231 725 240 725 c 0,22,23
 241 725 241 725 256 722 c 1,24,25
 344 691 344 691 344 578 c 0,26,27
 344 503 344 503 311 445 c 0,28,29
 301 427 301 427 295.5 427 c 128,-1,30
 290 427 290 427 280 443 c 1,31,32
 248 509 248 509 239 614 c 1,33,34
 224 614 224 614 217 603 c 128,-1,35
 210 592 210 592 193 545 c 0,36,37
 130 375 130 375 130 196 c 0,38,39
 130 97 130 97 152 27 c 1,40,41
 217 88 217 88 264.5 178.5 c 128,-1,42
 312 269 312 269 335 364 c 1,43,44
 359 285 359 285 359 224 c 0,45,46
 359 94 359 94 259 -11 c 0,47,48
 238 -33 238 -33 201 -33 c 0,49,50
 192 -33 192 -33 174 -31 c 1,51,52
 168 -40 168 -40 168 -52.5 c 128,-1,53
 168 -65 168 -65 189.5 -72 c 128,-1,54
 211 -79 211 -79 237 -84 c 128,-1,55
 263 -89 263 -89 284.5 -110.5 c 128,-1,56
 306 -132 306 -132 306 -169 c 0,57,58
 306 -232 306 -232 264.5 -260.5 c 128,-1,59
 223 -289 223 -289 158 -289 c 0,60,61
 137 -289 137 -289 126.5 -287 c 128,-1,62
 116 -285 116 -285 107 -271.5 c 128,-1,63
 98 -258 98 -258 98 -228 c 128,-1,64
 98 -198 98 -198 119 -198 c 0,65,66
 123 -198 123 -198 125.5 -202 c 128,-1,67
 128 -206 128 -206 130 -206 c 0,68,69
 204.848484848 -200.090909091 204.848484848 -200.090909091 230 -185 c 0,70,71
 240 -179 240 -179 240 -173 c 2,72,-1
 240 -171 l 1,0,1
EndSplineSet
EndChar

StartChar: ccedilla
Encoding: 231 231 79
Width: 277
Flags: HMW
HStem: -279 83<74.5 143.5> -22 89<80 124 80 120> 227 227<171 206>
VStem: 15 51<95 207> 15 226<134 392.5> 45 70 45 208<-249.5 -104>
LayerCount: 2
Fore
SplineSet
187 -161 m 1,0,1
 182.13740458 -146.41221374 182.13740458 -146.41221374 116 -128.5 c 0,2,3
 92 -122 92 -122 72.5 -103 c 128,-1,4
 53 -84 53 -84 53 -52 c 128,-1,5
 53 -20 53 -20 72 0 c 1,6,7
 45 26 45 26 30 72 c 128,-1,8
 15 118 15 118 15 156 c 0,9,10
 15 234 15 234 51.5 314 c 128,-1,11
 88 394 88 394 147 442 c 1,12,13
 160 454 160 454 180 454 c 128,-1,14
 200 454 200 454 227 431 c 0,15,16
 241 418 241 418 241 377 c 128,-1,17
 241 336 241 336 217 249 c 0,18,19
 211 227 211 227 201 227 c 0,20,21
 181.941176471 227 181.941176471 227 172.5 334 c 0,22,23
 171 351 171 351 170 355 c 1,24,25
 74 248 74 248 66 100 c 1,26,-1
 66 95 l 1,27,28
 65 84 65 84 71 75.5 c 128,-1,29
 77 67 77 67 87 67 c 128,-1,30
 97 67 97 67 109 71 c 128,-1,31
 121 75 121 75 131.5 80.5 c 128,-1,32
 142 86 142 86 157 96.5 c 128,-1,33
 172 107 172 107 182 114.5 c 128,-1,34
 192 122 192 122 207.5 135 c 128,-1,35
 223 148 223 148 230 154.5 c 128,-1,36
 237 161 237 161 251 173.5 c 128,-1,37
 265 186 265 186 267 188 c 1,38,39
 269 179 269 179 269 162 c 0,40,41
 269 98 269 98 228 38 c 128,-1,42
 187 -22 187 -22 124 -22 c 2,43,-1
 120 -22 l 1,44,45
 115 -32 115 -32 115 -42 c 0,46,47
 115 -55 115 -55 136.5 -62 c 128,-1,48
 158 -69 158 -69 184 -74 c 128,-1,49
 210 -79 210 -79 231.5 -100.5 c 128,-1,50
 253 -122 253 -122 253 -159 c 0,51,52
 253 -222 253 -222 211.5 -250.5 c 128,-1,53
 170 -279 170 -279 105 -279 c 0,54,55
 84 -279 84 -279 73.5 -277 c 128,-1,56
 63 -275 63 -275 54 -261.5 c 128,-1,57
 45 -248 45 -248 45 -218 c 128,-1,58
 45 -188 45 -188 66 -188 c 0,59,60
 70 -188 70 -188 72.5 -192 c 128,-1,61
 75 -196 75 -196 77 -196 c 0,62,63
 151.848484848 -190.090909091 151.848484848 -190.090909091 177 -175 c 0,64,65
 187 -169 187 -169 187 -163 c 2,66,-1
 187 -161 l 1,0,1
EndSplineSet
EndChar

StartChar: cacute
Encoding: 263 263 81
Width: 277
Flags: HMW
HStem: -22 89<86.5 113 80 169.5> 227 227<171 206> 668 20G<279 299.5>
VStem: 15 51<126 142.5 90.5 207> 15 226<126 392.5> 168 164<507 621.5>
LayerCount: 2
Fore
SplineSet
269 162 m 0,0,1
 269 98 269 98 228 38 c 128,-1,2
 187 -22 187 -22 124 -22 c 0,3,4
 74 -22 74 -22 44.5 38.5 c 128,-1,5
 15 99 15 99 15 166.5 c 128,-1,6
 15 234 15 234 51.5 314 c 128,-1,7
 88 394 88 394 147 442 c 1,8,9
 160 454 160 454 180 454 c 128,-1,10
 200 454 200 454 227 431 c 0,11,12
 241 418 241 418 241 377 c 128,-1,13
 241 336 241 336 217 249 c 0,14,15
 211 227 211 227 201 227 c 0,16,17
 181.941176471 227 181.941176471 227 172.5 334 c 0,18,19
 171 351 171 351 170 355 c 1,20,21
 121 301 121 301 93.5 232.5 c 128,-1,22
 66 164 66 164 66 100 c 0,23,24
 66 67 66 67 88 67 c 0,25,26
 126.423076923 67 126.423076923 67 207.5 135 c 0,27,28
 223 148 223 148 230 154.5 c 128,-1,29
 237 161 237 161 251 173.5 c 128,-1,30
 265 186 265 186 267 188 c 1,31,32
 269 179 269 179 269 162 c 0,0,1
168 509 m 0,33,34
 168 564.428571429 168 564.428571429 250 643.5 c 0,35,36
 264 657 264 657 269.5 663.5 c 128,-1,37
 275 670 275 670 275 679 c 128,-1,38
 275 688 275 688 281 688 c 0,39,40
 305 688 305 688 318.5 660 c 128,-1,41
 332 632 332 632 332 618 c 0,42,43
 332 590 332 590 310 572 c 1,44,45
 300 559 300 559 251 525.5 c 128,-1,46
 202 492 202 492 189.5 492 c 128,-1,47
 177 492 177 492 172.5 498 c 128,-1,48
 168 504 168 504 168 509 c 0,33,34
EndSplineSet
EndChar

StartChar: ccircumflex
Encoding: 265 265 83
Width: 277
Flags: HMW
HStem: -22 89<86.5 113 80 169.5> 227 227<171 206> 492 198<167 321>
VStem: 15 51<126 142.5 90.5 207> 15 226<126 392.5>
LayerCount: 2
Fore
SplineSet
269 162 m 0,0,1
 269 98 269 98 228 38 c 128,-1,2
 187 -22 187 -22 124 -22 c 0,3,4
 74 -22 74 -22 44.5 38.5 c 128,-1,5
 15 99 15 99 15 166.5 c 128,-1,6
 15 234 15 234 51.5 314 c 128,-1,7
 88 394 88 394 147 442 c 1,8,9
 160 454 160 454 180 454 c 128,-1,10
 200 454 200 454 227 431 c 0,11,12
 241 418 241 418 241 377 c 128,-1,13
 241 336 241 336 217 249 c 0,14,15
 211 227 211 227 201 227 c 0,16,17
 181.941176471 227 181.941176471 227 172.5 334 c 0,18,19
 171 351 171 351 170 355 c 1,20,21
 121 301 121 301 93.5 232.5 c 128,-1,22
 66 164 66 164 66 100 c 0,23,24
 66 67 66 67 88 67 c 0,25,26
 126.423076923 67 126.423076923 67 207.5 135 c 0,27,28
 223 148 223 148 230 154.5 c 128,-1,29
 237 161 237 161 251 173.5 c 128,-1,30
 265 186 265 186 267 188 c 1,31,32
 269 179 269 179 269 162 c 0,0,1
329 504 m 0,33,34
 329 492 329 492 314.5 492 c 128,-1,35
 300 492 300 492 285 498 c 128,-1,36
 270 504 270 504 254.5 521.5 c 128,-1,37
 239 539 239 539 233.5 545.5 c 128,-1,38
 228 552 228 552 211 580.5 c 128,-1,39
 194 609 194 609 193 610 c 1,40,41
 172 578 172 578 130.5 538.5 c 128,-1,42
 89 499 89 499 66 499 c 0,43,44
 48 499 48 499 48 522 c 128,-1,45
 48 545.130434783 48 545.130434783 92.5 593.5 c 0,46,47
 115.059233449 618.020905923 115.059233449 618.020905923 131.529616725 643.010452962 c 128,-1,48
 148 668 148 668 158 679 c 128,-1,49
 168 690 168 690 188 690 c 128,-1,50
 208 690 208 690 228 670.5 c 128,-1,51
 248 651 248 651 262.5 620 c 128,-1,52
 277 589 277 589 278.5 586.5 c 128,-1,53
 280 584 280 584 291 569.5 c 128,-1,54
 302 555 302 555 309 545.5 c 0,55,56
 329 518.357142857 329 518.357142857 329 504 c 0,33,34
EndSplineSet
EndChar

StartChar: cdotaccent
Encoding: 267 267 85
Width: 277
Flags: HMW
HStem: -22 89<86.5 113 80 169.5> 227 227<171 206> 512 136<166.5 201.5 163.5 207>
VStem: 15 51<126 142.5 90.5 207> 123 118
LayerCount: 2
Fore
SplineSet
269 162 m 0,0,1
 269 98 269 98 228 38 c 128,-1,2
 187 -22 187 -22 124 -22 c 0,3,4
 74 -22 74 -22 44.5 38.5 c 128,-1,5
 15 99 15 99 15 166.5 c 128,-1,6
 15 234 15 234 51.5 314 c 128,-1,7
 88 394 88 394 147 442 c 1,8,9
 160 454 160 454 180 454 c 128,-1,10
 200 454 200 454 227 431 c 0,11,12
 241 418 241 418 241 377 c 128,-1,13
 241 336 241 336 217 249 c 0,14,15
 211 227 211 227 201 227 c 0,16,17
 181.941176471 227 181.941176471 227 172.5 334 c 0,18,19
 171 351 171 351 170 355 c 1,20,21
 121 301 121 301 93.5 232.5 c 128,-1,22
 66 164 66 164 66 100 c 0,23,24
 66 67 66 67 88 67 c 0,25,26
 126.423076923 67 126.423076923 67 207.5 135 c 0,27,28
 223 148 223 148 230 154.5 c 128,-1,29
 237 161 237 161 251 173.5 c 128,-1,30
 265 186 265 186 267 188 c 1,31,32
 269 179 269 179 269 162 c 0,0,1
138.5 629 m 128,-1,34
 154 648 154 648 182 648 c 128,-1,35
 210 648 210 648 228.5 626.5 c 128,-1,36
 247 605 247 605 247 576 c 128,-1,37
 247 547 247 547 231.5 529.5 c 128,-1,38
 216 512 216 512 187 512 c 128,-1,39
 158 512 158 512 140.5 534 c 128,-1,40
 123 556 123 556 123 583 c 128,-1,33
 123 610 123 610 138.5 629 c 128,-1,34
EndSplineSet
EndChar

StartChar: ccaron
Encoding: 269 269 87
Width: 277
Flags: HMW
HStem: -22 89<86.5 113 80 169.5> 227 227<171 206> 492 191<176.5 294> 670 20G<54 81.5>
VStem: 15 51<126 142.5 90.5 207>
LayerCount: 2
Fore
SplineSet
269 162 m 0,0,1
 269 98 269 98 228 38 c 128,-1,2
 187 -22 187 -22 124 -22 c 0,3,4
 74 -22 74 -22 44.5 38.5 c 128,-1,5
 15 99 15 99 15 166.5 c 128,-1,6
 15 234 15 234 51.5 314 c 128,-1,7
 88 394 88 394 147 442 c 1,8,9
 160 454 160 454 180 454 c 128,-1,10
 200 454 200 454 227 431 c 0,11,12
 241 418 241 418 241 377 c 128,-1,13
 241 336 241 336 217 249 c 0,14,15
 211 227 211 227 201 227 c 0,16,17
 181.941176471 227 181.941176471 227 172.5 334 c 0,18,19
 171 351 171 351 170 355 c 1,20,21
 121 301 121 301 93.5 232.5 c 128,-1,22
 66 164 66 164 66 100 c 0,23,24
 66 67 66 67 88 67 c 0,25,26
 126.423076923 67 126.423076923 67 207.5 135 c 0,27,28
 223 148 223 148 230 154.5 c 128,-1,29
 237 161 237 161 251 173.5 c 128,-1,30
 265 186 265 186 267 188 c 1,31,32
 269 179 269 179 269 162 c 0,0,1
194 492 m 0,33,34
 163.818181818 492 163.818181818 492 142 516 c 1,35,36
 142 522 142 522 140.5 525.5 c 128,-1,37
 139 529 139 529 114.5 566.5 c 128,-1,38
 90 604 90 604 67.5 640 c 128,-1,39
 45 676 45 676 45 683 c 128,-1,40
 45 690 45 690 56.5 690 c 128,-1,41
 68 690 68 690 77.5 686.5 c 128,-1,42
 87 683 87 683 96.5 674.5 c 128,-1,43
 106 666 106 666 113 659.5 c 128,-1,44
 120 653 120 653 130 638.5 c 128,-1,45
 140 624 140 624 144.5 617.5 c 0,46,47
 165.2 587.6 165.2 587.6 173 572 c 1,48,49
 209.43902439 625.443902439 209.43902439 625.443902439 240.719512195 654.22195122 c 128,-1,50
 272 683 272 683 284 683 c 128,-1,51
 296 683 296 683 310.5 668.5 c 128,-1,52
 325 654 325 654 325 646 c 128,-1,53
 325 638 325 638 317.5 627.5 c 128,-1,54
 310 617 310 617 292 598 c 128,-1,55
 274 579 274 579 265 568.5 c 128,-1,56
 256 558 256 558 242 536 c 128,-1,57
 228 514 228 514 217.5 503 c 128,-1,58
 207 492 207 492 194 492 c 0,33,34
EndSplineSet
EndChar

StartChar: dcaron
Encoding: 271 271 89
Width: 414
Flags: HMW
HStem: -27 113<79.5 170> 35 111<336.5 341 322.5 368.5> 484 216<392 412.5 387.5 413.5> 484 247<300.5 413.5>
VStem: 15 51<115.5 199.5> 374 90<516.5 638> 390 74<618.5 638 602 643.5>
LayerCount: 2
Fore
SplineSet
382 142 m 1,0,-1
 385 90 l 1,1,2
 385 35 385 35 356 35 c 0,3,4
 332.615384615 35 332.615384615 35 316 59 c 128,-1,5
 299.485436893 82.854368932 299.485436893 82.854368932 290.242718447 102.427184466 c 128,-1,6
 281 122 281 122 272 139.5 c 128,-1,7
 263 157 263 157 256 181 c 1,8,9
 255 178 255 178 250 160 c 2,10,-1
 242.5 133 l 2,11,12
 230.256410256 88.9230769231 230.256410256 88.9230769231 223.628205128 74.4615384615 c 128,-1,13
 217 60 217 60 209.5 42.5 c 128,-1,14
 202 25 202 25 194 14.5 c 128,-1,15
 186 4 186 4 177 -6.5 c 0,16,17
 159.428571429 -27 159.428571429 -27 133.714285714 -27 c 128,-1,18
 108 -27 108 -27 83.5 2 c 0,19,20
 43.3161033797 49.564612326 43.3161033797 49.564612326 24 122 c 0,21,22
 15 152 15 152 15 191.25 c 128,-1,23
 15 230.5 15 230.5 39 277.75 c 128,-1,24
 63 325 63 325 111 382 c 128,-1,25
 159 439 159 439 200 439 c 0,26,27
 222 439 222 439 250 418 c 1,28,29
 256 472 256 472 270 571 c 128,-1,30
 284 670 284 670 287 700.5 c 128,-1,31
 290 731 290 731 308.5 731 c 128,-1,32
 327 731 327 731 335.5 711.5 c 128,-1,33
 344 692 344 692 344 673 c 128,-1,34
 344 654 344 654 341 638 c 1,35,36
 313 352 313 352 313 173 c 0,37,38
 313 146 313 146 328 146 c 128,-1,39
 343 146 343 146 360.5 169.5 c 128,-1,40
 378 193 378 193 383.5 193 c 128,-1,41
 389 193 389 193 389 185 c 1,42,-1
 382 142 l 1,0,-1
224 333 m 0,43,44
 224 345 224 345 212.5 345 c 128,-1,45
 201 345 201 345 185 335 c 0,46,47
 133 306 133 306 99.5 245 c 128,-1,48
 66 184 66 184 66 123 c 0,49,50
 66 86 66 86 89 86 c 0,51,52
 98 86 98 86 109 97 c 0,53,54
 165 156 165 156 220 315 c 0,55,56
 224 325 224 325 224 333 c 0,43,44
442 536 m 128,-1,58
 420 484 420 484 399.428571429 484 c 128,-1,59
 378.857142857 484 378.857142857 484 374 518 c 1,60,61
 374 532 374 532 382 575.5 c 128,-1,62
 390 619 390 619 390 632 c 128,-1,63
 390 645 390 645 382.5 663 c 128,-1,64
 375 681 375 681 375 688 c 0,65,66
 375 700 375 700 391 700 c 0,67,68
 420 700 420 700 442 673.5 c 128,-1,69
 464 647 464 647 464 628 c 0,70,57
 464 588 464 588 442 536 c 128,-1,58
EndSplineSet
EndChar

StartChar: Eth
Encoding: 208 208 90
Width: 490
Flags: HMW
HStem: -23 117<218.5 300.5> -13 21G<111.5 128> 315 73<34.5 53> 611 86<241 259>
VStem: 10 196<480.5 609.5> 117 112 168 61 389 91<356.5 414 356.5 416>
LayerCount: 2
Fore
SplineSet
14 566 m 1,0,-1
 10 605 l 1,1,2
 10 618 10 618 21 625 c 0,3,4
 78 663 78 663 182 688 c 1,5,6
 225 697 225 697 253 697 c 0,7,8
 395 697 395 697 458 523 c 0,9,10
 480 461 480 461 480 392 c 0,11,12
 480 288 480 288 425 182 c 128,-1,13
 370 76 370 76 312 11 c 1,14,15
 280 -23 280 -23 244 -23 c 128,-1,16
 208 -23 208 -23 188 5 c 128,-1,17
 168 33 168 33 168 76.5 c 128,-1,18
 168 120 168 120 184 174 c 128,-1,19
 200 228 200 228 234 242 c 1,20,21
 229 219 229 219 229 193.5 c 128,-1,22
 229 168 229 168 246.5 131 c 128,-1,23
 264 94 264 94 288 94 c 128,-1,24
 312 94 312 94 327 122 c 0,25,26
 389 234 389 234 389 377 c 0,27,28
 389 547 389 547 300 597 c 0,29,30
 274 611 274 611 250 611 c 128,-1,31
 226 611 226 611 198 597 c 1,32,33
 206 554 206 554 206 503 c 128,-1,34
 206 452 206 452 199 389 c 1,35,-1
 268 392 l 1,36,37
 294 392 294 392 294 367 c 0,38,39
 294 320 294 320 261 320 c 2,40,-1
 189 321 l 1,41,42
 161 149 161 149 161 61 c 2,43,-1
 161 29 l 2,44,45
 161 3 161 3 149 -5 c 128,-1,46
 137 -13 137 -13 124 -13 c 0,47,48
 86.9454545455 -13 86.9454545455 -13 72 124 c 0,49,50
 66 179 66 179 62 198 c 1,51,52
 65 199 65 199 71 199 c 0,53,54
 89 199 89 199 113 173 c 1,55,-1
 113 199 l 1,56,57
 112 250 112 250 117 320 c 1,58,59
 67 315 67 315 48 315 c 128,-1,60
 29 315 29 315 23.5 322.5 c 128,-1,61
 18 330 18 330 18 342.5 c 128,-1,62
 18 355 18 355 20 363 c 128,-1,63
 22 371 22 371 29 379.5 c 128,-1,64
 36 388 36 388 45 388 c 2,65,-1
 123 387 l 1,66,67
 135 489 135 489 135 513.5 c 128,-1,68
 135 538 135 538 131 561 c 1,69,70
 124 557 124 557 103 540 c 0,71,72
 53.5882352941 500 53.5882352941 500 33.2941176471 500 c 128,-1,73
 13 500 13 500 13 535 c 1,74,-1
 14 566 l 1,0,-1
EndSplineSet
EndChar

StartChar: eth
Encoding: 240 240 91
Width: 275
Flags: HMW
HStem: -11 21G<117 137.5> 393 58 550 165 597 118<56.5 60 33 85>
VStem: 18 73<158 184 140.5 233.5> 174 83<263.5 292 197.5 310>
LayerCount: 2
Fore
SplineSet
138 451 m 1,0,1
 163.263157895 448.894736842 163.263157895 448.894736842 178 436 c 1,2,3
 178 472 178 472 160 518 c 1,4,5
 148 512 148 512 142 509 c 128,-1,6
 136 506 136 506 126 499.5 c 128,-1,7
 116 493 116 493 109.5 489 c 128,-1,8
 103 485 103 485 96.5 483 c 0,9,10
 83.0465116279 478.860465116 83.0465116279 478.860465116 77 497 c 1,11,12
 68.7088607595 535.139240506 68.7088607595 535.139240506 85 546 c 0,13,14
 89 548 89 548 95.5 551.5 c 128,-1,15
 102 555 102 555 112 560 c 128,-1,16
 122 565 122 565 129 569 c 1,17,18
 103 597 103 597 78.5 597 c 128,-1,19
 54 597 54 597 32 573.5 c 128,-1,20
 10 550 10 550 6 550 c 0,21,22
 -6 549 -6 549 -14.5 572 c 0,23,24
 -30 613.941176471 -30 613.941176471 -30 675 c 0,25,26
 -30 680 -30 680 -19.5 689 c 128,-1,27
 -9 698 -9 698 13 706.5 c 128,-1,28
 35 715 35 715 60 715 c 1,29,30
 137 695 137 695 187 600 c 1,31,32
 205 609 205 609 226 623 c 1,33,34
 229 643 229 643 240 645 c 0,35,36
 248 647 248 647 258.5 631.5 c 128,-1,37
 269 616 269 616 270 600 c 0,38,39
 274 568 274 568 232 551 c 0,40,41
 231 551 231 551 212 542 c 1,42,43
 257 413 257 413 257 236 c 0,44,45
 257 115 257 115 187 21 c 0,46,47
 162 -11 162 -11 131.5 -11 c 128,-1,48
 101 -11 101 -11 83 4 c 0,49,50
 18 58 18 58 18 189 c 0,51,52
 18 270 18 270 49 352.5 c 128,-1,53
 80 435 80 435 138 451 c 1,0,1
174 301 m 0,54,55
 174 393 174 393 151 393 c 0,56,57
 140 393 140 393 131 376 c 1,58,59
 91 281 91 281 91 149 c 0,60,61
 91 116 91 116 92 99 c 1,62,63
 174 162 174 162 174 301 c 0,54,55
EndSplineSet
EndChar

StartChar: Dcroat
Encoding: 272 272 92
Width: 490
Flags: HMW
HStem: -23 117<218.5 300.5> -13 21G<111.5 128> 315 73<34.5 53> 611 86<241 259>
VStem: 10 196<480.5 609.5> 117 112 168 61 389 91<356.5 414 356.5 416>
LayerCount: 2
Fore
SplineSet
14 566 m 1,0,-1
 10 605 l 1,1,2
 10 618 10 618 21 625 c 0,3,4
 78 663 78 663 182 688 c 1,5,6
 225 697 225 697 253 697 c 0,7,8
 395 697 395 697 458 523 c 0,9,10
 480 461 480 461 480 392 c 0,11,12
 480 288 480 288 425 182 c 128,-1,13
 370 76 370 76 312 11 c 1,14,15
 280 -23 280 -23 244 -23 c 128,-1,16
 208 -23 208 -23 188 5 c 128,-1,17
 168 33 168 33 168 76.5 c 128,-1,18
 168 120 168 120 184 174 c 128,-1,19
 200 228 200 228 234 242 c 1,20,21
 229 219 229 219 229 193.5 c 128,-1,22
 229 168 229 168 246.5 131 c 128,-1,23
 264 94 264 94 288 94 c 128,-1,24
 312 94 312 94 327 122 c 0,25,26
 389 234 389 234 389 377 c 0,27,28
 389 547 389 547 300 597 c 0,29,30
 274 611 274 611 250 611 c 128,-1,31
 226 611 226 611 198 597 c 1,32,33
 206 554 206 554 206 503 c 128,-1,34
 206 452 206 452 199 389 c 1,35,-1
 268 392 l 1,36,37
 294 392 294 392 294 367 c 0,38,39
 294 320 294 320 261 320 c 2,40,-1
 189 321 l 1,41,42
 161 149 161 149 161 61 c 2,43,-1
 161 29 l 2,44,45
 161 3 161 3 149 -5 c 128,-1,46
 137 -13 137 -13 124 -13 c 0,47,48
 86.9454545455 -13 86.9454545455 -13 72 124 c 0,49,50
 66 179 66 179 62 198 c 1,51,52
 65 199 65 199 71 199 c 0,53,54
 89 199 89 199 113 173 c 1,55,-1
 113 199 l 1,56,57
 112 250 112 250 117 320 c 1,58,59
 67 315 67 315 48 315 c 128,-1,60
 29 315 29 315 23.5 322.5 c 128,-1,61
 18 330 18 330 18 342.5 c 128,-1,62
 18 355 18 355 20 363 c 128,-1,63
 22 371 22 371 29 379.5 c 128,-1,64
 36 388 36 388 45 388 c 2,65,-1
 123 387 l 1,66,67
 135 489 135 489 135 513.5 c 128,-1,68
 135 538 135 538 131 561 c 1,69,70
 124 557 124 557 103 540 c 0,71,72
 53.5882352941 500 53.5882352941 500 33.2941176471 500 c 128,-1,73
 13 500 13 500 13 535 c 1,74,-1
 14 566 l 1,0,-1
EndSplineSet
EndChar

StartChar: dcroat
Encoding: 273 273 93
Width: 384
Flags: HMW
HStem: -27 113<79.5 170> 35 111<336.5 341 322.5 368.5> 513 77<166.5 183.5> 513 218<166.5 322.5>
VStem: 15 51<115.5 199.5>
LayerCount: 2
Fore
SplineSet
261 515 m 1,0,-1
 177 513 l 2,1,2
 152 513 152 513 152 561 c 0,3,4
 152 590 152 590 170 590 c 0,5,6
 180 590 180 590 270 585 c 1,7,-1
 272 585 l 1,8,-1
 287 696 l 1,9,10
 290 731 290 731 308.5 731 c 128,-1,11
 327 731 327 731 335.5 711.5 c 128,-1,12
 344 692 344 692 344 673 c 128,-1,13
 344 654 344 654 342 641.5 c 0,14,15
 339.2 624 339.2 624 335 582 c 1,16,17
 356 581 356 581 383 581 c 0,18,19
 396 581 396 581 404.5 562 c 128,-1,20
 413 543 413 543 413 535 c 0,21,22
 413 509 413 509 376 509 c 0,23,24
 361 509 361 509 329 511 c 1,25,26
 314 351 314 351 314 262.5 c 128,-1,27
 314 174 314 174 315 165 c 1,28,29
 315 146 315 146 328 146 c 0,30,31
 343 146 343 146 360.5 169.5 c 128,-1,32
 378 193 378 193 383.5 193 c 128,-1,33
 389 193 389 193 389 185 c 1,34,-1
 382 142 l 1,35,-1
 385 90 l 1,36,37
 385 35 385 35 356 35 c 0,38,39
 332.615384615 35 332.615384615 35 316 59 c 128,-1,40
 299.485436893 82.854368932 299.485436893 82.854368932 290.242718447 102.427184466 c 128,-1,41
 281 122 281 122 272 139.5 c 128,-1,42
 263 157 263 157 256 181 c 1,43,44
 255 178 255 178 250 160 c 2,45,-1
 242.5 133 l 2,46,47
 230.256410256 88.9230769231 230.256410256 88.9230769231 223.628205128 74.4615384615 c 128,-1,48
 217 60 217 60 209.5 42.5 c 128,-1,49
 202 25 202 25 194 14.5 c 128,-1,50
 186 4 186 4 177 -6.5 c 0,51,52
 159.428571429 -27 159.428571429 -27 133.714285714 -27 c 128,-1,53
 108 -27 108 -27 83.5 2 c 0,54,55
 43.3161033797 49.564612326 43.3161033797 49.564612326 24 122 c 0,56,57
 15 152 15 152 15 191.25 c 128,-1,58
 15 230.5 15 230.5 39 277.75 c 128,-1,59
 63 325 63 325 111 382 c 128,-1,60
 159 439 159 439 200 439 c 0,61,62
 222 439 222 439 250 418 c 1,63,64
 252 440 252 440 262 515 c 1,65,-1
 261 515 l 1,0,-1
224 333 m 0,66,67
 224 345 224 345 212.5 345 c 128,-1,68
 201 345 201 345 185 335 c 0,69,70
 133 306 133 306 99.5 245 c 128,-1,71
 66 184 66 184 66 123 c 0,72,73
 66 86 66 86 89 86 c 0,74,75
 98 86 98 86 109 97 c 0,76,77
 165 156 165 156 220 315 c 0,78,79
 224 325 224 325 224 333 c 0,66,67
EndSplineSet
EndChar

StartChar: egrave
Encoding: 232 232 95
Width: 337
Flags: HMW
HStem: -20 104<116.5 151.5 90 213.5> 170 83<149.5 161> 170 220<109.5 161> 470 198<132.5 268>
VStem: 10 52<111.5 189> 95 222
LayerCount: 2
Fore
SplineSet
317 132 m 0,0,1
 317 -20 317 -20 163 -20 c 0,2,3
 99 -20 99 -20 69.5 13 c 128,-1,4
 40 46 40 46 18 114 c 0,5,6
 10 140 10 140 10 169.5 c 128,-1,7
 10 199 10 199 36.5 248.5 c 128,-1,8
 63 298 63 298 95 335 c 1,9,10
 99 390 99 390 120 390 c 0,11,12
 131 390 131 390 135 377 c 1,13,14
 156 396 156 396 186 414 c 128,-1,15
 216 432 216 432 240 432 c 128,-1,16
 264 432 264 432 289.5 404 c 128,-1,17
 315 376 315 376 315 346.5 c 128,-1,18
 315 317 315 317 273.5 265.5 c 0,19,20
 196.54368932 170 196.54368932 170 153 170 c 0,21,22
 121 170 121 170 103 223 c 1,23,24
 102 221 102 221 93.5 206.5 c 128,-1,25
 85 192 85 192 81.5 185 c 128,-1,26
 78 178 78 178 72.5 166 c 0,27,28
 62 143.090909091 62 143.090909091 62 125 c 0,29,30
 62 84 62 84 103 84 c 0,31,32
 171 84 171 84 218.5 112.5 c 128,-1,33
 266 141 266 141 313 199 c 1,34,35
 317 155 317 155 317 132 c 0,0,1
201.5 292 m 128,-1,37
 233 331 233 331 233 345.5 c 128,-1,38
 233 360 233 360 222.5 360 c 128,-1,39
 212 360 212 360 186.5 334 c 128,-1,40
 161 308 161 308 146 289 c 1,41,42
 144 277 144 277 144 271 c 0,43,44
 144 253 144 253 154 253 c 0,45,36
 170 253 170 253 201.5 292 c 128,-1,37
190 513 m 128,-1,47
 182 525 182 525 170 540.5 c 128,-1,48
 158 556 158 556 133 580 c 128,-1,49
 108 604 108 604 96 615.5 c 128,-1,50
 84 627 84 627 84 634 c 0,51,52
 84 644 84 644 105 656 c 128,-1,53
 126 668 126 668 139 668 c 128,-1,54
 152 668 152 668 156 667 c 128,-1,55
 160 666 160 666 164.5 662.5 c 128,-1,56
 169 659 169 659 172 656 c 128,-1,57
 175 653 175 653 180 645 c 128,-1,58
 185 637 185 637 189.5 630 c 128,-1,59
 194 623 194 623 202.5 609 c 128,-1,60
 211 595 211 595 215 588.5 c 128,-1,61
 219 582 219 582 237.5 554 c 0,62,63
 276 495.72972973 276 495.72972973 276 482.864864865 c 128,-1,64
 276 470 276 470 264 470 c 128,-1,65
 252 470 252 470 242 472.5 c 128,-1,66
 232 475 232 475 225.5 477.5 c 128,-1,67
 219 480 219 480 211.5 487.5 c 2,68,-1
 201 498 l 2,69,46
 198 501 198 501 190 513 c 128,-1,47
EndSplineSet
EndChar

StartChar: eacute
Encoding: 233 233 97
Width: 337
Flags: HMW
HStem: -20 104<116.5 151.5 90 213.5> 170 83<149.5 161> 170 220<109.5 161> 646 20G<336 356.5>
VStem: 10 52<111.5 189> 225 92 225 164<485 599.5>
LayerCount: 2
Fore
SplineSet
317 132 m 0,0,1
 317 -20 317 -20 163 -20 c 0,2,3
 99 -20 99 -20 69.5 13 c 128,-1,4
 40 46 40 46 18 114 c 0,5,6
 10 140 10 140 10 169.5 c 128,-1,7
 10 199 10 199 36.5 248.5 c 128,-1,8
 63 298 63 298 95 335 c 1,9,10
 99 390 99 390 120 390 c 0,11,12
 131 390 131 390 135 377 c 1,13,14
 156 396 156 396 186 414 c 128,-1,15
 216 432 216 432 240 432 c 128,-1,16
 264 432 264 432 289.5 404 c 128,-1,17
 315 376 315 376 315 346.5 c 128,-1,18
 315 317 315 317 273.5 265.5 c 0,19,20
 196.54368932 170 196.54368932 170 153 170 c 0,21,22
 121 170 121 170 103 223 c 1,23,24
 102 221 102 221 93.5 206.5 c 128,-1,25
 85 192 85 192 81.5 185 c 128,-1,26
 78 178 78 178 72.5 166 c 0,27,28
 62 143.090909091 62 143.090909091 62 125 c 0,29,30
 62 84 62 84 103 84 c 0,31,32
 171 84 171 84 218.5 112.5 c 128,-1,33
 266 141 266 141 313 199 c 1,34,35
 317 155 317 155 317 132 c 0,0,1
201.5 292 m 128,-1,37
 233 331 233 331 233 345.5 c 128,-1,38
 233 360 233 360 222.5 360 c 128,-1,39
 212 360 212 360 186.5 334 c 128,-1,40
 161 308 161 308 146 289 c 1,41,42
 144 277 144 277 144 271 c 0,43,44
 144 253 144 253 154 253 c 0,45,36
 170 253 170 253 201.5 292 c 128,-1,37
225 487 m 0,46,47
 225 542.428571429 225 542.428571429 307 621.5 c 0,48,49
 321 635 321 635 326.5 641.5 c 128,-1,50
 332 648 332 648 332 657 c 128,-1,51
 332 666 332 666 338 666 c 0,52,53
 362 666 362 666 375.5 638 c 128,-1,54
 389 610 389 610 389 596 c 0,55,56
 389 568 389 568 367 550 c 1,57,58
 357 537 357 537 308 503.5 c 128,-1,59
 259 470 259 470 246.5 470 c 128,-1,60
 234 470 234 470 229.5 476 c 128,-1,61
 225 482 225 482 225 487 c 0,46,47
EndSplineSet
EndChar

StartChar: ecircumflex
Encoding: 234 234 99
Width: 337
Flags: HMW
HStem: -20 104<116.5 151.5 90 213.5> 170 83<149.5 161> 170 220<109.5 161> 470 198<224 378>
VStem: 10 52<111.5 189> 105 212
LayerCount: 2
Fore
SplineSet
317 132 m 0,0,1
 317 -20 317 -20 163 -20 c 0,2,3
 99 -20 99 -20 69.5 13 c 128,-1,4
 40 46 40 46 18 114 c 0,5,6
 10 140 10 140 10 169.5 c 128,-1,7
 10 199 10 199 36.5 248.5 c 128,-1,8
 63 298 63 298 95 335 c 1,9,10
 99 390 99 390 120 390 c 0,11,12
 131 390 131 390 135 377 c 1,13,14
 156 396 156 396 186 414 c 128,-1,15
 216 432 216 432 240 432 c 128,-1,16
 264 432 264 432 289.5 404 c 128,-1,17
 315 376 315 376 315 346.5 c 128,-1,18
 315 317 315 317 273.5 265.5 c 0,19,20
 196.54368932 170 196.54368932 170 153 170 c 0,21,22
 121 170 121 170 103 223 c 1,23,24
 102 221 102 221 93.5 206.5 c 128,-1,25
 85 192 85 192 81.5 185 c 128,-1,26
 78 178 78 178 72.5 166 c 0,27,28
 62 143.090909091 62 143.090909091 62 125 c 0,29,30
 62 84 62 84 103 84 c 0,31,32
 171 84 171 84 218.5 112.5 c 128,-1,33
 266 141 266 141 313 199 c 1,34,35
 317 155 317 155 317 132 c 0,0,1
201.5 292 m 128,-1,37
 233 331 233 331 233 345.5 c 128,-1,38
 233 360 233 360 222.5 360 c 128,-1,39
 212 360 212 360 186.5 334 c 128,-1,40
 161 308 161 308 146 289 c 1,41,42
 144 277 144 277 144 271 c 0,43,44
 144 253 144 253 154 253 c 0,45,36
 170 253 170 253 201.5 292 c 128,-1,37
386 482 m 0,46,47
 386 470 386 470 371.5 470 c 128,-1,48
 357 470 357 470 342 476 c 128,-1,49
 327 482 327 482 311.5 499.5 c 128,-1,50
 296 517 296 517 290.5 523.5 c 128,-1,51
 285 530 285 530 268 558.5 c 128,-1,52
 251 587 251 587 250 588 c 1,53,54
 229 556 229 556 187.5 516.5 c 128,-1,55
 146 477 146 477 123 477 c 0,56,57
 105 477 105 477 105 500 c 128,-1,58
 105 523.130434783 105 523.130434783 149.5 571.5 c 0,59,60
 172.059233449 596.020905923 172.059233449 596.020905923 188.529616725 621.010452962 c 128,-1,61
 205 646 205 646 215 657 c 128,-1,62
 225 668 225 668 245 668 c 128,-1,63
 265 668 265 668 285 648.5 c 128,-1,64
 305 629 305 629 319.5 598 c 128,-1,65
 334 567 334 567 335.5 564.5 c 128,-1,66
 337 562 337 562 348 547.5 c 128,-1,67
 359 533 359 533 366 523.5 c 0,68,69
 386 496.357142857 386 496.357142857 386 482 c 0,46,47
EndSplineSet
EndChar

StartChar: edieresis
Encoding: 235 235 101
Width: 337
Flags: HMW
HStem: -20 104<116.5 151.5 90 213.5> 170 83<149.5 161> 170 220<109.5 161> 500 120<304.5 334.5 303 337.5> 603 20G<148 174>
VStem: 10 52<111.5 189> 119 98<547.5 565.5 546.5 580.5> 267 111<546 565 546 565.5>
LayerCount: 2
Fore
SplineSet
317 132 m 0,0,1
 317 -20 317 -20 163 -20 c 0,2,3
 99 -20 99 -20 69.5 13 c 128,-1,4
 40 46 40 46 18 114 c 0,5,6
 10 140 10 140 10 169.5 c 128,-1,7
 10 199 10 199 36.5 248.5 c 128,-1,8
 63 298 63 298 95 335 c 1,9,10
 99 390 99 390 120 390 c 0,11,12
 131 390 131 390 135 377 c 1,13,14
 156 396 156 396 186 414 c 128,-1,15
 216 432 216 432 240 432 c 128,-1,16
 264 432 264 432 289.5 404 c 128,-1,17
 315 376 315 376 315 346.5 c 128,-1,18
 315 317 315 317 273.5 265.5 c 0,19,20
 196.54368932 170 196.54368932 170 153 170 c 0,21,22
 121 170 121 170 103 223 c 1,23,24
 102 221 102 221 93.5 206.5 c 128,-1,25
 85 192 85 192 81.5 185 c 128,-1,26
 78 178 78 178 72.5 166 c 0,27,28
 62 143.090909091 62 143.090909091 62 125 c 0,29,30
 62 84 62 84 103 84 c 0,31,32
 171 84 171 84 218.5 112.5 c 128,-1,33
 266 141 266 141 313 199 c 1,34,35
 317 155 317 155 317 132 c 0,0,1
201.5 292 m 128,-1,37
 233 331 233 331 233 345.5 c 128,-1,38
 233 360 233 360 222.5 360 c 128,-1,39
 212 360 212 360 186.5 334 c 128,-1,40
 161 308 161 308 146 289 c 1,41,42
 144 277 144 277 144 271 c 0,43,44
 144 253 144 253 154 253 c 0,45,36
 170 253 170 253 201.5 292 c 128,-1,37
375 582 m 0,46,47
 378 571 378 571 378 554 c 128,-1,48
 378 537 378 537 362 518.5 c 128,-1,49
 346 500 346 500 321.5 500 c 128,-1,50
 297 500 297 500 282 515.5 c 128,-1,51
 267 531 267 531 267 554 c 128,-1,52
 267 577 267 577 281 598.5 c 128,-1,53
 295 620 295 620 329 620 c 128,-1,54
 363 620 363 620 375 582 c 0,46,47
166 623 m 0,55,56
 184 623 184 623 200.5 605.5 c 128,-1,57
 217 588 217 588 217 562.5 c 128,-1,58
 217 537 217 537 203.5 518.5 c 128,-1,59
 190 500 190 500 168.5 500 c 128,-1,60
 147 500 147 500 133 519.5 c 128,-1,61
 119 539 119 539 119 567 c 0,62,63
 119 623 119 623 166 623 c 0,55,56
EndSplineSet
EndChar

StartChar: emacron
Encoding: 275 275 103
Width: 337
Flags: HMW
HStem: -20 104<116.5 151.5 90 213.5> 170 83<149.5 161> 170 220<109.5 161> 510 81<136 264.5> 510 86<136 165 134 168> 585 20G<344.5 354>
VStem: 10 52<111.5 189> 120 249<534.5 568 534.5 579.5>
LayerCount: 2
Fore
SplineSet
317 132 m 0,0,1
 317 -20 317 -20 163 -20 c 0,2,3
 99 -20 99 -20 69.5 13 c 128,-1,4
 40 46 40 46 18 114 c 0,5,6
 10 140 10 140 10 169.5 c 128,-1,7
 10 199 10 199 36.5 248.5 c 128,-1,8
 63 298 63 298 95 335 c 1,9,10
 99 390 99 390 120 390 c 0,11,12
 131 390 131 390 135 377 c 1,13,14
 156 396 156 396 186 414 c 128,-1,15
 216 432 216 432 240 432 c 128,-1,16
 264 432 264 432 289.5 404 c 128,-1,17
 315 376 315 376 315 346.5 c 128,-1,18
 315 317 315 317 273.5 265.5 c 0,19,20
 196.54368932 170 196.54368932 170 153 170 c 0,21,22
 121 170 121 170 103 223 c 1,23,24
 102 221 102 221 93.5 206.5 c 128,-1,25
 85 192 85 192 81.5 185 c 128,-1,26
 78 178 78 178 72.5 166 c 0,27,28
 62 143.090909091 62 143.090909091 62 125 c 0,29,30
 62 84 62 84 103 84 c 0,31,32
 171 84 171 84 218.5 112.5 c 128,-1,33
 266 141 266 141 313 199 c 1,34,35
 317 155 317 155 317 132 c 0,0,1
201.5 292 m 128,-1,37
 233 331 233 331 233 345.5 c 128,-1,38
 233 360 233 360 222.5 360 c 128,-1,39
 212 360 212 360 186.5 334 c 128,-1,40
 161 308 161 308 146 289 c 1,41,42
 144 277 144 277 144 271 c 0,43,44
 144 253 144 253 154 253 c 0,45,36
 170 253 170 253 201.5 292 c 128,-1,37
141 596 m 2,46,-1
 246 591 l 1,47,48
 289 591 289 591 314.5 598 c 128,-1,49
 340 605 340 605 346 605 c 0,50,51
 356 605 356 605 362.5 586 c 128,-1,52
 369 567 369 567 369 554 c 128,-1,53
 369 541 369 541 360.5 531.5 c 128,-1,54
 352 522 352 522 333.5 519 c 0,55,56
 308.833333333 515 308.833333333 515 275 515 c 1,57,-1
 143 510 l 2,58,59
 131 510 131 510 120 560 c 1,60,-1
 120 568 l 2,61,62
 120 584 120 584 125 590 c 128,-1,63
 130 596 130 596 141 596 c 2,46,-1
EndSplineSet
EndChar

StartChar: ebreve
Encoding: 277 277 105
Width: 337
Flags: HMW
HStem: -20 104<116.5 151.5 90 213.5> 170 83<149.5 161> 170 220<109.5 161> 480 79<209 263.5 192 300.5> 480 171<209 355.5>
VStem: 10 52<111.5 189> 84 233
LayerCount: 2
Fore
SplineSet
317 132 m 0,0,1
 317 -20 317 -20 163 -20 c 0,2,3
 99 -20 99 -20 69.5 13 c 128,-1,4
 40 46 40 46 18 114 c 0,5,6
 10 140 10 140 10 169.5 c 128,-1,7
 10 199 10 199 36.5 248.5 c 128,-1,8
 63 298 63 298 95 335 c 1,9,10
 99 390 99 390 120 390 c 0,11,12
 131 390 131 390 135 377 c 1,13,14
 156 396 156 396 186 414 c 128,-1,15
 216 432 216 432 240 432 c 128,-1,16
 264 432 264 432 289.5 404 c 128,-1,17
 315 376 315 376 315 346.5 c 128,-1,18
 315 317 315 317 273.5 265.5 c 0,19,20
 196.54368932 170 196.54368932 170 153 170 c 0,21,22
 121 170 121 170 103 223 c 1,23,24
 102 221 102 221 93.5 206.5 c 128,-1,25
 85 192 85 192 81.5 185 c 128,-1,26
 78 178 78 178 72.5 166 c 0,27,28
 62 143.090909091 62 143.090909091 62 125 c 0,29,30
 62 84 62 84 103 84 c 0,31,32
 171 84 171 84 218.5 112.5 c 128,-1,33
 266 141 266 141 313 199 c 1,34,35
 317 155 317 155 317 132 c 0,0,1
201.5 292 m 128,-1,37
 233 331 233 331 233 345.5 c 128,-1,38
 233 360 233 360 222.5 360 c 128,-1,39
 212 360 212 360 186.5 334 c 128,-1,40
 161 308 161 308 146 289 c 1,41,42
 144 277 144 277 144 271 c 0,43,44
 144 253 144 253 154 253 c 0,45,36
 170 253 170 253 201.5 292 c 128,-1,37
97 648 m 0,46,47
 116 648 116 648 134.5 626 c 128,-1,48
 153 604 153 604 175 581.5 c 128,-1,49
 197 559 197 559 224 559 c 128,-1,50
 251 559 251 559 270.5 573.5 c 128,-1,51
 290 588 290 588 299 605 c 0,52,53
 323.352941176 651 323.352941176 651 349 651 c 0,54,55
 358 651 358 651 371.5 636.5 c 128,-1,56
 385 622 385 622 385 615 c 0,57,58
 385 583 385 583 349 531.5 c 128,-1,59
 313 480 313 480 252.5 480 c 128,-1,60
 192 480 192 480 138 537 c 128,-1,61
 84 594 84 594 84 630 c 0,62,63
 84 648 84 648 97 648 c 0,46,47
EndSplineSet
EndChar

StartChar: edotaccent
Encoding: 279 279 107
Width: 337
Flags: HMW
HStem: -20 104<116.5 151.5 90 213.5> 170 83<149.5 161> 170 220<109.5 161> 490 136<223.5 258.5 220.5 264>
VStem: 10 52<111.5 189> 180 124<544 573.5 535.5 577.5>
LayerCount: 2
Fore
SplineSet
317 132 m 0,0,1
 317 -20 317 -20 163 -20 c 0,2,3
 99 -20 99 -20 69.5 13 c 128,-1,4
 40 46 40 46 18 114 c 0,5,6
 10 140 10 140 10 169.5 c 128,-1,7
 10 199 10 199 36.5 248.5 c 128,-1,8
 63 298 63 298 95 335 c 1,9,10
 99 390 99 390 120 390 c 0,11,12
 131 390 131 390 135 377 c 1,13,14
 156 396 156 396 186 414 c 128,-1,15
 216 432 216 432 240 432 c 128,-1,16
 264 432 264 432 289.5 404 c 128,-1,17
 315 376 315 376 315 346.5 c 128,-1,18
 315 317 315 317 273.5 265.5 c 0,19,20
 196.54368932 170 196.54368932 170 153 170 c 0,21,22
 121 170 121 170 103 223 c 1,23,24
 102 221 102 221 93.5 206.5 c 128,-1,25
 85 192 85 192 81.5 185 c 128,-1,26
 78 178 78 178 72.5 166 c 0,27,28
 62 143.090909091 62 143.090909091 62 125 c 0,29,30
 62 84 62 84 103 84 c 0,31,32
 171 84 171 84 218.5 112.5 c 128,-1,33
 266 141 266 141 313 199 c 1,34,35
 317 155 317 155 317 132 c 0,0,1
201.5 292 m 128,-1,37
 233 331 233 331 233 345.5 c 128,-1,38
 233 360 233 360 222.5 360 c 128,-1,39
 212 360 212 360 186.5 334 c 128,-1,40
 161 308 161 308 146 289 c 1,41,42
 144 277 144 277 144 271 c 0,43,44
 144 253 144 253 154 253 c 0,45,36
 170 253 170 253 201.5 292 c 128,-1,37
195.5 607 m 128,-1,47
 211 626 211 626 239 626 c 128,-1,48
 267 626 267 626 285.5 604.5 c 128,-1,49
 304 583 304 583 304 554 c 128,-1,50
 304 525 304 525 288.5 507.5 c 128,-1,51
 273 490 273 490 244 490 c 128,-1,52
 215 490 215 490 197.5 512 c 128,-1,53
 180 534 180 534 180 561 c 128,-1,46
 180 588 180 588 195.5 607 c 128,-1,47
EndSplineSet
EndChar

StartChar: Eogonek
Encoding: 280 280 108
Width: 452
Flags: HMW
HStem: -242 94<285.5 314 285 340.5> -242 137<285.5 426> -36 70<142 165.5 120.5 183> 152 55<272 293.5> 690 20G<343 357.5>
VStem: -10 84<116.5 120 84.5 150> 91 54<424.5 507> 202 69<-126 -119> 202 250 308 119<91.5 121>
LayerCount: 2
Fore
SplineSet
145 443 m 0,0,1
 145 409 145 409 284 409 c 2,2,-1
 301 409 l 1,3,4
 328 424 328 424 335 424 c 0,5,6
 352 424 352 424 377.5 396.5 c 128,-1,7
 403 369 403 369 403 333 c 0,8,9
 403 321 403 321 390 321 c 0,10,11
 386 321 386 321 353 327 c 1,12,13
 343 324 343 324 315.5 316 c 128,-1,14
 288 308 288 308 278 305 c 128,-1,15
 268 302 268 302 245 294 c 128,-1,16
 222 286 222 286 211.5 280.5 c 128,-1,17
 201 275 201 275 182.5 265 c 128,-1,18
 164 255 164 255 152.5 244 c 0,19,20
 114.32 207.48 114.32 207.48 100 186 c 0,21,22
 74 150 74 150 74 111.5 c 128,-1,23
 74 73 74 73 92 53.5 c 128,-1,24
 110 34 110 34 151.5 34 c 128,-1,25
 193 34 193 34 250.5 54.5 c 128,-1,26
 308 75 308 75 308 114 c 0,27,28
 308 127 308 127 302 139.5 c 128,-1,29
 296 152 296 152 282.5 152 c 128,-1,30
 269 152 269 152 200.5 111.5 c 128,-1,31
 132 71 132 71 128 71 c 128,-1,32
 124 71 124 71 124 77.5 c 128,-1,33
 124 84 124 84 131 100 c 1,34,35
 160 149 160 149 207.5 178 c 128,-1,36
 255 207 255 207 305.5 207 c 128,-1,37
 356 207 356 207 391.5 177 c 128,-1,38
 427 147 427 147 427 107.5 c 128,-1,39
 427 68 427 68 411 47.5 c 128,-1,40
 395 27 395 27 360.5 7 c 128,-1,41
 326 -13 326 -13 311.5 -25 c 128,-1,42
 297 -37 297 -37 284 -67 c 128,-1,43
 271 -97 271 -97 271 -118.5 c 128,-1,44
 271 -140 271 -140 285 -148 c 1,45,46
 317 -148 317 -148 362.5 -126.5 c 128,-1,47
 408 -105 408 -105 420 -105 c 0,48,49
 428 -105 428 -105 435 -125 c 128,-1,50
 442 -145 442 -145 442 -157 c 1,51,52
 433 -195 433 -195 396 -218.5 c 128,-1,53
 359 -242 359 -242 300 -242 c 0,54,55
 273 -242 273 -242 237.5 -207.5 c 128,-1,56
 202 -173 202 -173 202 -129 c 128,-1,57
 202 -85 202 -85 254 -25 c 1,58,59
 226 -36 226 -36 175 -36 c 0,60,61
 69 -36 69 -36 18 46 c 1,62,63
 -10 89 -10 89 -10 129 c 128,-1,64
 -10 169 -10 169 15 226.5 c 128,-1,65
 40 284 40 284 81.5 313 c 128,-1,66
 123 342 123 342 188 365 c 1,67,68
 91 396 91 396 91 488 c 0,69,70
 91 543 91 543 137 582 c 0,71,72
 175.632750397 615.99682035 175.632750397 615.99682035 239.316375199 652.498410175 c 128,-1,73
 303 689 303 689 319 699.5 c 128,-1,74
 335 710 335 710 353 710 c 128,-1,75
 371 710 371 710 394 683 c 1,76,77
 406 685 406 685 411 685 c 0,78,79
 434 685 434 685 444 665 c 1,80,81
 452 646 452 646 452 640 c 0,82,83
 452 604 452 604 299 543 c 0,84,85
 293 541 293 541 291 541 c 0,86,87
 285 541 285 541 285 549.5 c 128,-1,88
 285 558 285 558 295 588 c 1,89,-1
 262 571.5 l 2,90,91
 203.727272727 542.363636364 203.727272727 542.363636364 191.363636364 527.681818182 c 0,92,93
 167.187919463 498.973154362 167.187919463 498.973154362 156.093959732 474.986577181 c 128,-1,94
 145 451 145 451 145 443 c 0,0,1
EndSplineSet
EndChar

StartChar: eogonek
Encoding: 281 281 109
Width: 337
Flags: HMW
HStem: -242 94<170.5 199 170 225.5> -242 137<170.5 311> -15 99 170 83<149.5 161> 170 220<109.5 161> 412 20G<221 255>
VStem: 10 52<111.5 189> 87 69<-126 -116> 87 230<-137.5 143>
LayerCount: 2
Fore
SplineSet
185 -242 m 0,0,1
 158 -242 158 -242 122.5 -207.5 c 128,-1,2
 87 -173 87 -173 87 -133 c 0,3,4
 87 -107 87 -107 101 -73.5 c 128,-1,5
 115 -40 115 -40 136 -15 c 1,6,7
 89 -13 89 -13 62.5 21 c 128,-1,8
 36 55 36 55 23 97.5 c 128,-1,9
 10 140 10 140 10 169.5 c 128,-1,10
 10 199 10 199 36.5 248.5 c 128,-1,11
 63 298 63 298 95 335 c 1,12,13
 99 390 99 390 120 390 c 0,14,15
 131 390 131 390 135 377 c 1,16,17
 156 396 156 396 186 414 c 128,-1,18
 216 432 216 432 240 432 c 128,-1,19
 264 432 264 432 289.5 404 c 128,-1,20
 315 376 315 376 315 346.5 c 128,-1,21
 315 317 315 317 273.5 265.5 c 0,22,23
 196.54368932 170 196.54368932 170 153 170 c 0,24,25
 121 170 121 170 103 223 c 1,26,27
 102 221 102 221 93.5 206.5 c 128,-1,28
 85 192 85 192 81.5 185 c 128,-1,29
 78 178 78 178 72.5 166 c 0,30,31
 62 143.090909091 62 143.090909091 62 125 c 0,32,33
 62 84 62 84 103 84 c 0,34,35
 171 84 171 84 218.5 112.5 c 128,-1,36
 266 141 266 141 313 199 c 1,37,38
 317 155 317 155 317 132 c 128,-1,39
 317 109 317 109 312.5 91 c 128,-1,40
 308 73 308 73 303 61.5 c 128,-1,41
 298 50 298 50 284.5 37.5 c 128,-1,42
 271 25 271 25 263 19 c 0,43,44
 247 7 247 7 203 -21 c 1,45,46
 184 -35 184 -35 170 -66 c 128,-1,47
 156 -97 156 -97 156 -118.5 c 128,-1,48
 156 -140 156 -140 170 -148 c 1,49,50
 202 -148 202 -148 247.5 -126.5 c 128,-1,51
 293 -105 293 -105 305 -105 c 0,52,53
 313 -105 313 -105 320 -125 c 128,-1,54
 327 -145 327 -145 327 -157 c 1,55,56
 318 -195 318 -195 281 -218.5 c 128,-1,57
 244 -242 244 -242 185 -242 c 0,0,1
201.5 292 m 128,-1,59
 233 331 233 331 233 345.5 c 128,-1,60
 233 360 233 360 222.5 360 c 128,-1,61
 212 360 212 360 186.5 334 c 128,-1,62
 161 308 161 308 146 289 c 1,63,64
 144 277 144 277 144 271 c 0,65,66
 144 253 144 253 154 253 c 0,67,58
 170 253 170 253 201.5 292 c 128,-1,59
EndSplineSet
EndChar

StartChar: ecaron
Encoding: 283 283 111
Width: 337
Flags: HMW
HStem: -20 104<116.5 151.5 90 213.5> 170 83<149.5 161> 170 220<109.5 161> 470 191<233.5 351> 648 20G<111 138.5>
VStem: 10 52<111.5 189> 95 222
LayerCount: 2
Fore
SplineSet
317 132 m 0,0,1
 317 -20 317 -20 163 -20 c 0,2,3
 99 -20 99 -20 69.5 13 c 128,-1,4
 40 46 40 46 18 114 c 0,5,6
 10 140 10 140 10 169.5 c 128,-1,7
 10 199 10 199 36.5 248.5 c 128,-1,8
 63 298 63 298 95 335 c 1,9,10
 99 390 99 390 120 390 c 0,11,12
 131 390 131 390 135 377 c 1,13,14
 156 396 156 396 186 414 c 128,-1,15
 216 432 216 432 240 432 c 128,-1,16
 264 432 264 432 289.5 404 c 128,-1,17
 315 376 315 376 315 346.5 c 128,-1,18
 315 317 315 317 273.5 265.5 c 0,19,20
 196.54368932 170 196.54368932 170 153 170 c 0,21,22
 121 170 121 170 103 223 c 1,23,24
 102 221 102 221 93.5 206.5 c 128,-1,25
 85 192 85 192 81.5 185 c 128,-1,26
 78 178 78 178 72.5 166 c 0,27,28
 62 143.090909091 62 143.090909091 62 125 c 0,29,30
 62 84 62 84 103 84 c 0,31,32
 171 84 171 84 218.5 112.5 c 128,-1,33
 266 141 266 141 313 199 c 1,34,35
 317 155 317 155 317 132 c 0,0,1
201.5 292 m 128,-1,37
 233 331 233 331 233 345.5 c 128,-1,38
 233 360 233 360 222.5 360 c 128,-1,39
 212 360 212 360 186.5 334 c 128,-1,40
 161 308 161 308 146 289 c 1,41,42
 144 277 144 277 144 271 c 0,43,44
 144 253 144 253 154 253 c 0,45,36
 170 253 170 253 201.5 292 c 128,-1,37
251 470 m 0,46,47
 220.818181818 470 220.818181818 470 199 494 c 1,48,49
 199 500 199 500 197.5 503.5 c 128,-1,50
 196 507 196 507 171.5 544.5 c 128,-1,51
 147 582 147 582 124.5 618 c 128,-1,52
 102 654 102 654 102 661 c 128,-1,53
 102 668 102 668 113.5 668 c 128,-1,54
 125 668 125 668 134.5 664.5 c 128,-1,55
 144 661 144 661 153.5 652.5 c 128,-1,56
 163 644 163 644 170 637.5 c 128,-1,57
 177 631 177 631 187 616.5 c 128,-1,58
 197 602 197 602 201.5 595.5 c 0,59,60
 222.2 565.6 222.2 565.6 230 550 c 1,61,62
 266.43902439 603.443902439 266.43902439 603.443902439 297.719512195 632.22195122 c 128,-1,63
 329 661 329 661 341 661 c 128,-1,64
 353 661 353 661 367.5 646.5 c 128,-1,65
 382 632 382 632 382 624 c 128,-1,66
 382 616 382 616 374.5 605.5 c 128,-1,67
 367 595 367 595 349 576 c 128,-1,68
 331 557 331 557 322 546.5 c 128,-1,69
 313 536 313 536 299 514 c 128,-1,70
 285 492 285 492 274.5 481 c 128,-1,71
 264 470 264 470 251 470 c 0,46,47
EndSplineSet
EndChar

StartChar: gcircumflex
Encoding: 285 285 113
Width: 347
Flags: HMW
HStem: -295 179<207.5 248.5> -256 140<152 215> 504 198<250 404>
VStem: 131 134 224 41
LayerCount: 2
Fore
SplineSet
134 -154 m 1,0,-1
 136 -143 l 1,1,2
 136 -134.8 136 -134.8 142 -132.4 c 128,-1,3
 148 -130 148 -130 152 -127.5 c 128,-1,4
 156 -125 156 -125 162.5 -120 c 0,5,6
 175.5 -110 175.5 -110 185.25 -110 c 128,-1,7
 195 -110 195 -110 201.5 -113 c 128,-1,8
 208 -116 208 -116 210 -116 c 0,9,10
 221 -116 221 -116 221 -75 c 1,11,12
 226 22 226 22 240 154 c 1,13,14
 211 108 211 108 164 56.5 c 128,-1,15
 117 5 117 5 89 5 c 128,-1,16
 61 5 61 5 43 30.5 c 0,17,18
 10 77.25 10 77.25 10 138 c 0,19,20
 10 228.424242424 10 228.424242424 105 333.5 c 0,21,22
 138 370 138 370 154.5 385.5 c 128,-1,23
 171 401 171 401 206 433.5 c 128,-1,24
 241 466 241 466 269 466 c 128,-1,25
 297 466 297 466 312 446 c 128,-1,26
 327 426 327 426 327 400.5 c 128,-1,27
 327 375 327 375 315 331 c 1,28,29
 323 326 323 326 323 316.5 c 128,-1,30
 323 307 323 307 321 297 c 0,31,32
 275.902592485 14.7236344451 275.902592485 14.7236344451 270.451296243 -73.3594531964 c 128,-1,33
 265 -161.442540838 265 -161.442540838 265 -212 c 2,34,-1
 266 -265 l 2,35,36
 266 -278 266 -278 259 -286.5 c 128,-1,37
 252 -295 252 -295 241 -295 c 128,-1,38
 230 -295 230 -295 204.5 -275.5 c 128,-1,39
 179 -256 179 -256 156 -256 c 1,40,-1
 133 -258 l 1,41,42
 121 -258 121 -258 121 -247 c 1,43,-1
 134 -154 l 1,0,-1
253 321 m 0,44,45
 258 333 258 333 258 344 c 128,-1,46
 258 355 258 355 250 355 c 0,47,48
 247 355 247 355 243 353 c 0,49,50
 184 324 184 324 139 276 c 128,-1,51
 94 228 94 228 72 169 c 0,52,53
 68 157 68 157 68 148 c 0,54,55
 68 128 68 128 83 128 c 0,56,57
 91 128 91 128 101 134 c 0,58,59
 147 165 147 165 188 216 c 128,-1,60
 229 267 229 267 253 321 c 0,44,45
412 516 m 0,61,62
 412 504 412 504 397.5 504 c 128,-1,63
 383 504 383 504 368 510 c 128,-1,64
 353 516 353 516 337.5 533.5 c 128,-1,65
 322 551 322 551 316.5 557.5 c 128,-1,66
 311 564 311 564 294 592.5 c 128,-1,67
 277 621 277 621 276 622 c 1,68,69
 255 590 255 590 213.5 550.5 c 128,-1,70
 172 511 172 511 149 511 c 0,71,72
 131 511 131 511 131 534 c 128,-1,73
 131 557.130434783 131 557.130434783 175.5 605.5 c 0,74,75
 198.059233449 630.020905923 198.059233449 630.020905923 214.529616725 655.010452962 c 128,-1,76
 231 680 231 680 241 691 c 128,-1,77
 251 702 251 702 271 702 c 128,-1,78
 291 702 291 702 311 682.5 c 128,-1,79
 331 663 331 663 345.5 632 c 128,-1,80
 360 601 360 601 361.5 598.5 c 128,-1,81
 363 596 363 596 374 581.5 c 128,-1,82
 385 567 385 567 392 557.5 c 0,83,84
 412 530.357142857 412 530.357142857 412 516 c 0,61,62
EndSplineSet
EndChar

StartChar: gbreve
Encoding: 287 287 115
Width: 347
Flags: HMW
HStem: -295 179<207.5 248.5> -256 140<152 215> 514 79<235 289.5 218 326.5> 514 171<235 381.5>
VStem: 224 41
LayerCount: 2
Fore
SplineSet
134 -154 m 1,0,-1
 136 -143 l 1,1,2
 136 -134.8 136 -134.8 142 -132.4 c 128,-1,3
 148 -130 148 -130 152 -127.5 c 128,-1,4
 156 -125 156 -125 162.5 -120 c 0,5,6
 175.5 -110 175.5 -110 185.25 -110 c 128,-1,7
 195 -110 195 -110 201.5 -113 c 128,-1,8
 208 -116 208 -116 210 -116 c 0,9,10
 221 -116 221 -116 221 -75 c 1,11,12
 226 22 226 22 240 154 c 1,13,14
 211 108 211 108 164 56.5 c 128,-1,15
 117 5 117 5 89 5 c 128,-1,16
 61 5 61 5 43 30.5 c 0,17,18
 10 77.25 10 77.25 10 138 c 0,19,20
 10 228.424242424 10 228.424242424 105 333.5 c 0,21,22
 138 370 138 370 154.5 385.5 c 128,-1,23
 171 401 171 401 206 433.5 c 128,-1,24
 241 466 241 466 269 466 c 128,-1,25
 297 466 297 466 312 446 c 128,-1,26
 327 426 327 426 327 400.5 c 128,-1,27
 327 375 327 375 315 331 c 1,28,29
 323 326 323 326 323 316.5 c 128,-1,30
 323 307 323 307 321 297 c 0,31,32
 275.902592485 14.7236344451 275.902592485 14.7236344451 270.451296243 -73.3594531964 c 128,-1,33
 265 -161.442540838 265 -161.442540838 265 -212 c 2,34,-1
 266 -265 l 2,35,36
 266 -278 266 -278 259 -286.5 c 128,-1,37
 252 -295 252 -295 241 -295 c 128,-1,38
 230 -295 230 -295 204.5 -275.5 c 128,-1,39
 179 -256 179 -256 156 -256 c 1,40,-1
 133 -258 l 1,41,42
 121 -258 121 -258 121 -247 c 1,43,-1
 134 -154 l 1,0,-1
253 321 m 0,44,45
 258 333 258 333 258 344 c 128,-1,46
 258 355 258 355 250 355 c 0,47,48
 247 355 247 355 243 353 c 0,49,50
 184 324 184 324 139 276 c 128,-1,51
 94 228 94 228 72 169 c 0,52,53
 68 157 68 157 68 148 c 0,54,55
 68 128 68 128 83 128 c 0,56,57
 91 128 91 128 101 134 c 0,58,59
 147 165 147 165 188 216 c 128,-1,60
 229 267 229 267 253 321 c 0,44,45
123 682 m 0,61,62
 142 682 142 682 160.5 660 c 128,-1,63
 179 638 179 638 201 615.5 c 128,-1,64
 223 593 223 593 250 593 c 128,-1,65
 277 593 277 593 296.5 607.5 c 128,-1,66
 316 622 316 622 325 639 c 0,67,68
 349.352941176 685 349.352941176 685 375 685 c 0,69,70
 384 685 384 685 397.5 670.5 c 128,-1,71
 411 656 411 656 411 649 c 0,72,73
 411 617 411 617 375 565.5 c 128,-1,74
 339 514 339 514 278.5 514 c 128,-1,75
 218 514 218 514 164 571 c 128,-1,76
 110 628 110 628 110 664 c 0,77,78
 110 682 110 682 123 682 c 0,61,62
EndSplineSet
EndChar

StartChar: gdotaccent
Encoding: 289 289 117
Width: 347
Flags: HMW
HStem: -295 179<207.5 248.5> -256 140<152 215> 524 136<249.5 284.5 246.5 290>
VStem: 206 121 224 41
LayerCount: 2
Fore
SplineSet
134 -154 m 1,0,-1
 136 -143 l 1,1,2
 136 -134.8 136 -134.8 142 -132.4 c 128,-1,3
 148 -130 148 -130 152 -127.5 c 128,-1,4
 156 -125 156 -125 162.5 -120 c 0,5,6
 175.5 -110 175.5 -110 185.25 -110 c 128,-1,7
 195 -110 195 -110 201.5 -113 c 128,-1,8
 208 -116 208 -116 210 -116 c 0,9,10
 221 -116 221 -116 221 -75 c 1,11,12
 226 22 226 22 240 154 c 1,13,14
 211 108 211 108 164 56.5 c 128,-1,15
 117 5 117 5 89 5 c 128,-1,16
 61 5 61 5 43 30.5 c 0,17,18
 10 77.25 10 77.25 10 138 c 0,19,20
 10 228.424242424 10 228.424242424 105 333.5 c 0,21,22
 138 370 138 370 154.5 385.5 c 128,-1,23
 171 401 171 401 206 433.5 c 128,-1,24
 241 466 241 466 269 466 c 128,-1,25
 297 466 297 466 312 446 c 128,-1,26
 327 426 327 426 327 400.5 c 128,-1,27
 327 375 327 375 315 331 c 1,28,29
 323 326 323 326 323 316.5 c 128,-1,30
 323 307 323 307 321 297 c 0,31,32
 275.902592485 14.7236344451 275.902592485 14.7236344451 270.451296243 -73.3594531964 c 128,-1,33
 265 -161.442540838 265 -161.442540838 265 -212 c 2,34,-1
 266 -265 l 2,35,36
 266 -278 266 -278 259 -286.5 c 128,-1,37
 252 -295 252 -295 241 -295 c 128,-1,38
 230 -295 230 -295 204.5 -275.5 c 128,-1,39
 179 -256 179 -256 156 -256 c 1,40,-1
 133 -258 l 1,41,42
 121 -258 121 -258 121 -247 c 1,43,-1
 134 -154 l 1,0,-1
253 321 m 0,44,45
 258 333 258 333 258 344 c 128,-1,46
 258 355 258 355 250 355 c 0,47,48
 247 355 247 355 243 353 c 0,49,50
 184 324 184 324 139 276 c 128,-1,51
 94 228 94 228 72 169 c 0,52,53
 68 157 68 157 68 148 c 0,54,55
 68 128 68 128 83 128 c 0,56,57
 91 128 91 128 101 134 c 0,58,59
 147 165 147 165 188 216 c 128,-1,60
 229 267 229 267 253 321 c 0,44,45
221.5 641 m 128,-1,62
 237 660 237 660 265 660 c 128,-1,63
 293 660 293 660 311.5 638.5 c 128,-1,64
 330 617 330 617 330 588 c 128,-1,65
 330 559 330 559 314.5 541.5 c 128,-1,66
 299 524 299 524 270 524 c 128,-1,67
 241 524 241 524 223.5 546 c 128,-1,68
 206 568 206 568 206 595 c 128,-1,61
 206 622 206 622 221.5 641 c 128,-1,62
EndSplineSet
EndChar

StartChar: Gcommaaccent
Encoding: 290 290 118
Width: 443
Flags: HMW
HStem: -265 185<139.5 224> -22 76<152 237> 476 243<212 295.5>
VStem: 30 93<196 260.5 180 308> 126 131<-249 -114> 175 82<-152 -132> 252 101<610 614.5> 273 111<166 258>
LayerCount: 2
Fore
SplineSet
248 276 m 1,0,-1
 231 275 l 1,1,2
 202 275 202 275 184 290.5 c 128,-1,3
 166 306 166 306 166 316 c 128,-1,4
 166 326 166 326 179 332.5 c 128,-1,5
 192 339 192 339 264.5 372 c 128,-1,6
 337 405 337 405 365.5 419 c 128,-1,7
 394 433 394 433 407.5 433 c 128,-1,8
 421 433 421 433 438 418.5 c 128,-1,9
 455 404 455 404 455 390.5 c 128,-1,10
 455 377 455 377 450 368.5 c 128,-1,11
 445 360 445 360 434.5 352.5 c 128,-1,12
 424 345 424 345 416.5 340.5 c 128,-1,13
 409 336 409 336 394.5 329.5 c 128,-1,14
 380 323 380 323 377 321 c 0,15,16
 355 311 355 311 355 299 c 1,17,-1
 358 290 l 1,18,19
 384 241 384 241 384 193 c 0,20,21
 384 121 384 121 333 44 c 1,22,23
 287 -22 287 -22 212 -22 c 0,24,25
 162 -22 162 -22 120 -2.5 c 128,-1,26
 78 17 78 17 61 58 c 0,27,28
 30 136 30 136 30 224 c 0,29,30
 30 287.571428571 30 287.571428571 39 326.785714286 c 128,-1,31
 48 366 48 366 52.5 387 c 128,-1,32
 57 408 57 408 70 442.5 c 128,-1,33
 83 477 83 477 88 492 c 128,-1,34
 93 507 93 507 110.5 546.5 c 128,-1,35
 128 586 128 586 132 595 c 0,36,37
 160 658 160 658 179 696 c 1,38,39
 189 719 189 719 217.5 719 c 128,-1,40
 246 719 246 719 278 708.5 c 128,-1,41
 310 698 310 698 325 682 c 0,42,43
 353 652 353 652 353 623.5 c 128,-1,44
 353 595 353 595 317 538 c 0,45,46
 306 521.5 306 521.5 306 490 c 1,47,48
 304 476 304 476 291 476 c 0,49,50
 283 476 283 476 277 481 c 128,-1,51
 271 486 271 486 269.5 491.5 c 128,-1,52
 268 497 268 497 265.5 507 c 128,-1,53
 263 517 263 517 262 520 c 0,54,55
 252 548 252 548 252 612 c 0,56,57
 252 625 252 625 244 625 c 128,-1,58
 236 625 236 625 202 539 c 0,59,60
 123 343 123 343 123 200 c 0,61,62
 123 123 123 123 135 75 c 0,63,64
 140 54 140 54 161 54 c 128,-1,65
 182 54 182 54 206 85 c 0,66,67
 273 172 273 172 273 249 c 0,68,69
 273 276 273 276 248 276 c 1,0,-1
131.5 -258.5 m 128,-1,71
 126 -252 126 -252 126 -243 c 128,-1,72
 126 -234 126 -234 150.5 -195 c 128,-1,73
 175 -156 175 -156 175 -132 c 1,74,75
 163 -118 163 -118 163 -107.5 c 128,-1,76
 163 -97 163 -97 179.5 -88.5 c 128,-1,77
 196 -80 196 -80 213 -80 c 128,-1,78
 230 -80 230 -80 243.5 -94 c 128,-1,79
 257 -108 257 -108 257 -128 c 0,80,81
 257 -162 257 -162 213 -213.5 c 128,-1,82
 169 -265 169 -265 146 -265 c 0,83,70
 137 -265 137 -265 131.5 -258.5 c 128,-1,71
EndSplineSet
EndChar

StartChar: gcommaaccent
Encoding: 291 291 119
Width: 347
Flags: HMW
HStem: -295 179<207.5 248.5> -256 140<152 215> 504 183<269.5 282.5 264 298.5>
VStem: 224 41 224 66 224 83 224 103
LayerCount: 2
Fore
SplineSet
134 -154 m 1,0,-1
 136 -143 l 1,1,2
 136 -134.8 136 -134.8 142 -132.4 c 128,-1,3
 148 -130 148 -130 152 -127.5 c 128,-1,4
 156 -125 156 -125 162.5 -120 c 0,5,6
 175.5 -110 175.5 -110 185.25 -110 c 128,-1,7
 195 -110 195 -110 201.5 -113 c 128,-1,8
 208 -116 208 -116 210 -116 c 0,9,10
 221 -116 221 -116 221 -75 c 1,11,12
 226 22 226 22 240 154 c 1,13,14
 211 108 211 108 164 56.5 c 128,-1,15
 117 5 117 5 89 5 c 128,-1,16
 61 5 61 5 43 30.5 c 0,17,18
 10 77.25 10 77.25 10 138 c 0,19,20
 10 228.424242424 10 228.424242424 105 333.5 c 0,21,22
 138 370 138 370 154.5 385.5 c 128,-1,23
 171 401 171 401 206 433.5 c 128,-1,24
 241 466 241 466 269 466 c 128,-1,25
 297 466 297 466 312 446 c 128,-1,26
 327 426 327 426 327 400.5 c 128,-1,27
 327 375 327 375 315 331 c 1,28,29
 323 326 323 326 323 316.5 c 128,-1,30
 323 307 323 307 321 297 c 0,31,32
 275.902592485 14.7236344451 275.902592485 14.7236344451 270.451296243 -73.3594531964 c 128,-1,33
 265 -161.442540838 265 -161.442540838 265 -212 c 2,34,-1
 266 -265 l 2,35,36
 266 -278 266 -278 259 -286.5 c 128,-1,37
 252 -295 252 -295 241 -295 c 128,-1,38
 230 -295 230 -295 204.5 -275.5 c 128,-1,39
 179 -256 179 -256 156 -256 c 1,40,-1
 133 -258 l 1,41,42
 121 -258 121 -258 121 -247 c 1,43,-1
 134 -154 l 1,0,-1
253 321 m 0,44,45
 258 333 258 333 258 344 c 128,-1,46
 258 355 258 355 250 355 c 0,47,48
 247 355 247 355 243 353 c 0,49,50
 184 324 184 324 139 276 c 128,-1,51
 94 228 94 228 72 169 c 0,52,53
 68 157 68 157 68 148 c 0,54,55
 68 128 68 128 83 128 c 0,56,57
 91 128 91 128 101 134 c 0,58,59
 147 165 147 165 188 216 c 128,-1,60
 229 267 229 267 253 321 c 0,44,45
276 687 m 0,61,62
 290 687 290 687 298.5 678 c 128,-1,63
 307 669 307 669 307 656 c 128,-1,64
 307 643 307 643 298.5 612 c 128,-1,65
 290 581 290 581 290 569 c 128,-1,66
 290 557 290 557 303 544 c 128,-1,67
 316 531 316 531 316 523 c 0,68,69
 316 504 316 504 287.5 504 c 128,-1,70
 259 504 259 504 236 524.5 c 128,-1,71
 213 545 213 545 213 577 c 128,-1,72
 213 609 213 609 235.5 648 c 128,-1,73
 258 687 258 687 276 687 c 0,61,62
EndSplineSet
EndChar

StartChar: hcircumflex
Encoding: 293 293 121
Width: 347
Flags: HMW
HStem: -9 129<264 275 262 279> 760 198<129 283>
VStem: 185 109 185 155<134 143.5 118.5 170.5>
LayerCount: 2
Fore
SplineSet
340 140 m 0,0,1
 340 61 340 61 311 19 c 1,2,3
 289 -9 289 -9 273 -9 c 128,-1,4
 257 -9 257 -9 241 7 c 1,5,6
 185 72 185 72 185 163 c 0,7,8
 185 193.222222222 185 193.222222222 192 225.111111111 c 0,9,10
 204 279.777777778 204 279.777777778 204 295.888888889 c 128,-1,11
 204 312 204 312 201.5 312 c 0,12,13
 195.928176796 312 195.928176796 312 123 37 c 1,14,15
 114 9 114 9 104 9 c 0,16,17
 77 9 77 9 40 102 c 1,18,19
 20 146 20 146 20 208 c 0,20,21
 20 278.375 20 278.375 28.5 326.1875 c 128,-1,22
 37 374 37 374 39 385.5 c 128,-1,23
 41 397 41 397 46.5 422.5 c 128,-1,24
 52 448 52 448 54 456 c 0,25,26
 66.5 506 66.5 506 70 527 c 1,27,28
 45 527 45 527 45 542 c 0,29,30
 45 549 45 549 51 557 c 0,31,32
 106 644 106 644 129 711 c 1,33,34
 133 728 133 728 145 728 c 0,35,36
 161 728 161 728 169 697 c 128,-1,37
 177 666 177 666 177 643 c 0,38,39
 177 585 177 585 139 550 c 1,40,41
 94 271.25 94 271.25 94 257.125 c 128,-1,42
 94 243 94 243 98 243 c 128,-1,43
 102 243 102 243 112.5 261.5 c 128,-1,44
 123 280 123 280 146 332.5 c 128,-1,45
 169 385 169 385 184 410 c 0,46,47
 206 447 206 447 240 447 c 0,48,49
 294 447 294 447 294 346 c 0,50,51
 294 264 294 264 256 139 c 0,52,53
 255 135 255 135 255 131 c 0,54,55
 255 120 255 120 265.5 120 c 128,-1,56
 276 120 276 120 302.5 149 c 128,-1,57
 329 178 329 178 334.5 178 c 128,-1,58
 340 178 340 178 340 140 c 0,0,1
291 772 m 0,59,60
 291 760 291 760 276.5 760 c 128,-1,61
 262 760 262 760 247 766 c 128,-1,62
 232 772 232 772 216.5 789.5 c 128,-1,63
 201 807 201 807 195.5 813.5 c 128,-1,64
 190 820 190 820 173 848.5 c 128,-1,65
 156 877 156 877 155 878 c 1,66,67
 134 846 134 846 92.5 806.5 c 128,-1,68
 51 767 51 767 28 767 c 0,69,70
 10 767 10 767 10 790 c 128,-1,71
 10 813.130434783 10 813.130434783 54.5 861.5 c 0,72,73
 77.0592334495 886.020905923 77.0592334495 886.020905923 93.5296167247 911.010452962 c 128,-1,74
 110 936 110 936 120 947 c 128,-1,75
 130 958 130 958 150 958 c 128,-1,76
 170 958 170 958 190 938.5 c 128,-1,77
 210 919 210 919 224.5 888 c 128,-1,78
 239 857 239 857 240.5 854.5 c 128,-1,79
 242 852 242 852 253 837.5 c 128,-1,80
 264 823 264 823 271 813.5 c 0,81,82
 291 786.357142857 291 786.357142857 291 772 c 0,59,60
EndSplineSet
EndChar

StartChar: Hbar
Encoding: 294 294 122
Width: 472
Flags: HMW
HStem: -48 21G<190 212.5> -14 21G<374 388> 375 86<119 177> 698 20G<391.5 399.5>
VStem: 312 75<74 169> 312 93
LayerCount: 2
Fore
SplineSet
306.5 639 m 128,-1,1
 327 595 327 595 327 569.5 c 128,-1,2
 327 544 327 544 310 459 c 1,3,4
 324 459 324 459 348 461 c 1,5,6
 364 561 364 561 396 674 c 0,7,8
 398 680 398 680 398 685.5 c 128,-1,9
 398 691 398 691 393 700 c 128,-1,10
 388 709 388 709 388 713.5 c 128,-1,11
 388 718 388 718 393.5 718 c 128,-1,12
 399 718 399 718 406.5 713 c 0,13,14
 447 686 447 686 447 661 c 0,15,16
 447 649 447 649 438.5 612.5 c 128,-1,17
 430 576 430 576 416 476 c 1,18,19
 440.4 488.2 440.4 488.2 453 490 c 1,20,21
 469.461538462 490 469.461538462 490 477 441 c 1,22,23
 477 397 477 397 405 391 c 1,24,25
 401 359 401 359 401 344 c 1,26,27
 407 345 407 345 418 345 c 128,-1,28
 429 345 429 345 457.5 334.5 c 128,-1,29
 486 324 486 324 486 308 c 0,30,31
 486 302 486 302 479 296 c 128,-1,32
 472 290 472 290 446 267.5 c 128,-1,33
 420 245 420 245 411 242 c 128,-1,34
 402 239 402 239 392 236 c 1,35,36
 387 154 387 154 387 145 c 128,-1,37
 387 136 387 136 395 92.5 c 128,-1,38
 403 49 403 49 403 35.5 c 128,-1,39
 403 22 403 22 397 4 c 128,-1,40
 391 -14 391 -14 378 -14 c 0,41,42
 370 -14 370 -14 357 -3 c 0,43,44
 312 39 312 39 312 95 c 0,45,46
 312 136 312 136 319 213 c 1,47,48
 289 205 289 205 251 192 c 1,49,50
 249 184 249 184 241 154.5 c 0,51,52
 226 99.1875 226 99.1875 226 68 c 1,53,-1
 236 0 l 1,54,55
 236 -16 236 -16 226 -32 c 128,-1,56
 216 -48 216 -48 203.5 -48 c 128,-1,57
 191 -48 191 -48 183 -39 c 128,-1,58
 175 -30 175 -30 165.5 -11 c 128,-1,59
 156 8 156 8 156 9 c 0,60,61
 137 44 137 44 137 73 c 128,-1,62
 137 102 137 102 148 179 c 1,63,64
 143 180 143 180 131.5 179 c 0,65,66
 106.953216374 176.865497076 106.953216374 176.865497076 97.9766081871 188.432748538 c 128,-1,67
 89 200 89 200 71.5 231.5 c 128,-1,68
 54 263 54 263 54 272.5 c 128,-1,69
 54 282 54 282 61 282 c 1,70,-1
 95 273 l 1,71,72
 112.5 273 112.5 273 172 290 c 1,73,74
 174 298 174 298 192 379 c 1,75,76
 170 377 170 377 126 375 c 0,77,78
 117 375 117 375 109 394.5 c 128,-1,79
 101 414 101 414 101 431 c 128,-1,80
 101 448 101 448 105 454 c 128,-1,81
 109 460 109 460 121 460 c 2,82,-1
 169 461 l 1,83,-1
 212 460 l 1,84,85
 218 485 218 485 229.5 532 c 128,-1,86
 241 579 241 579 243.5 588.75 c 128,-1,87
 246 598.5 246 598.5 246 612.75 c 128,-1,88
 246 627 246 627 236 627 c 2,89,-1
 233 627 l 1,90,91
 231 626 231 626 223 625 c 128,-1,92
 215 624 215 624 208 622.5 c 128,-1,93
 201 621 201 621 193.5 618.5 c 0,94,95
 177 613 177 613 177 605.5 c 128,-1,96
 177 598 177 598 187.5 590 c 128,-1,97
 198 582 198 582 198 576 c 128,-1,98
 198 570 198 570 197 568 c 0,99,100
 119 469 119 469 58 423 c 0,101,102
 48 415 48 415 38 415 c 0,103,104
 16 415 16 415 7 445 c 0,105,106
 5 451 5 451 1 460.5 c 128,-1,107
 -3 470 -3 470 -5 475.5 c 0,108,109
 -10 489.25 -10 489.25 -10 508.125 c 128,-1,110
 -10 527 -10 527 6 545 c 1,111,112
 76 615 76 615 180 690 c 1,113,114
 192 700 192 700 213 700 c 128,-1,115
 234 700 234 700 260 691.5 c 128,-1,0
 286 683 286 683 306.5 639 c 128,-1,1
328 389 m 2,116,117
 305 389 305 389 295 387 c 1,118,119
 287.5 351 287.5 351 280 318 c 1,120,-1
 329 329 l 1,121,122
 333 369 333 369 336 389 c 1,123,-1
 328 389 l 2,116,117
EndSplineSet
EndChar

StartChar: hbar
Encoding: 295 295 123
Width: 347
Flags: HMW
HStem: -9 129<264 275 262 279> 465 20G<5 21> 490 81 490 238<140 144 129 157>
VStem: -11 188<535 652.5 543 652.5> -11 249<509.5 543 509.5 554.5> 186 108 186 154<134 143.5 118.5 170.5>
LayerCount: 2
Fore
SplineSet
155 568 m 1,0,-1
 215 580 l 1,1,2
 225 580 225 580 231.5 561 c 128,-1,3
 238 542 238 542 238 529 c 128,-1,4
 238 516 238 516 229.5 506.5 c 128,-1,5
 221 497 221 497 202.5 494 c 0,6,7
 177.833333333 490 177.833333333 490 144 490 c 2,8,-1
 129 490 l 1,9,10
 94 278.6 94 278.6 94 260.8 c 128,-1,11
 94 243 94 243 98 243 c 0,12,13
 105 243 105 243 110 257 c 1,14,15
 123 280 123 280 146 332.5 c 128,-1,16
 169 385 169 385 184 410 c 0,17,18
 206 447 206 447 240 447 c 0,19,20
 294 447 294 447 294 344.5 c 128,-1,21
 294 242 294 242 256 139 c 0,22,23
 255 136 255 136 255 131 c 0,24,25
 255 120 255 120 265.5 120 c 128,-1,26
 276 120 276 120 302.5 149 c 128,-1,27
 329 178 329 178 334.5 178 c 128,-1,28
 340 178 340 178 340 140 c 0,29,30
 340 61 340 61 311 19 c 1,31,32
 289 -9 289 -9 273 -9 c 128,-1,33
 257 -9 257 -9 241 7 c 1,34,35
 186 71 186 71 186 163 c 0,36,37
 186 200.625 186 200.625 195 242.8125 c 128,-1,38
 204 285 204 285 204 298.5 c 128,-1,39
 204 312 204 312 202.5 312 c 128,-1,40
 201 312 201 312 198 305.5 c 0,41,42
 189.748514851 287.621782178 189.748514851 287.621782178 123 37 c 1,43,44
 114 9 114 9 104 9 c 0,45,46
 77 9 77 9 40 102 c 1,47,48
 20 146 20 146 20 208 c 0,49,50
 20 311 20 311 60 486 c 1,51,52
 46 485 46 485 12 485 c 0,53,54
 0 485 0 485 -11 535 c 1,55,-1
 -11 543 l 2,56,57
 -11 559 -11 559 -6 565 c 128,-1,58
 -1 571 -1 571 9.5 571 c 128,-1,59
 20 571 20 571 68 568 c 1,60,61
 95 612 95 612 129 711 c 1,62,63
 133 728 133 728 145 728 c 0,64,65
 161 728 161 728 169 697 c 128,-1,66
 177 666 177 666 177 633 c 128,-1,67
 177 600 177 600 155 568 c 1,0,-1
EndSplineSet
EndChar

StartChar: igrave
Encoding: 236 236 125
Width: 240
Flags: HMW
HStem: -12 21G<102 129.5> 481 198<-19.5 116>
VStem: 32 208<157 190.5 147 195> 46 92<306 391>
LayerCount: 2
Fore
SplineSet
215 244 m 1,0,1
 224 261 224 261 229.5 261 c 128,-1,2
 235 261 235 261 237.5 236 c 128,-1,3
 240 211 240 211 240 169.5 c 128,-1,4
 240 128 240 128 220.5 80.5 c 128,-1,5
 201 33 201 33 164 4 c 0,6,7
 143 -12 143 -12 125.5 -12 c 128,-1,8
 108 -12 108 -12 96.5 -4.5 c 128,-1,9
 85 3 85 3 75.5 19.5 c 0,10,11
 61.1769230769 44.3769230769 61.1769230769 44.3769230769 46.5884615385 82.1884615385 c 128,-1,12
 32 120 32 120 32 164 c 128,-1,13
 32 208 32 208 39 253 c 128,-1,14
 46 298 46 298 46 313.5 c 128,-1,15
 46 329 46 329 30 353.5 c 128,-1,16
 14 378 14 378 14 383 c 128,-1,17
 14 388 14 388 17.5 393.5 c 128,-1,18
 21 399 21 399 26.5 404.5 c 128,-1,19
 32 410 32 410 37.5 414 c 128,-1,20
 43 418 43 418 49.5 423.5 c 0,21,22
 72.5454545455 443 72.5454545455 443 92.7727272727 443 c 128,-1,23
 113 443 113 443 127.5 428 c 128,-1,24
 142 413 142 413 138 391 c 1,25,26
 136 343 136 343 122 253 c 0,27,28
 105 143.714285714 105 143.714285714 105 129.857142857 c 128,-1,29
 105 116 105 116 114 116 c 0,30,31
 134 116 134 116 215 244 c 1,0,1
38 524 m 128,-1,33
 30 536 30 536 18 551.5 c 128,-1,34
 6 567 6 567 -19 591 c 128,-1,35
 -44 615 -44 615 -56 626.5 c 128,-1,36
 -68 638 -68 638 -68 645 c 0,37,38
 -68 655 -68 655 -47 667 c 128,-1,39
 -26 679 -26 679 -13 679 c 128,-1,40
 0 679 0 679 4 678 c 128,-1,41
 8 677 8 677 12.5 673.5 c 128,-1,42
 17 670 17 670 20 667 c 128,-1,43
 23 664 23 664 28 656 c 128,-1,44
 33 648 33 648 37.5 641 c 128,-1,45
 42 634 42 634 50.5 620 c 128,-1,46
 59 606 59 606 63 599.5 c 128,-1,47
 67 593 67 593 85.5 565 c 0,48,49
 124 506.72972973 124 506.72972973 124 493.864864865 c 128,-1,50
 124 481 124 481 112 481 c 128,-1,51
 100 481 100 481 90 483.5 c 128,-1,52
 80 486 80 486 73.5 488.5 c 128,-1,53
 67 491 67 491 59.5 498.5 c 2,54,-1
 49 509 l 2,55,32
 46 512 46 512 38 524 c 128,-1,33
EndSplineSet
EndChar

StartChar: iacute
Encoding: 237 237 127
Width: 240
Flags: HMW
HStem: -12 21G<102 129.5> 657 20G<184 204.5>
VStem: 14 124<391 391 391 391.5> 32 208<157 190.5 147 195> 46 92<306 391> 73 167
LayerCount: 2
Fore
SplineSet
215 244 m 1,0,1
 224 261 224 261 229.5 261 c 128,-1,2
 235 261 235 261 237.5 236 c 128,-1,3
 240 211 240 211 240 169.5 c 128,-1,4
 240 128 240 128 220.5 80.5 c 128,-1,5
 201 33 201 33 164 4 c 0,6,7
 143 -12 143 -12 125.5 -12 c 128,-1,8
 108 -12 108 -12 96.5 -4.5 c 128,-1,9
 85 3 85 3 75.5 19.5 c 0,10,11
 61.1769230769 44.3769230769 61.1769230769 44.3769230769 46.5884615385 82.1884615385 c 128,-1,12
 32 120 32 120 32 164 c 128,-1,13
 32 208 32 208 39 253 c 128,-1,14
 46 298 46 298 46 313.5 c 128,-1,15
 46 329 46 329 30 353.5 c 128,-1,16
 14 378 14 378 14 383 c 128,-1,17
 14 388 14 388 17.5 393.5 c 128,-1,18
 21 399 21 399 26.5 404.5 c 128,-1,19
 32 410 32 410 37.5 414 c 128,-1,20
 43 418 43 418 49.5 423.5 c 0,21,22
 72.5454545455 443 72.5454545455 443 92.7727272727 443 c 128,-1,23
 113 443 113 443 127.5 428 c 128,-1,24
 142 413 142 413 138 391 c 1,25,26
 136 343 136 343 122 253 c 0,27,28
 105 143.714285714 105 143.714285714 105 129.857142857 c 128,-1,29
 105 116 105 116 114 116 c 0,30,31
 134 116 134 116 215 244 c 1,0,1
73 498 m 0,32,33
 73 553.428571429 73 553.428571429 155 632.5 c 0,34,35
 169 646 169 646 174.5 652.5 c 128,-1,36
 180 659 180 659 180 668 c 128,-1,37
 180 677 180 677 186 677 c 0,38,39
 210 677 210 677 223.5 649 c 128,-1,40
 237 621 237 621 237 607 c 0,41,42
 237 579 237 579 215 561 c 1,43,44
 205 548 205 548 156 514.5 c 128,-1,45
 107 481 107 481 94.5 481 c 128,-1,46
 82 481 82 481 77.5 487 c 128,-1,47
 73 493 73 493 73 498 c 0,32,33
EndSplineSet
EndChar

StartChar: icircumflex
Encoding: 238 238 129
Width: 240
Flags: HMW
HStem: -12 21G<102 129.5> 481 198<72 226>
VStem: 14 124<391 391 391 391.5> 32 208<157 190.5 147 195> 46 92<306 391>
LayerCount: 2
Fore
SplineSet
215 244 m 1,0,1
 224 261 224 261 229.5 261 c 128,-1,2
 235 261 235 261 237.5 236 c 128,-1,3
 240 211 240 211 240 169.5 c 128,-1,4
 240 128 240 128 220.5 80.5 c 128,-1,5
 201 33 201 33 164 4 c 0,6,7
 143 -12 143 -12 125.5 -12 c 128,-1,8
 108 -12 108 -12 96.5 -4.5 c 128,-1,9
 85 3 85 3 75.5 19.5 c 0,10,11
 61.1769230769 44.3769230769 61.1769230769 44.3769230769 46.5884615385 82.1884615385 c 128,-1,12
 32 120 32 120 32 164 c 128,-1,13
 32 208 32 208 39 253 c 128,-1,14
 46 298 46 298 46 313.5 c 128,-1,15
 46 329 46 329 30 353.5 c 128,-1,16
 14 378 14 378 14 383 c 128,-1,17
 14 388 14 388 17.5 393.5 c 128,-1,18
 21 399 21 399 26.5 404.5 c 128,-1,19
 32 410 32 410 37.5 414 c 128,-1,20
 43 418 43 418 49.5 423.5 c 0,21,22
 72.5454545455 443 72.5454545455 443 92.7727272727 443 c 128,-1,23
 113 443 113 443 127.5 428 c 128,-1,24
 142 413 142 413 138 391 c 1,25,26
 136 343 136 343 122 253 c 0,27,28
 105 143.714285714 105 143.714285714 105 129.857142857 c 128,-1,29
 105 116 105 116 114 116 c 0,30,31
 134 116 134 116 215 244 c 1,0,1
234 493 m 0,32,33
 234 481 234 481 219.5 481 c 128,-1,34
 205 481 205 481 190 487 c 128,-1,35
 175 493 175 493 159.5 510.5 c 128,-1,36
 144 528 144 528 138.5 534.5 c 128,-1,37
 133 541 133 541 116 569.5 c 128,-1,38
 99 598 99 598 98 599 c 1,39,40
 77 567 77 567 35.5 527.5 c 128,-1,41
 -6 488 -6 488 -29 488 c 0,42,43
 -47 488 -47 488 -47 511 c 128,-1,44
 -47 534.130434783 -47 534.130434783 -2.5 582.5 c 0,45,46
 20.0592334495 607.020905923 20.0592334495 607.020905923 36.5296167247 632.010452962 c 128,-1,47
 53 657 53 657 63 668 c 128,-1,48
 73 679 73 679 93 679 c 128,-1,49
 113 679 113 679 133 659.5 c 128,-1,50
 153 640 153 640 167.5 609 c 128,-1,51
 182 578 182 578 183.5 575.5 c 128,-1,52
 185 573 185 573 196 558.5 c 128,-1,53
 207 544 207 544 214 534.5 c 0,54,55
 234 507.357142857 234 507.357142857 234 493 c 0,32,33
EndSplineSet
EndChar

StartChar: idieresis
Encoding: 239 239 131
Width: 240
Flags: HMW
HStem: -12 21G<102 129.5> 511 120<152.5 182.5 151 185.5> 614 20G<-4 22>
VStem: -33 98<558.5 576.5 557.5 591.5> 14 124<391 391 391 391.5> 32 208<157 190.5 147 195> 46 92<306 391> 115 111<557 576 557 576.5>
LayerCount: 2
Fore
SplineSet
215 244 m 1,0,1
 224 261 224 261 229.5 261 c 128,-1,2
 235 261 235 261 237.5 236 c 128,-1,3
 240 211 240 211 240 169.5 c 128,-1,4
 240 128 240 128 220.5 80.5 c 128,-1,5
 201 33 201 33 164 4 c 0,6,7
 143 -12 143 -12 125.5 -12 c 128,-1,8
 108 -12 108 -12 96.5 -4.5 c 128,-1,9
 85 3 85 3 75.5 19.5 c 0,10,11
 61.1769230769 44.3769230769 61.1769230769 44.3769230769 46.5884615385 82.1884615385 c 128,-1,12
 32 120 32 120 32 164 c 128,-1,13
 32 208 32 208 39 253 c 128,-1,14
 46 298 46 298 46 313.5 c 128,-1,15
 46 329 46 329 30 353.5 c 128,-1,16
 14 378 14 378 14 383 c 128,-1,17
 14 388 14 388 17.5 393.5 c 128,-1,18
 21 399 21 399 26.5 404.5 c 128,-1,19
 32 410 32 410 37.5 414 c 128,-1,20
 43 418 43 418 49.5 423.5 c 0,21,22
 72.5454545455 443 72.5454545455 443 92.7727272727 443 c 128,-1,23
 113 443 113 443 127.5 428 c 128,-1,24
 142 413 142 413 138 391 c 1,25,26
 136 343 136 343 122 253 c 0,27,28
 105 143.714285714 105 143.714285714 105 129.857142857 c 128,-1,29
 105 116 105 116 114 116 c 0,30,31
 134 116 134 116 215 244 c 1,0,1
223 593 m 0,32,33
 226 583 226 583 226 565.5 c 128,-1,34
 226 548 226 548 210 529.5 c 128,-1,35
 194 511 194 511 169.5 511 c 128,-1,36
 145 511 145 511 130 526.5 c 128,-1,37
 115 542 115 542 115 565 c 128,-1,38
 115 588 115 588 129 609.5 c 128,-1,39
 143 631 143 631 177 631 c 128,-1,40
 211 631 211 631 223 593 c 0,32,33
14 634 m 0,41,42
 32 634 32 634 48.5 616.5 c 128,-1,43
 65 599 65 599 65 573.5 c 128,-1,44
 65 548 65 548 51.5 529.5 c 128,-1,45
 38 511 38 511 16.5 511 c 128,-1,46
 -5 511 -5 511 -19 530.5 c 128,-1,47
 -33 550 -33 550 -33 578 c 0,48,49
 -33 634 -33 634 14 634 c 0,41,42
EndSplineSet
EndChar

StartChar: itilde
Encoding: 297 297 133
Width: 240
Flags: HMW
HStem: -12 21G<102 129.5> 497 79<127.5 151.5 122 170.5> 556 20 556 77<20 51>
VStem: 14 124<391 391 391 391.5> 32 208<157 190.5 147 195> 46 92<306 391>
LayerCount: 2
Fore
SplineSet
215 244 m 1,0,1
 224 261 224 261 229.5 261 c 128,-1,2
 235 261 235 261 237.5 236 c 128,-1,3
 240 211 240 211 240 169.5 c 128,-1,4
 240 128 240 128 220.5 80.5 c 128,-1,5
 201 33 201 33 164 4 c 0,6,7
 143 -12 143 -12 125.5 -12 c 128,-1,8
 108 -12 108 -12 96.5 -4.5 c 128,-1,9
 85 3 85 3 75.5 19.5 c 0,10,11
 61.1769230769 44.3769230769 61.1769230769 44.3769230769 46.5884615385 82.1884615385 c 128,-1,12
 32 120 32 120 32 164 c 128,-1,13
 32 208 32 208 39 253 c 128,-1,14
 46 298 46 298 46 313.5 c 128,-1,15
 46 329 46 329 30 353.5 c 128,-1,16
 14 378 14 378 14 383 c 128,-1,17
 14 388 14 388 17.5 393.5 c 128,-1,18
 21 399 21 399 26.5 404.5 c 128,-1,19
 32 410 32 410 37.5 414 c 128,-1,20
 43 418 43 418 49.5 423.5 c 0,21,22
 72.5454545455 443 72.5454545455 443 92.7727272727 443 c 128,-1,23
 113 443 113 443 127.5 428 c 128,-1,24
 142 413 142 413 138 391 c 1,25,26
 136 343 136 343 122 253 c 0,27,28
 105 143.714285714 105 143.714285714 105 129.857142857 c 128,-1,29
 105 116 105 116 114 116 c 0,30,31
 134 116 134 116 215 244 c 1,0,1
89.5 604.5 m 128,-1,33
 125 576 125 576 137 576 c 128,-1,34
 149 576 149 576 158.5 588 c 128,-1,35
 168 600 168 600 175 612.5 c 128,-1,36
 182 625 182 625 194 625 c 128,-1,37
 206 625 206 625 216 606.5 c 128,-1,38
 226 588 226 588 226 572 c 0,39,40
 226 539 226 539 203.5 518 c 128,-1,41
 181 497 181 497 153 497 c 128,-1,42
 125 497 125 497 86.5 526.5 c 128,-1,43
 48 556 48 556 35.5 556 c 128,-1,44
 23 556 23 556 14.5 541 c 128,-1,45
 6 526 6 526 -3 511 c 128,-1,46
 -12 496 -12 496 -24 496 c 128,-1,47
 -36 496 -36 496 -43 509.5 c 128,-1,48
 -50 523 -50 523 -50 538 c 0,49,50
 -50 575 -50 575 -23 604 c 128,-1,51
 4 633 4 633 29 633 c 128,-1,32
 54 633 54 633 89.5 604.5 c 128,-1,33
EndSplineSet
EndChar

